<?xml version="1.0" encoding="utf-8" standalone="no"?>
<!DOCTYPE svg PUBLIC "-//W3C//DTD SVG 1.1//EN"
  "http://www.w3.org/Graphics/SVG/1.1/DTD/svg11.dtd">
<svg xmlns:xlink="http://www.w3.org/1999/xlink" width="1000.340625pt" height="390.356525pt" viewBox="0 0 1000.340625 390.356525" xmlns="http://www.w3.org/2000/svg" version="1.1">
 <metadata>
  <rdf:RDF xmlns:dc="http://purl.org/dc/elements/1.1/" xmlns:cc="http://creativecommons.org/ns#" xmlns:rdf="http://www.w3.org/1999/02/22-rdf-syntax-ns#">
   <cc:Work>
    <dc:type rdf:resource="http://purl.org/dc/dcmitype/StillImage"/>
    <dc:date>2023-04-29T19:42:33.179667</dc:date>
    <dc:format>image/svg+xml</dc:format>
    <dc:creator>
     <cc:Agent>
      <dc:title>Matplotlib v3.5.1, https://matplotlib.org/</dc:title>
     </cc:Agent>
    </dc:creator>
   </cc:Work>
  </rdf:RDF>
 </metadata>
 <defs>
  <style type="text/css">*{stroke-linejoin: round; stroke-linecap: butt}</style>
 </defs>
 <g id="figure_1">
  <g id="axes_1">
   <g id="patch_1">
    <path d="M 40.600625 354.7359 
L 993.140625 354.7359 
L 993.140625 35.3279 
L 40.600625 35.3279 
z
" style="fill: #ffffff"/>
   </g>
   <g id="patch_2">
    <path d="M 746.18581 354.7359 
L 2560.547715 354.7359 
L 2560.547715 35.3279 
L 746.18581 35.3279 
z
" clip-path="url(#p2ff9168d10)" style="fill: #c3e6c3"/>
   </g>
   <g id="patch_3">
    <path d="M 544.590043 354.7359 
L 746.18581 354.7359 
L 746.18581 35.3279 
L 544.590043 35.3279 
z
" clip-path="url(#p2ff9168d10)" style="fill: #e6dcc3"/>
   </g>
   <g id="patch_4">
    <path d="M 40.600625 354.7359 
L 544.590043 354.7359 
L 544.590043 35.3279 
L 40.600625 35.3279 
z
" clip-path="url(#p2ff9168d10)" style="fill: #e6c3c3"/>
   </g>
   <g id="matplotlib.axis_1">
    <g id="xtick_1">
     <g id="text_1">
      <!-- 0 -->
      <g transform="translate(38.055625 367.81465)scale(0.08 -0.08)">
       <defs>
        <path id="DejaVuSans-30" d="M 2034 4250 
Q 1547 4250 1301 3770 
Q 1056 3291 1056 2328 
Q 1056 1369 1301 889 
Q 1547 409 2034 409 
Q 2525 409 2770 889 
Q 3016 1369 3016 2328 
Q 3016 3291 2770 3770 
Q 2525 4250 2034 4250 
z
M 2034 4750 
Q 2819 4750 3233 4129 
Q 3647 3509 3647 2328 
Q 3647 1150 3233 529 
Q 2819 -91 2034 -91 
Q 1250 -91 836 529 
Q 422 1150 422 2328 
Q 422 3509 836 4129 
Q 1250 4750 2034 4750 
z
" transform="scale(0.015625)"/>
       </defs>
       <use xlink:href="#DejaVuSans-30"/>
      </g>
     </g>
    </g>
    <g id="xtick_2">
     <g id="text_2">
      <!-- 5 -->
      <g transform="translate(164.052979 367.81465)scale(0.08 -0.08)">
       <defs>
        <path id="DejaVuSans-35" d="M 691 4666 
L 3169 4666 
L 3169 4134 
L 1269 4134 
L 1269 2991 
Q 1406 3038 1543 3061 
Q 1681 3084 1819 3084 
Q 2600 3084 3056 2656 
Q 3513 2228 3513 1497 
Q 3513 744 3044 326 
Q 2575 -91 1722 -91 
Q 1428 -91 1123 -41 
Q 819 9 494 109 
L 494 744 
Q 775 591 1075 516 
Q 1375 441 1709 441 
Q 2250 441 2565 725 
Q 2881 1009 2881 1497 
Q 2881 1984 2565 2268 
Q 2250 2553 1709 2553 
Q 1456 2553 1204 2497 
Q 953 2441 691 2322 
L 691 4666 
z
" transform="scale(0.015625)"/>
       </defs>
       <use xlink:href="#DejaVuSans-35"/>
      </g>
     </g>
    </g>
    <g id="xtick_3">
     <g id="text_3">
      <!-- 10 -->
      <g transform="translate(287.505334 367.81465)scale(0.08 -0.08)">
       <defs>
        <path id="DejaVuSans-31" d="M 794 531 
L 1825 531 
L 1825 4091 
L 703 3866 
L 703 4441 
L 1819 4666 
L 2450 4666 
L 2450 531 
L 3481 531 
L 3481 0 
L 794 0 
L 794 531 
z
" transform="scale(0.015625)"/>
       </defs>
       <use xlink:href="#DejaVuSans-31"/>
       <use xlink:href="#DejaVuSans-30" x="63.623047"/>
      </g>
     </g>
    </g>
    <g id="xtick_4">
     <g id="text_4">
      <!-- 15 -->
      <g transform="translate(413.502688 367.81465)scale(0.08 -0.08)">
       <use xlink:href="#DejaVuSans-31"/>
       <use xlink:href="#DejaVuSans-35" x="63.623047"/>
      </g>
     </g>
    </g>
    <g id="xtick_5">
     <g id="text_5">
      <!-- 20 -->
      <g transform="translate(539.500043 367.81465)scale(0.08 -0.08)">
       <defs>
        <path id="DejaVuSans-32" d="M 1228 531 
L 3431 531 
L 3431 0 
L 469 0 
L 469 531 
Q 828 903 1448 1529 
Q 2069 2156 2228 2338 
Q 2531 2678 2651 2914 
Q 2772 3150 2772 3378 
Q 2772 3750 2511 3984 
Q 2250 4219 1831 4219 
Q 1534 4219 1204 4116 
Q 875 4013 500 3803 
L 500 4441 
Q 881 4594 1212 4672 
Q 1544 4750 1819 4750 
Q 2544 4750 2975 4387 
Q 3406 4025 3406 3419 
Q 3406 3131 3298 2873 
Q 3191 2616 2906 2266 
Q 2828 2175 2409 1742 
Q 1991 1309 1228 531 
z
" transform="scale(0.015625)"/>
       </defs>
       <use xlink:href="#DejaVuSans-32"/>
       <use xlink:href="#DejaVuSans-30" x="63.623047"/>
      </g>
     </g>
    </g>
    <g id="xtick_6">
     <g id="text_6">
      <!-- 25 -->
      <g transform="translate(665.497397 367.81465)scale(0.08 -0.08)">
       <use xlink:href="#DejaVuSans-32"/>
       <use xlink:href="#DejaVuSans-35" x="63.623047"/>
      </g>
     </g>
    </g>
    <g id="xtick_7">
     <g id="text_7">
      <!-- 30 -->
      <g transform="translate(791.494752 367.81465)scale(0.08 -0.08)">
       <defs>
        <path id="DejaVuSans-33" d="M 2597 2516 
Q 3050 2419 3304 2112 
Q 3559 1806 3559 1356 
Q 3559 666 3084 287 
Q 2609 -91 1734 -91 
Q 1441 -91 1130 -33 
Q 819 25 488 141 
L 488 750 
Q 750 597 1062 519 
Q 1375 441 1716 441 
Q 2309 441 2620 675 
Q 2931 909 2931 1356 
Q 2931 1769 2642 2001 
Q 2353 2234 1838 2234 
L 1294 2234 
L 1294 2753 
L 1863 2753 
Q 2328 2753 2575 2939 
Q 2822 3125 2822 3475 
Q 2822 3834 2567 4026 
Q 2313 4219 1838 4219 
Q 1578 4219 1281 4162 
Q 984 4106 628 3988 
L 628 4550 
Q 988 4650 1302 4700 
Q 1616 4750 1894 4750 
Q 2613 4750 3031 4423 
Q 3450 4097 3450 3541 
Q 3450 3153 3228 2886 
Q 3006 2619 2597 2516 
z
" transform="scale(0.015625)"/>
       </defs>
       <use xlink:href="#DejaVuSans-33"/>
       <use xlink:href="#DejaVuSans-30" x="63.623047"/>
      </g>
     </g>
    </g>
    <g id="xtick_8">
     <g id="text_8">
      <!-- 35 -->
      <g transform="translate(917.492106 367.81465)scale(0.08 -0.08)">
       <use xlink:href="#DejaVuSans-33"/>
       <use xlink:href="#DejaVuSans-35" x="63.623047"/>
      </g>
     </g>
    </g>
    <g id="text_9">
     <!-- Mean Sequence Quality (Phred Score) -->
     <g transform="translate(422.078438 381.076838)scale(0.1 -0.1)">
      <defs>
       <path id="DejaVuSans-4d" d="M 628 4666 
L 1569 4666 
L 2759 1491 
L 3956 4666 
L 4897 4666 
L 4897 0 
L 4281 0 
L 4281 4097 
L 3078 897 
L 2444 897 
L 1241 4097 
L 1241 0 
L 628 0 
L 628 4666 
z
" transform="scale(0.015625)"/>
       <path id="DejaVuSans-65" d="M 3597 1894 
L 3597 1613 
L 953 1613 
Q 991 1019 1311 708 
Q 1631 397 2203 397 
Q 2534 397 2845 478 
Q 3156 559 3463 722 
L 3463 178 
Q 3153 47 2828 -22 
Q 2503 -91 2169 -91 
Q 1331 -91 842 396 
Q 353 884 353 1716 
Q 353 2575 817 3079 
Q 1281 3584 2069 3584 
Q 2775 3584 3186 3129 
Q 3597 2675 3597 1894 
z
M 3022 2063 
Q 3016 2534 2758 2815 
Q 2500 3097 2075 3097 
Q 1594 3097 1305 2825 
Q 1016 2553 972 2059 
L 3022 2063 
z
" transform="scale(0.015625)"/>
       <path id="DejaVuSans-61" d="M 2194 1759 
Q 1497 1759 1228 1600 
Q 959 1441 959 1056 
Q 959 750 1161 570 
Q 1363 391 1709 391 
Q 2188 391 2477 730 
Q 2766 1069 2766 1631 
L 2766 1759 
L 2194 1759 
z
M 3341 1997 
L 3341 0 
L 2766 0 
L 2766 531 
Q 2569 213 2275 61 
Q 1981 -91 1556 -91 
Q 1019 -91 701 211 
Q 384 513 384 1019 
Q 384 1609 779 1909 
Q 1175 2209 1959 2209 
L 2766 2209 
L 2766 2266 
Q 2766 2663 2505 2880 
Q 2244 3097 1772 3097 
Q 1472 3097 1187 3025 
Q 903 2953 641 2809 
L 641 3341 
Q 956 3463 1253 3523 
Q 1550 3584 1831 3584 
Q 2591 3584 2966 3190 
Q 3341 2797 3341 1997 
z
" transform="scale(0.015625)"/>
       <path id="DejaVuSans-6e" d="M 3513 2113 
L 3513 0 
L 2938 0 
L 2938 2094 
Q 2938 2591 2744 2837 
Q 2550 3084 2163 3084 
Q 1697 3084 1428 2787 
Q 1159 2491 1159 1978 
L 1159 0 
L 581 0 
L 581 3500 
L 1159 3500 
L 1159 2956 
Q 1366 3272 1645 3428 
Q 1925 3584 2291 3584 
Q 2894 3584 3203 3211 
Q 3513 2838 3513 2113 
z
" transform="scale(0.015625)"/>
       <path id="DejaVuSans-20" transform="scale(0.015625)"/>
       <path id="DejaVuSans-53" d="M 3425 4513 
L 3425 3897 
Q 3066 4069 2747 4153 
Q 2428 4238 2131 4238 
Q 1616 4238 1336 4038 
Q 1056 3838 1056 3469 
Q 1056 3159 1242 3001 
Q 1428 2844 1947 2747 
L 2328 2669 
Q 3034 2534 3370 2195 
Q 3706 1856 3706 1288 
Q 3706 609 3251 259 
Q 2797 -91 1919 -91 
Q 1588 -91 1214 -16 
Q 841 59 441 206 
L 441 856 
Q 825 641 1194 531 
Q 1563 422 1919 422 
Q 2459 422 2753 634 
Q 3047 847 3047 1241 
Q 3047 1584 2836 1778 
Q 2625 1972 2144 2069 
L 1759 2144 
Q 1053 2284 737 2584 
Q 422 2884 422 3419 
Q 422 4038 858 4394 
Q 1294 4750 2059 4750 
Q 2388 4750 2728 4690 
Q 3069 4631 3425 4513 
z
" transform="scale(0.015625)"/>
       <path id="DejaVuSans-71" d="M 947 1747 
Q 947 1113 1208 752 
Q 1469 391 1925 391 
Q 2381 391 2643 752 
Q 2906 1113 2906 1747 
Q 2906 2381 2643 2742 
Q 2381 3103 1925 3103 
Q 1469 3103 1208 2742 
Q 947 2381 947 1747 
z
M 2906 525 
Q 2725 213 2448 61 
Q 2172 -91 1784 -91 
Q 1150 -91 751 415 
Q 353 922 353 1747 
Q 353 2572 751 3078 
Q 1150 3584 1784 3584 
Q 2172 3584 2448 3432 
Q 2725 3281 2906 2969 
L 2906 3500 
L 3481 3500 
L 3481 -1331 
L 2906 -1331 
L 2906 525 
z
" transform="scale(0.015625)"/>
       <path id="DejaVuSans-75" d="M 544 1381 
L 544 3500 
L 1119 3500 
L 1119 1403 
Q 1119 906 1312 657 
Q 1506 409 1894 409 
Q 2359 409 2629 706 
Q 2900 1003 2900 1516 
L 2900 3500 
L 3475 3500 
L 3475 0 
L 2900 0 
L 2900 538 
Q 2691 219 2414 64 
Q 2138 -91 1772 -91 
Q 1169 -91 856 284 
Q 544 659 544 1381 
z
M 1991 3584 
L 1991 3584 
z
" transform="scale(0.015625)"/>
       <path id="DejaVuSans-63" d="M 3122 3366 
L 3122 2828 
Q 2878 2963 2633 3030 
Q 2388 3097 2138 3097 
Q 1578 3097 1268 2742 
Q 959 2388 959 1747 
Q 959 1106 1268 751 
Q 1578 397 2138 397 
Q 2388 397 2633 464 
Q 2878 531 3122 666 
L 3122 134 
Q 2881 22 2623 -34 
Q 2366 -91 2075 -91 
Q 1284 -91 818 406 
Q 353 903 353 1747 
Q 353 2603 823 3093 
Q 1294 3584 2113 3584 
Q 2378 3584 2631 3529 
Q 2884 3475 3122 3366 
z
" transform="scale(0.015625)"/>
       <path id="DejaVuSans-51" d="M 2522 4238 
Q 1834 4238 1429 3725 
Q 1025 3213 1025 2328 
Q 1025 1447 1429 934 
Q 1834 422 2522 422 
Q 3209 422 3611 934 
Q 4013 1447 4013 2328 
Q 4013 3213 3611 3725 
Q 3209 4238 2522 4238 
z
M 3406 84 
L 4238 -825 
L 3475 -825 
L 2784 -78 
Q 2681 -84 2626 -87 
Q 2572 -91 2522 -91 
Q 1538 -91 948 567 
Q 359 1225 359 2328 
Q 359 3434 948 4092 
Q 1538 4750 2522 4750 
Q 3503 4750 4090 4092 
Q 4678 3434 4678 2328 
Q 4678 1516 4351 937 
Q 4025 359 3406 84 
z
" transform="scale(0.015625)"/>
       <path id="DejaVuSans-6c" d="M 603 4863 
L 1178 4863 
L 1178 0 
L 603 0 
L 603 4863 
z
" transform="scale(0.015625)"/>
       <path id="DejaVuSans-69" d="M 603 3500 
L 1178 3500 
L 1178 0 
L 603 0 
L 603 3500 
z
M 603 4863 
L 1178 4863 
L 1178 4134 
L 603 4134 
L 603 4863 
z
" transform="scale(0.015625)"/>
       <path id="DejaVuSans-74" d="M 1172 4494 
L 1172 3500 
L 2356 3500 
L 2356 3053 
L 1172 3053 
L 1172 1153 
Q 1172 725 1289 603 
Q 1406 481 1766 481 
L 2356 481 
L 2356 0 
L 1766 0 
Q 1100 0 847 248 
Q 594 497 594 1153 
L 594 3053 
L 172 3053 
L 172 3500 
L 594 3500 
L 594 4494 
L 1172 4494 
z
" transform="scale(0.015625)"/>
       <path id="DejaVuSans-79" d="M 2059 -325 
Q 1816 -950 1584 -1140 
Q 1353 -1331 966 -1331 
L 506 -1331 
L 506 -850 
L 844 -850 
Q 1081 -850 1212 -737 
Q 1344 -625 1503 -206 
L 1606 56 
L 191 3500 
L 800 3500 
L 1894 763 
L 2988 3500 
L 3597 3500 
L 2059 -325 
z
" transform="scale(0.015625)"/>
       <path id="DejaVuSans-28" d="M 1984 4856 
Q 1566 4138 1362 3434 
Q 1159 2731 1159 2009 
Q 1159 1288 1364 580 
Q 1569 -128 1984 -844 
L 1484 -844 
Q 1016 -109 783 600 
Q 550 1309 550 2009 
Q 550 2706 781 3412 
Q 1013 4119 1484 4856 
L 1984 4856 
z
" transform="scale(0.015625)"/>
       <path id="DejaVuSans-50" d="M 1259 4147 
L 1259 2394 
L 2053 2394 
Q 2494 2394 2734 2622 
Q 2975 2850 2975 3272 
Q 2975 3691 2734 3919 
Q 2494 4147 2053 4147 
L 1259 4147 
z
M 628 4666 
L 2053 4666 
Q 2838 4666 3239 4311 
Q 3641 3956 3641 3272 
Q 3641 2581 3239 2228 
Q 2838 1875 2053 1875 
L 1259 1875 
L 1259 0 
L 628 0 
L 628 4666 
z
" transform="scale(0.015625)"/>
       <path id="DejaVuSans-68" d="M 3513 2113 
L 3513 0 
L 2938 0 
L 2938 2094 
Q 2938 2591 2744 2837 
Q 2550 3084 2163 3084 
Q 1697 3084 1428 2787 
Q 1159 2491 1159 1978 
L 1159 0 
L 581 0 
L 581 4863 
L 1159 4863 
L 1159 2956 
Q 1366 3272 1645 3428 
Q 1925 3584 2291 3584 
Q 2894 3584 3203 3211 
Q 3513 2838 3513 2113 
z
" transform="scale(0.015625)"/>
       <path id="DejaVuSans-72" d="M 2631 2963 
Q 2534 3019 2420 3045 
Q 2306 3072 2169 3072 
Q 1681 3072 1420 2755 
Q 1159 2438 1159 1844 
L 1159 0 
L 581 0 
L 581 3500 
L 1159 3500 
L 1159 2956 
Q 1341 3275 1631 3429 
Q 1922 3584 2338 3584 
Q 2397 3584 2469 3576 
Q 2541 3569 2628 3553 
L 2631 2963 
z
" transform="scale(0.015625)"/>
       <path id="DejaVuSans-64" d="M 2906 2969 
L 2906 4863 
L 3481 4863 
L 3481 0 
L 2906 0 
L 2906 525 
Q 2725 213 2448 61 
Q 2172 -91 1784 -91 
Q 1150 -91 751 415 
Q 353 922 353 1747 
Q 353 2572 751 3078 
Q 1150 3584 1784 3584 
Q 2172 3584 2448 3432 
Q 2725 3281 2906 2969 
z
M 947 1747 
Q 947 1113 1208 752 
Q 1469 391 1925 391 
Q 2381 391 2643 752 
Q 2906 1113 2906 1747 
Q 2906 2381 2643 2742 
Q 2381 3103 1925 3103 
Q 1469 3103 1208 2742 
Q 947 2381 947 1747 
z
" transform="scale(0.015625)"/>
       <path id="DejaVuSans-6f" d="M 1959 3097 
Q 1497 3097 1228 2736 
Q 959 2375 959 1747 
Q 959 1119 1226 758 
Q 1494 397 1959 397 
Q 2419 397 2687 759 
Q 2956 1122 2956 1747 
Q 2956 2369 2687 2733 
Q 2419 3097 1959 3097 
z
M 1959 3584 
Q 2709 3584 3137 3096 
Q 3566 2609 3566 1747 
Q 3566 888 3137 398 
Q 2709 -91 1959 -91 
Q 1206 -91 779 398 
Q 353 888 353 1747 
Q 353 2609 779 3096 
Q 1206 3584 1959 3584 
z
" transform="scale(0.015625)"/>
       <path id="DejaVuSans-29" d="M 513 4856 
L 1013 4856 
Q 1481 4119 1714 3412 
Q 1947 2706 1947 2009 
Q 1947 1309 1714 600 
Q 1481 -109 1013 -844 
L 513 -844 
Q 928 -128 1133 580 
Q 1338 1288 1338 2009 
Q 1338 2731 1133 3434 
Q 928 4138 513 4856 
z
" transform="scale(0.015625)"/>
      </defs>
      <use xlink:href="#DejaVuSans-4d"/>
      <use xlink:href="#DejaVuSans-65" x="86.279297"/>
      <use xlink:href="#DejaVuSans-61" x="147.802734"/>
      <use xlink:href="#DejaVuSans-6e" x="209.082031"/>
      <use xlink:href="#DejaVuSans-20" x="272.460938"/>
      <use xlink:href="#DejaVuSans-53" x="304.248047"/>
      <use xlink:href="#DejaVuSans-65" x="367.724609"/>
      <use xlink:href="#DejaVuSans-71" x="429.248047"/>
      <use xlink:href="#DejaVuSans-75" x="492.724609"/>
      <use xlink:href="#DejaVuSans-65" x="556.103516"/>
      <use xlink:href="#DejaVuSans-6e" x="617.626953"/>
      <use xlink:href="#DejaVuSans-63" x="681.005859"/>
      <use xlink:href="#DejaVuSans-65" x="735.986328"/>
      <use xlink:href="#DejaVuSans-20" x="797.509766"/>
      <use xlink:href="#DejaVuSans-51" x="829.296875"/>
      <use xlink:href="#DejaVuSans-75" x="908.007812"/>
      <use xlink:href="#DejaVuSans-61" x="971.386719"/>
      <use xlink:href="#DejaVuSans-6c" x="1032.666016"/>
      <use xlink:href="#DejaVuSans-69" x="1060.449219"/>
      <use xlink:href="#DejaVuSans-74" x="1088.232422"/>
      <use xlink:href="#DejaVuSans-79" x="1127.441406"/>
      <use xlink:href="#DejaVuSans-20" x="1186.621094"/>
      <use xlink:href="#DejaVuSans-28" x="1218.408203"/>
      <use xlink:href="#DejaVuSans-50" x="1257.421875"/>
      <use xlink:href="#DejaVuSans-68" x="1317.724609"/>
      <use xlink:href="#DejaVuSans-72" x="1381.103516"/>
      <use xlink:href="#DejaVuSans-65" x="1419.966797"/>
      <use xlink:href="#DejaVuSans-64" x="1481.490234"/>
      <use xlink:href="#DejaVuSans-20" x="1544.966797"/>
      <use xlink:href="#DejaVuSans-53" x="1576.753906"/>
      <use xlink:href="#DejaVuSans-63" x="1640.230469"/>
      <use xlink:href="#DejaVuSans-6f" x="1695.210938"/>
      <use xlink:href="#DejaVuSans-72" x="1756.392578"/>
      <use xlink:href="#DejaVuSans-65" x="1795.255859"/>
      <use xlink:href="#DejaVuSans-29" x="1856.779297"/>
     </g>
    </g>
   </g>
   <g id="matplotlib.axis_2">
    <g id="ytick_1">
     <g id="line2d_1">
      <path d="M 40.600625 354.7359 
L 993.140625 354.7359 
" clip-path="url(#p2ff9168d10)" style="fill: none; stroke: #dedede; stroke-linecap: square"/>
     </g>
     <g id="text_10">
      <!-- 0.0 -->
      <g transform="translate(20.878125 357.775275)scale(0.08 -0.08)">
       <defs>
        <path id="DejaVuSans-2e" d="M 684 794 
L 1344 794 
L 1344 0 
L 684 0 
L 684 794 
z
" transform="scale(0.015625)"/>
       </defs>
       <use xlink:href="#DejaVuSans-30"/>
       <use xlink:href="#DejaVuSans-2e" x="63.623047"/>
       <use xlink:href="#DejaVuSans-30" x="95.410156"/>
      </g>
     </g>
    </g>
    <g id="ytick_2">
     <g id="line2d_2">
      <path d="M 40.600625 317.254714 
L 993.140625 317.254714 
" clip-path="url(#p2ff9168d10)" style="fill: none; stroke: #dedede; stroke-linecap: square"/>
     </g>
     <g id="text_11">
      <!-- 0.2 -->
      <g transform="translate(20.878125 320.294089)scale(0.08 -0.08)">
       <use xlink:href="#DejaVuSans-30"/>
       <use xlink:href="#DejaVuSans-2e" x="63.623047"/>
       <use xlink:href="#DejaVuSans-32" x="95.410156"/>
      </g>
     </g>
    </g>
    <g id="ytick_3">
     <g id="line2d_3">
      <path d="M 40.600625 279.773527 
L 993.140625 279.773527 
" clip-path="url(#p2ff9168d10)" style="fill: none; stroke: #dedede; stroke-linecap: square"/>
     </g>
     <g id="text_12">
      <!-- 0.4 -->
      <g transform="translate(20.878125 282.812902)scale(0.08 -0.08)">
       <defs>
        <path id="DejaVuSans-34" d="M 2419 4116 
L 825 1625 
L 2419 1625 
L 2419 4116 
z
M 2253 4666 
L 3047 4666 
L 3047 1625 
L 3713 1625 
L 3713 1100 
L 3047 1100 
L 3047 0 
L 2419 0 
L 2419 1100 
L 313 1100 
L 313 1709 
L 2253 4666 
z
" transform="scale(0.015625)"/>
       </defs>
       <use xlink:href="#DejaVuSans-30"/>
       <use xlink:href="#DejaVuSans-2e" x="63.623047"/>
       <use xlink:href="#DejaVuSans-34" x="95.410156"/>
      </g>
     </g>
    </g>
    <g id="ytick_4">
     <g id="line2d_4">
      <path d="M 40.600625 242.292341 
L 993.140625 242.292341 
" clip-path="url(#p2ff9168d10)" style="fill: none; stroke: #dedede; stroke-linecap: square"/>
     </g>
     <g id="text_13">
      <!-- 0.6 -->
      <g transform="translate(20.878125 245.331716)scale(0.08 -0.08)">
       <defs>
        <path id="DejaVuSans-36" d="M 2113 2584 
Q 1688 2584 1439 2293 
Q 1191 2003 1191 1497 
Q 1191 994 1439 701 
Q 1688 409 2113 409 
Q 2538 409 2786 701 
Q 3034 994 3034 1497 
Q 3034 2003 2786 2293 
Q 2538 2584 2113 2584 
z
M 3366 4563 
L 3366 3988 
Q 3128 4100 2886 4159 
Q 2644 4219 2406 4219 
Q 1781 4219 1451 3797 
Q 1122 3375 1075 2522 
Q 1259 2794 1537 2939 
Q 1816 3084 2150 3084 
Q 2853 3084 3261 2657 
Q 3669 2231 3669 1497 
Q 3669 778 3244 343 
Q 2819 -91 2113 -91 
Q 1303 -91 875 529 
Q 447 1150 447 2328 
Q 447 3434 972 4092 
Q 1497 4750 2381 4750 
Q 2619 4750 2861 4703 
Q 3103 4656 3366 4563 
z
" transform="scale(0.015625)"/>
       </defs>
       <use xlink:href="#DejaVuSans-30"/>
       <use xlink:href="#DejaVuSans-2e" x="63.623047"/>
       <use xlink:href="#DejaVuSans-36" x="95.410156"/>
      </g>
     </g>
    </g>
    <g id="ytick_5">
     <g id="line2d_5">
      <path d="M 40.600625 204.811154 
L 993.140625 204.811154 
" clip-path="url(#p2ff9168d10)" style="fill: none; stroke: #dedede; stroke-linecap: square"/>
     </g>
     <g id="text_14">
      <!-- 0.8 -->
      <g transform="translate(20.878125 207.850529)scale(0.08 -0.08)">
       <defs>
        <path id="DejaVuSans-38" d="M 2034 2216 
Q 1584 2216 1326 1975 
Q 1069 1734 1069 1313 
Q 1069 891 1326 650 
Q 1584 409 2034 409 
Q 2484 409 2743 651 
Q 3003 894 3003 1313 
Q 3003 1734 2745 1975 
Q 2488 2216 2034 2216 
z
M 1403 2484 
Q 997 2584 770 2862 
Q 544 3141 544 3541 
Q 544 4100 942 4425 
Q 1341 4750 2034 4750 
Q 2731 4750 3128 4425 
Q 3525 4100 3525 3541 
Q 3525 3141 3298 2862 
Q 3072 2584 2669 2484 
Q 3125 2378 3379 2068 
Q 3634 1759 3634 1313 
Q 3634 634 3220 271 
Q 2806 -91 2034 -91 
Q 1263 -91 848 271 
Q 434 634 434 1313 
Q 434 1759 690 2068 
Q 947 2378 1403 2484 
z
M 1172 3481 
Q 1172 3119 1398 2916 
Q 1625 2713 2034 2713 
Q 2441 2713 2670 2916 
Q 2900 3119 2900 3481 
Q 2900 3844 2670 4047 
Q 2441 4250 2034 4250 
Q 1625 4250 1398 4047 
Q 1172 3844 1172 3481 
z
" transform="scale(0.015625)"/>
       </defs>
       <use xlink:href="#DejaVuSans-30"/>
       <use xlink:href="#DejaVuSans-2e" x="63.623047"/>
       <use xlink:href="#DejaVuSans-38" x="95.410156"/>
      </g>
     </g>
    </g>
    <g id="ytick_6">
     <g id="line2d_6">
      <path d="M 40.600625 167.329968 
L 993.140625 167.329968 
" clip-path="url(#p2ff9168d10)" style="fill: none; stroke: #dedede; stroke-linecap: square"/>
     </g>
     <g id="text_15">
      <!-- 1.0 -->
      <g transform="translate(20.878125 170.369343)scale(0.08 -0.08)">
       <use xlink:href="#DejaVuSans-31"/>
       <use xlink:href="#DejaVuSans-2e" x="63.623047"/>
       <use xlink:href="#DejaVuSans-30" x="95.410156"/>
      </g>
     </g>
    </g>
    <g id="ytick_7">
     <g id="line2d_7">
      <path d="M 40.600625 129.848781 
L 993.140625 129.848781 
" clip-path="url(#p2ff9168d10)" style="fill: none; stroke: #dedede; stroke-linecap: square"/>
     </g>
     <g id="text_16">
      <!-- 1.2 -->
      <g transform="translate(20.878125 132.888156)scale(0.08 -0.08)">
       <use xlink:href="#DejaVuSans-31"/>
       <use xlink:href="#DejaVuSans-2e" x="63.623047"/>
       <use xlink:href="#DejaVuSans-32" x="95.410156"/>
      </g>
     </g>
    </g>
    <g id="ytick_8">
     <g id="line2d_8">
      <path d="M 40.600625 92.367595 
L 993.140625 92.367595 
" clip-path="url(#p2ff9168d10)" style="fill: none; stroke: #dedede; stroke-linecap: square"/>
     </g>
     <g id="text_17">
      <!-- 1.4 -->
      <g transform="translate(20.878125 95.40697)scale(0.08 -0.08)">
       <use xlink:href="#DejaVuSans-31"/>
       <use xlink:href="#DejaVuSans-2e" x="63.623047"/>
       <use xlink:href="#DejaVuSans-34" x="95.410156"/>
      </g>
     </g>
    </g>
    <g id="ytick_9">
     <g id="line2d_9">
      <path d="M 40.600625 54.886409 
L 993.140625 54.886409 
" clip-path="url(#p2ff9168d10)" style="fill: none; stroke: #dedede; stroke-linecap: square"/>
     </g>
     <g id="text_18">
      <!-- 1.6 -->
      <g transform="translate(20.878125 57.925784)scale(0.08 -0.08)">
       <use xlink:href="#DejaVuSans-31"/>
       <use xlink:href="#DejaVuSans-2e" x="63.623047"/>
       <use xlink:href="#DejaVuSans-36" x="95.410156"/>
      </g>
     </g>
    </g>
    <g id="text_19">
     <!-- Count -->
     <g transform="translate(14.798438 209.880338)rotate(-90)scale(0.1 -0.1)">
      <defs>
       <path id="DejaVuSans-43" d="M 4122 4306 
L 4122 3641 
Q 3803 3938 3442 4084 
Q 3081 4231 2675 4231 
Q 1875 4231 1450 3742 
Q 1025 3253 1025 2328 
Q 1025 1406 1450 917 
Q 1875 428 2675 428 
Q 3081 428 3442 575 
Q 3803 722 4122 1019 
L 4122 359 
Q 3791 134 3420 21 
Q 3050 -91 2638 -91 
Q 1578 -91 968 557 
Q 359 1206 359 2328 
Q 359 3453 968 4101 
Q 1578 4750 2638 4750 
Q 3056 4750 3426 4639 
Q 3797 4528 4122 4306 
z
" transform="scale(0.015625)"/>
      </defs>
      <use xlink:href="#DejaVuSans-43"/>
      <use xlink:href="#DejaVuSans-6f" x="69.824219"/>
      <use xlink:href="#DejaVuSans-75" x="131.005859"/>
      <use xlink:href="#DejaVuSans-6e" x="194.384766"/>
      <use xlink:href="#DejaVuSans-74" x="257.763672"/>
     </g>
    </g>
    <g id="text_20">
     <!-- 1e7 -->
     <g transform="translate(40.600625 32.3279)scale(0.1 -0.1)">
      <defs>
       <path id="DejaVuSans-37" d="M 525 4666 
L 3525 4666 
L 3525 4397 
L 1831 0 
L 1172 0 
L 2766 4134 
L 525 4134 
L 525 4666 
z
" transform="scale(0.015625)"/>
      </defs>
      <use xlink:href="#DejaVuSans-31"/>
      <use xlink:href="#DejaVuSans-65" x="63.623047"/>
      <use xlink:href="#DejaVuSans-37" x="125.146484"/>
     </g>
    </g>
   </g>
   <g id="line2d_10">
    <path d="M 594.988985 354.735806 
L 620.188456 354.733707 
L 645.387927 354.717478 
L 670.587397 354.656833 
L 695.786868 354.487287 
L 720.986339 354.133465 
L 746.18581 353.493061 
L 771.385281 352.464634 
L 796.584752 350.967429 
L 821.784223 348.87566 
L 846.983694 345.905482 
L 872.183165 341.331803 
L 897.382636 333.29177 
L 922.582106 311.683398 
L 947.781577 88.237918 
L 972.981048 258.148607 
" clip-path="url(#p2ff9168d10)" style="fill: none; stroke: #5cb85c; stroke-linecap: square"/>
   </g>
   <g id="line2d_11">
    <path d="M 594.988985 354.73322 
L 620.188456 354.702954 
L 645.387927 354.58798 
L 670.587397 354.301568 
L 695.786868 353.770909 
L 720.986339 352.913096 
L 746.18581 351.746569 
L 771.385281 350.259897 
L 796.584752 348.460013 
L 821.784223 346.287472 
L 846.983694 343.466563 
L 872.183165 339.52714 
L 897.382636 332.819413 
L 922.582106 316.815134 
L 947.781577 124.647517 
L 972.981048 232.824893 
" clip-path="url(#p2ff9168d10)" style="fill: none; stroke: #5cb85c; stroke-linecap: square"/>
   </g>
   <g id="line2d_12">
    <path d="M 594.988985 354.735825 
L 620.188456 354.734063 
L 645.387927 354.719502 
L 670.587397 354.662343 
L 695.786868 354.504566 
L 720.986339 354.156235 
L 746.18581 353.532004 
L 771.385281 352.52183 
L 796.584752 351.034876 
L 821.784223 348.940203 
L 846.983694 345.948492 
L 872.183165 341.406428 
L 897.382636 333.255526 
L 922.582106 311.589863 
L 947.781577 82.942501 
L 972.981048 247.280225 
" clip-path="url(#p2ff9168d10)" style="fill: none; stroke: #5cb85c; stroke-linecap: square"/>
   </g>
   <g id="line2d_13">
    <path d="M 569.789514 354.735881 
L 594.988985 354.733164 
L 620.188456 354.699262 
L 645.387927 354.574543 
L 670.587397 354.252336 
L 695.786868 353.661464 
L 720.986339 352.756481 
L 746.18581 351.506052 
L 771.385281 349.946573 
L 796.584752 348.0745 
L 821.784223 345.807169 
L 846.983694 342.940571 
L 872.183165 338.892734 
L 897.382636 332.07618 
L 922.582106 315.700931 
L 947.781577 118.715688 
L 972.981048 227.626852 
" clip-path="url(#p2ff9168d10)" style="fill: none; stroke: #5cb85c; stroke-linecap: square"/>
   </g>
   <g id="line2d_14">
    <path d="M 594.988985 354.735806 
L 620.188456 354.734551 
L 645.387927 354.721395 
L 670.587397 354.676998 
L 695.786868 354.549975 
L 720.986339 354.271564 
L 746.18581 353.770441 
L 771.385281 352.976664 
L 796.584752 351.785756 
L 821.784223 350.101201 
L 846.983694 347.689849 
L 872.183165 343.997128 
L 897.382636 337.318824 
L 922.582106 319.572644 
L 947.781577 133.572013 
L 972.981048 270.832652 
" clip-path="url(#p2ff9168d10)" style="fill: none; stroke: #5cb85c; stroke-linecap: square"/>
   </g>
   <g id="line2d_15">
    <path d="M 594.988985 354.733482 
L 620.188456 354.706252 
L 645.387927 354.601211 
L 670.587397 354.339874 
L 695.786868 353.848926 
L 720.986339 353.121623 
L 746.18581 352.102303 
L 771.385281 350.824813 
L 796.584752 349.319887 
L 821.784223 347.490131 
L 846.983694 345.119802 
L 872.183165 341.880659 
L 897.382636 336.333593 
L 922.582106 323.079365 
L 947.781577 164.022216 
L 972.981048 253.783323 
" clip-path="url(#p2ff9168d10)" style="fill: none; stroke: #5cb85c; stroke-linecap: square"/>
   </g>
   <g id="line2d_16">
    <path d="M 594.988985 354.735825 
L 620.188456 354.734101 
L 645.387927 354.722988 
L 670.587397 354.677055 
L 695.786868 354.545589 
L 720.986339 354.261538 
L 746.18581 353.755486 
L 771.385281 352.950784 
L 796.584752 351.776629 
L 821.784223 350.091006 
L 846.983694 347.715618 
L 872.183165 344.057229 
L 897.382636 337.562807 
L 922.582106 320.203021 
L 947.781577 136.998618 
L 972.981048 273.493873 
" clip-path="url(#p2ff9168d10)" style="fill: none; stroke: #5cb85c; stroke-linecap: square"/>
   </g>
   <g id="line2d_17">
    <path d="M 594.988985 354.734045 
L 620.188456 354.712062 
L 645.387927 354.625574 
L 670.587397 354.41017 
L 695.786868 353.994428 
L 720.986339 353.337046 
L 746.18581 352.446886 
L 771.385281 351.296401 
L 796.584752 349.903057 
L 821.784223 348.167078 
L 846.983694 345.953177 
L 872.183165 342.813603 
L 897.382636 337.498546 
L 922.582106 324.863095 
L 947.781577 167.267112 
L 972.981048 250.259885 
" clip-path="url(#p2ff9168d10)" style="fill: none; stroke: #5cb85c; stroke-linecap: square"/>
   </g>
   <g id="line2d_18">
    <path d="M 594.988985 354.735825 
L 620.188456 354.734457 
L 645.387927 354.724262 
L 670.587397 354.6868 
L 695.786868 354.582133 
L 720.986339 354.349506 
L 746.18581 353.902731 
L 771.385281 353.158448 
L 796.584752 352.031426 
L 821.784223 350.35643 
L 846.983694 347.876918 
L 872.183165 343.988357 
L 897.382636 336.947835 
L 922.582106 318.712938 
L 947.781577 122.18744 
L 972.981048 282.386715 
" clip-path="url(#p2ff9168d10)" style="fill: none; stroke: #5cb85c; stroke-linecap: square"/>
   </g>
   <g id="line2d_19">
    <path d="M 594.988985 354.733051 
L 620.188456 354.705259 
L 645.387927 354.603704 
L 670.587397 354.355147 
L 695.786868 353.893492 
L 720.986339 353.188939 
L 746.18581 352.216602 
L 771.385281 351.008565 
L 796.584752 349.519475 
L 821.784223 347.69043 
L 846.983694 345.398137 
L 872.183165 342.030602 
L 897.382636 336.267027 
L 922.582106 321.791099 
L 947.781577 152.196021 
L 972.981048 265.764671 
" clip-path="url(#p2ff9168d10)" style="fill: none; stroke: #5cb85c; stroke-linecap: square"/>
   </g>
   <g id="line2d_20">
    <path d="M 594.988985 354.735713 
L 620.188456 354.732489 
L 645.387927 354.709251 
L 670.587397 354.615848 
L 695.786868 354.364461 
L 720.986339 353.819935 
L 746.18581 352.864314 
L 771.385281 351.364898 
L 796.584752 349.199123 
L 821.784223 346.218019 
L 846.983694 342.10296 
L 872.183165 336.05031 
L 897.382636 325.710357 
L 922.582106 301.137803 
L 947.781577 138.817748 
L 972.981048 319.429822 
" clip-path="url(#p2ff9168d10)" style="fill: none; stroke: #5cb85c; stroke-linecap: square"/>
   </g>
   <g id="line2d_21">
    <path d="M 594.988985 354.733595 
L 620.188456 354.706009 
L 645.387927 354.604172 
L 670.587397 354.331928 
L 695.786868 353.781685 
L 720.986339 352.896661 
L 746.18581 351.602848 
L 771.385281 349.874403 
L 796.584752 347.726412 
L 821.784223 345.039892 
L 846.983694 341.591285 
L 872.183165 336.720905 
L 897.382636 328.585913 
L 922.582106 309.789529 
L 947.781577 156.380327 
L 972.981048 297.507488 
" clip-path="url(#p2ff9168d10)" style="fill: none; stroke: #5cb85c; stroke-linecap: square"/>
   </g>
   <g id="line2d_22">
    <path d="M 594.988985 354.735769 
L 620.188456 354.732733 
L 645.387927 354.710563 
L 670.587397 354.625593 
L 695.786868 354.386069 
L 720.986339 353.886127 
L 746.18581 352.974509 
L 771.385281 351.53793 
L 796.584752 349.476071 
L 821.784223 346.539027 
L 846.983694 342.515871 
L 872.183165 336.562154 
L 897.382636 326.324055 
L 922.582106 302.198052 
L 947.781577 134.908929 
L 972.981048 315.964442 
" clip-path="url(#p2ff9168d10)" style="fill: none; stroke: #5cb85c; stroke-linecap: square"/>
   </g>
   <g id="line2d_23">
    <path d="M 594.988985 354.733014 
L 620.188456 354.701623 
L 645.387927 354.580597 
L 670.587397 354.268941 
L 695.786868 353.650145 
L 720.986339 352.669637 
L 746.18581 351.267185 
L 771.385281 349.471236 
L 796.584752 347.244011 
L 821.784223 344.49023 
L 846.983694 341.008078 
L 872.183165 336.197349 
L 897.382636 328.176225 
L 922.582106 309.608233 
L 947.781577 156.491852 
L 972.981048 297.519538 
" clip-path="url(#p2ff9168d10)" style="fill: none; stroke: #5cb85c; stroke-linecap: square"/>
   </g>
   <g id="line2d_24">
    <path d="M 594.988985 354.735863 
L 620.188456 354.73397 
L 645.387927 354.723531 
L 670.587397 354.684232 
L 695.786868 354.56641 
L 720.986339 354.313637 
L 746.18581 353.830692 
L 771.385281 353.026552 
L 796.584752 351.785437 
L 821.784223 349.948353 
L 846.983694 347.206698 
L 872.183165 342.885192 
L 897.382636 335.051437 
L 922.582106 314.473197 
L 947.781577 107.814979 
L 972.981048 288.697685 
" clip-path="url(#p2ff9168d10)" style="fill: none; stroke: #5cb85c; stroke-linecap: square"/>
   </g>
   <g id="line2d_25">
    <path d="M 594.988985 354.732883 
L 620.188456 354.700387 
L 645.387927 354.581403 
L 670.587397 354.297126 
L 695.786868 353.782885 
L 720.986339 352.97792 
L 746.18581 351.885325 
L 771.385281 350.530455 
L 796.584752 348.882932 
L 821.784223 346.865807 
L 846.983694 344.265812 
L 872.183165 340.52206 
L 897.382636 334.031649 
L 922.582106 317.568675 
L 947.781577 138.738719 
L 972.981048 274.113831 
" clip-path="url(#p2ff9168d10)" style="fill: none; stroke: #5cb85c; stroke-linecap: square"/>
   </g>
   <g id="line2d_26">
    <path d="M 594.988985 354.73575 
L 620.188456 354.734532 
L 645.387927 354.724487 
L 670.587397 354.68457 
L 695.786868 354.573813 
L 720.986339 354.319784 
L 746.18581 353.826119 
L 771.385281 352.986203 
L 796.584752 351.674961 
L 821.784223 349.688327 
L 846.983694 346.707524 
L 872.183165 341.912256 
L 897.382636 332.950054 
L 922.582106 308.981885 
L 947.781577 84.566486 
L 972.981048 298.848809 
" clip-path="url(#p2ff9168d10)" style="fill: none; stroke: #5cb85c; stroke-linecap: square"/>
   </g>
   <g id="line2d_27">
    <path d="M 594.988985 354.732208 
L 620.188456 354.698662 
L 645.387927 354.569915 
L 670.587397 354.262306 
L 695.786868 353.683053 
L 720.986339 352.810791 
L 746.18581 351.60757 
L 771.385281 350.113308 
L 796.584752 348.272476 
L 821.784223 346.047592 
L 846.983694 343.194955 
L 872.183165 339.058475 
L 897.382636 331.848819 
L 922.582106 313.661598 
L 947.781577 126.004018 
L 972.981048 275.34981 
" clip-path="url(#p2ff9168d10)" style="fill: none; stroke: #5cb85c; stroke-linecap: square"/>
   </g>
   <g id="line2d_28">
    <path d="M 594.988985 354.735788 
L 620.188456 354.73247 
L 645.387927 354.709101 
L 670.587397 354.61581 
L 695.786868 354.340773 
L 720.986339 353.758447 
L 746.18581 352.668925 
L 771.385281 350.955398 
L 796.584752 348.475455 
L 821.784223 345.057789 
L 846.983694 340.232086 
L 872.183165 333.255451 
L 897.382636 321.235159 
L 922.582106 292.954086 
L 947.781577 87.632728 
L 972.981048 302.976912 
" clip-path="url(#p2ff9168d10)" style="fill: none; stroke: #5cb85c; stroke-linecap: square"/>
   </g>
   <g id="line2d_29">
    <path d="M 594.988985 354.733201 
L 620.188456 354.700649 
L 645.387927 354.567609 
L 670.587397 354.21806 
L 695.786868 353.530205 
L 720.986339 352.396249 
L 746.18581 350.797733 
L 771.385281 348.679353 
L 796.584752 346.108368 
L 821.784223 342.880263 
L 846.983694 338.82375 
L 872.183165 333.141677 
L 897.382636 323.719319 
L 922.582106 302.066231 
L 947.781577 114.207095 
L 972.981048 277.766616 
" clip-path="url(#p2ff9168d10)" style="fill: none; stroke: #5cb85c; stroke-linecap: square"/>
   </g>
   <g id="line2d_30">
    <path d="M 594.988985 354.735844 
L 620.188456 354.733183 
L 645.387927 354.717178 
L 670.587397 354.65436 
L 695.786868 354.473494 
L 720.986339 354.088656 
L 746.18581 353.363976 
L 771.385281 352.189428 
L 796.584752 350.452175 
L 821.784223 347.93998 
L 846.983694 344.331422 
L 872.183165 338.738124 
L 897.382636 328.820771 
L 922.582106 302.454592 
L 947.781577 64.403275 
L 972.981048 254.641773 
" clip-path="url(#p2ff9168d10)" style="fill: none; stroke: #5cb85c; stroke-linecap: square"/>
   </g>
   <g id="line2d_31">
    <path d="M 594.988985 354.732002 
L 620.188456 354.690454 
L 645.387927 354.533483 
L 670.587397 354.139799 
L 695.786868 353.391937 
L 720.986339 352.231576 
L 746.18581 350.664225 
L 771.385281 348.663967 
L 796.584752 346.261404 
L 821.784223 343.279757 
L 846.983694 339.469794 
L 872.183165 333.840045 
L 897.382636 323.78433 
L 922.582106 299.35666 
L 947.781577 102.101347 
L 972.981048 253.597454 
" clip-path="url(#p2ff9168d10)" style="fill: none; stroke: #5cb85c; stroke-linecap: square"/>
   </g>
   <g id="line2d_32">
    <path d="M 594.988985 354.735806 
L 620.188456 354.733089 
L 645.387927 354.717497 
L 670.587397 354.644184 
L 695.786868 354.452692 
L 720.986339 354.031947 
L 746.18581 353.264539 
L 771.385281 352.01471 
L 796.584752 350.177813 
L 821.784223 347.529299 
L 846.983694 343.702526 
L 872.183165 337.881604 
L 897.382636 327.430106 
L 922.582106 299.754691 
L 947.781577 50.537804 
L 972.981048 255.577116 
" clip-path="url(#p2ff9168d10)" style="fill: none; stroke: #5cb85c; stroke-linecap: square"/>
   </g>
   <g id="line2d_33">
    <path d="M 594.988985 354.732396 
L 620.188456 354.690042 
L 645.387927 354.536912 
L 670.587397 354.136482 
L 695.786868 353.393174 
L 720.986339 352.21634 
L 746.18581 350.586845 
L 771.385281 348.558982 
L 796.584752 346.044219 
L 821.784223 342.999828 
L 846.983694 338.928566 
L 872.183165 333.117145 
L 897.382636 322.451161 
L 922.582106 296.987512 
L 947.781577 91.168216 
L 972.981048 250.637602 
" clip-path="url(#p2ff9168d10)" style="fill: none; stroke: #5cb85c; stroke-linecap: square"/>
   </g>
   <g id="line2d_34">
    <path d="M 594.988985 354.735806 
L 620.188456 354.734007 
L 645.387927 354.72117 
L 670.587397 354.67533 
L 695.786868 354.536762 
L 720.986339 354.240942 
L 746.18581 353.67923 
L 771.385281 352.777602 
L 796.584752 351.413212 
L 821.784223 349.434392 
L 846.983694 346.544274 
L 872.183165 342.132664 
L 897.382636 334.199096 
L 922.582106 313.677528 
L 947.781577 138.510403 
L 972.981048 290.449837 
" clip-path="url(#p2ff9168d10)" style="fill: none; stroke: #5cb85c; stroke-linecap: square"/>
   </g>
   <g id="line2d_35">
    <path d="M 594.988985 354.732339 
L 620.188456 354.693153 
L 645.387927 354.545889 
L 670.587397 354.194034 
L 695.786868 353.553106 
L 720.986339 352.561991 
L 746.18581 351.255153 
L 771.385281 349.641476 
L 796.584752 347.743728 
L 821.784223 345.424055 
L 846.983694 342.449754 
L 872.183165 338.164118 
L 897.382636 330.477383 
L 922.582106 312.11966 
L 947.781577 168.915984 
L 972.981048 289.99043 
" clip-path="url(#p2ff9168d10)" style="fill: none; stroke: #5cb85c; stroke-linecap: square"/>
   </g>
   <g id="line2d_36">
    <path d="M 594.988985 354.735825 
L 620.188456 354.734138 
L 645.387927 354.723587 
L 670.587397 354.680334 
L 695.786868 354.561275 
L 720.986339 354.297801 
L 746.18581 353.828499 
L 771.385281 353.05485 
L 796.584752 351.930452 
L 821.784223 350.273858 
L 846.983694 347.943428 
L 872.183165 344.339875 
L 897.382636 337.922871 
L 922.582106 320.918406 
L 947.781577 150.913358 
L 972.981048 286.85927 
" clip-path="url(#p2ff9168d10)" style="fill: none; stroke: #5cb85c; stroke-linecap: square"/>
   </g>
   <g id="line2d_37">
    <path d="M 569.789514 354.735881 
L 594.988985 354.733426 
L 620.188456 354.706065 
L 645.387927 354.603273 
L 670.587397 354.356909 
L 695.786868 353.896902 
L 720.986339 353.193024 
L 746.18581 352.240028 
L 771.385281 351.079854 
L 796.584752 349.654257 
L 821.784223 347.944178 
L 846.983694 345.786723 
L 872.183165 342.7199 
L 897.382636 337.562583 
L 922.582106 325.153405 
L 947.781577 178.740309 
L 972.981048 269.347011 
" clip-path="url(#p2ff9168d10)" style="fill: none; stroke: #5cb85c; stroke-linecap: square"/>
   </g>
   <g id="line2d_38">
    <path d="M 594.988985 354.735806 
L 620.188456 354.733782 
L 645.387927 354.720289 
L 670.587397 354.665998 
L 695.786868 354.516298 
L 720.986339 354.197501 
L 746.18581 353.621603 
L 771.385281 352.719618 
L 796.584752 351.362181 
L 821.784223 349.474197 
L 846.983694 346.708161 
L 872.183165 342.571568 
L 897.382636 335.182977 
L 922.582106 315.499114 
L 947.781577 108.715858 
L 972.981048 256.16499 
" clip-path="url(#p2ff9168d10)" style="fill: none; stroke: #5cb85c; stroke-linecap: square"/>
   </g>
   <g id="line2d_39">
    <path d="M 594.988985 354.73352 
L 620.188456 354.704884 
L 645.387927 354.593696 
L 670.587397 354.321545 
L 695.786868 353.806404 
L 720.986339 353.013396 
L 746.18581 351.924286 
L 771.385281 350.547715 
L 796.584752 348.87671 
L 821.784223 346.839832 
L 846.983694 344.288319 
L 872.183165 340.670523 
L 897.382636 334.527768 
L 922.582106 320.055908 
L 947.781577 143.338654 
L 972.981048 233.346781 
" clip-path="url(#p2ff9168d10)" style="fill: none; stroke: #5cb85c; stroke-linecap: square"/>
   </g>
   <g id="line2d_40">
    <path d="M 594.988985 354.735863 
L 620.188456 354.733857 
L 645.387927 354.721432 
L 670.587397 354.672557 
L 695.786868 354.536706 
L 720.986339 354.249694 
L 746.18581 353.717293 
L 771.385281 352.893287 
L 796.584752 351.63317 
L 821.784223 349.840239 
L 846.983694 347.276469 
L 872.183165 343.348685 
L 897.382636 336.258575 
L 922.582106 317.656756 
L 947.781577 120.766397 
L 972.981048 262.303996 
" clip-path="url(#p2ff9168d10)" style="fill: none; stroke: #5cb85c; stroke-linecap: square"/>
   </g>
   <g id="line2d_41">
    <path d="M 594.988985 354.732958 
L 620.188456 354.699225 
L 645.387927 354.576249 
L 670.587397 354.278405 
L 695.786868 353.732322 
L 720.986339 352.902358 
L 746.18581 351.780002 
L 771.385281 350.386396 
L 796.584752 348.751035 
L 821.784223 346.74032 
L 846.983694 344.256348 
L 872.183165 340.751351 
L 897.382636 334.867685 
L 922.582106 320.751764 
L 947.781577 151.4279 
L 972.981048 248.710657 
" clip-path="url(#p2ff9168d10)" style="fill: none; stroke: #5cb85c; stroke-linecap: square"/>
   </g>
   <g id="line2d_42">
    <path d="M 594.988985 354.735844 
L 620.188456 354.733464 
L 645.387927 354.716953 
L 670.587397 354.652073 
L 695.786868 354.470514 
L 720.986339 354.092067 
L 746.18581 353.401232 
L 771.385281 352.320631 
L 796.584752 350.73066 
L 821.784223 348.483064 
L 846.983694 345.316334 
L 872.183165 340.486434 
L 897.382636 331.879591 
L 922.582106 308.991124 
L 947.781577 75.422482 
L 972.981048 258.22252 
" clip-path="url(#p2ff9168d10)" style="fill: none; stroke: #5cb85c; stroke-linecap: square"/>
   </g>
   <g id="line2d_43">
    <path d="M 594.988985 354.733314 
L 620.188456 354.704922 
L 645.387927 354.591223 
L 670.587397 354.310039 
L 695.786868 353.772634 
L 720.986339 352.922504 
L 746.18581 351.7607 
L 771.385281 350.260852 
L 796.584752 348.440897 
L 821.784223 346.202296 
L 846.983694 343.293062 
L 872.183165 339.2343 
L 897.382636 332.444939 
L 922.582106 316.155147 
L 947.781577 117.580814 
L 972.981048 222.247346 
" clip-path="url(#p2ff9168d10)" style="fill: none; stroke: #5cb85c; stroke-linecap: square"/>
   </g>
   <g id="line2d_44">
    <path d="M 594.988985 354.735844 
L 620.188456 354.733839 
L 645.387927 354.719783 
L 670.587397 354.666335 
L 695.786868 354.509307 
L 720.986339 354.184664 
L 746.18581 353.597297 
L 771.385281 352.651796 
L 796.584752 351.261994 
L 821.784223 349.27283 
L 846.983694 346.454825 
L 872.183165 342.136468 
L 897.382636 334.420778 
L 922.582106 313.795856 
L 947.781577 99.107256 
L 972.981048 262.283644 
" clip-path="url(#p2ff9168d10)" style="fill: none; stroke: #5cb85c; stroke-linecap: square"/>
   </g>
   <g id="line2d_45">
    <path d="M 594.988985 354.733595 
L 620.188456 354.704416 
L 645.387927 354.593828 
L 670.587397 354.321752 
L 695.786868 353.804099 
L 720.986339 353.000128 
L 746.18581 351.887086 
L 771.385281 350.487351 
L 796.584752 348.785687 
L 821.784223 346.705293 
L 846.983694 344.06064 
L 872.183165 340.307217 
L 897.382636 333.92777 
L 922.582106 318.67362 
L 947.781577 133.887267 
L 972.981048 238.652768 
" clip-path="url(#p2ff9168d10)" style="fill: none; stroke: #5cb85c; stroke-linecap: square"/>
   </g>
   <g id="line2d_46">
    <path d="M 40.600625 354.7359 
L 993.140625 354.7359 
" clip-path="url(#p2ff9168d10)" style="fill: none; stroke: #dedede; stroke-width: 2; stroke-linecap: square"/>
   </g>
   <g id="text_21">
    <!-- FastQC: Per Sequence Quality Scores -->
    <g transform="translate(368.678125 19.3575)scale(0.16 -0.16)">
     <defs>
      <path id="DejaVuSans-46" d="M 628 4666 
L 3309 4666 
L 3309 4134 
L 1259 4134 
L 1259 2759 
L 3109 2759 
L 3109 2228 
L 1259 2228 
L 1259 0 
L 628 0 
L 628 4666 
z
" transform="scale(0.015625)"/>
      <path id="DejaVuSans-73" d="M 2834 3397 
L 2834 2853 
Q 2591 2978 2328 3040 
Q 2066 3103 1784 3103 
Q 1356 3103 1142 2972 
Q 928 2841 928 2578 
Q 928 2378 1081 2264 
Q 1234 2150 1697 2047 
L 1894 2003 
Q 2506 1872 2764 1633 
Q 3022 1394 3022 966 
Q 3022 478 2636 193 
Q 2250 -91 1575 -91 
Q 1294 -91 989 -36 
Q 684 19 347 128 
L 347 722 
Q 666 556 975 473 
Q 1284 391 1588 391 
Q 1994 391 2212 530 
Q 2431 669 2431 922 
Q 2431 1156 2273 1281 
Q 2116 1406 1581 1522 
L 1381 1569 
Q 847 1681 609 1914 
Q 372 2147 372 2553 
Q 372 3047 722 3315 
Q 1072 3584 1716 3584 
Q 2034 3584 2315 3537 
Q 2597 3491 2834 3397 
z
" transform="scale(0.015625)"/>
      <path id="DejaVuSans-3a" d="M 750 794 
L 1409 794 
L 1409 0 
L 750 0 
L 750 794 
z
M 750 3309 
L 1409 3309 
L 1409 2516 
L 750 2516 
L 750 3309 
z
" transform="scale(0.015625)"/>
     </defs>
     <use xlink:href="#DejaVuSans-46"/>
     <use xlink:href="#DejaVuSans-61" x="48.394531"/>
     <use xlink:href="#DejaVuSans-73" x="109.673828"/>
     <use xlink:href="#DejaVuSans-74" x="161.773438"/>
     <use xlink:href="#DejaVuSans-51" x="200.982422"/>
     <use xlink:href="#DejaVuSans-43" x="279.693359"/>
     <use xlink:href="#DejaVuSans-3a" x="349.517578"/>
     <use xlink:href="#DejaVuSans-20" x="383.208984"/>
     <use xlink:href="#DejaVuSans-50" x="414.996094"/>
     <use xlink:href="#DejaVuSans-65" x="471.673828"/>
     <use xlink:href="#DejaVuSans-72" x="533.197266"/>
     <use xlink:href="#DejaVuSans-20" x="574.310547"/>
     <use xlink:href="#DejaVuSans-53" x="606.097656"/>
     <use xlink:href="#DejaVuSans-65" x="669.574219"/>
     <use xlink:href="#DejaVuSans-71" x="731.097656"/>
     <use xlink:href="#DejaVuSans-75" x="794.574219"/>
     <use xlink:href="#DejaVuSans-65" x="857.953125"/>
     <use xlink:href="#DejaVuSans-6e" x="919.476562"/>
     <use xlink:href="#DejaVuSans-63" x="982.855469"/>
     <use xlink:href="#DejaVuSans-65" x="1037.835938"/>
     <use xlink:href="#DejaVuSans-20" x="1099.359375"/>
     <use xlink:href="#DejaVuSans-51" x="1131.146484"/>
     <use xlink:href="#DejaVuSans-75" x="1209.857422"/>
     <use xlink:href="#DejaVuSans-61" x="1273.236328"/>
     <use xlink:href="#DejaVuSans-6c" x="1334.515625"/>
     <use xlink:href="#DejaVuSans-69" x="1362.298828"/>
     <use xlink:href="#DejaVuSans-74" x="1390.082031"/>
     <use xlink:href="#DejaVuSans-79" x="1429.291016"/>
     <use xlink:href="#DejaVuSans-20" x="1488.470703"/>
     <use xlink:href="#DejaVuSans-53" x="1520.257812"/>
     <use xlink:href="#DejaVuSans-63" x="1583.734375"/>
     <use xlink:href="#DejaVuSans-6f" x="1638.714844"/>
     <use xlink:href="#DejaVuSans-72" x="1699.896484"/>
     <use xlink:href="#DejaVuSans-65" x="1738.759766"/>
     <use xlink:href="#DejaVuSans-73" x="1800.283203"/>
    </g>
   </g>
  </g>
 </g>
 <defs>
  <clipPath id="p2ff9168d10">
   <rect x="40.600625" y="35.3279" width="952.54" height="319.408"/>
  </clipPath>
 </defs>
</svg>
