<?xml version="1.0" encoding="utf-8" standalone="no"?>
<!DOCTYPE svg PUBLIC "-//W3C//DTD SVG 1.1//EN"
  "http://www.w3.org/Graphics/SVG/1.1/DTD/svg11.dtd">
<svg xmlns:xlink="http://www.w3.org/1999/xlink" width="862.2225pt" height="961.316522pt" viewBox="0 0 862.2225 961.316522" xmlns="http://www.w3.org/2000/svg" version="1.1">
 <metadata>
  <rdf:RDF xmlns:dc="http://purl.org/dc/elements/1.1/" xmlns:cc="http://creativecommons.org/ns#" xmlns:rdf="http://www.w3.org/1999/02/22-rdf-syntax-ns#">
   <cc:Work>
    <dc:type rdf:resource="http://purl.org/dc/dcmitype/StillImage"/>
    <dc:date>2023-04-29T19:42:35.580439</dc:date>
    <dc:format>image/svg+xml</dc:format>
    <dc:creator>
     <cc:Agent>
      <dc:title>Matplotlib v3.5.1, https://matplotlib.org/</dc:title>
     </cc:Agent>
    </dc:creator>
   </cc:Work>
  </rdf:RDF>
 </metadata>
 <defs>
  <style type="text/css">*{stroke-linejoin: round; stroke-linecap: butt}</style>
 </defs>
 <g id="figure_1">
  <g id="axes_1">
   <g id="patch_1">
    <path d="M 73.8225 874.956522 
L 855.0225 874.956522 
L 855.0225 7.2 
L 73.8225 7.2 
z
" style="fill: #ffffff"/>
   </g>
   <g id="matplotlib.axis_1">
    <g id="xtick_1">
     <g id="line2d_1">
      <path d="M 73.8225 874.956522 
L 73.8225 7.2 
" clip-path="url(#p34f112db01)" style="fill: none; stroke: #dedede; stroke-linecap: square"/>
     </g>
     <g id="text_1">
      <!-- 0.00 -->
      <g transform="translate(64.91625 888.035272)scale(0.08 -0.08)">
       <defs>
        <path id="DejaVuSans-30" d="M 2034 4250 
Q 1547 4250 1301 3770 
Q 1056 3291 1056 2328 
Q 1056 1369 1301 889 
Q 1547 409 2034 409 
Q 2525 409 2770 889 
Q 3016 1369 3016 2328 
Q 3016 3291 2770 3770 
Q 2525 4250 2034 4250 
z
M 2034 4750 
Q 2819 4750 3233 4129 
Q 3647 3509 3647 2328 
Q 3647 1150 3233 529 
Q 2819 -91 2034 -91 
Q 1250 -91 836 529 
Q 422 1150 422 2328 
Q 422 3509 836 4129 
Q 1250 4750 2034 4750 
z
" transform="scale(0.015625)"/>
        <path id="DejaVuSans-2e" d="M 684 794 
L 1344 794 
L 1344 0 
L 684 0 
L 684 794 
z
" transform="scale(0.015625)"/>
       </defs>
       <use xlink:href="#DejaVuSans-30"/>
       <use xlink:href="#DejaVuSans-2e" x="63.623047"/>
       <use xlink:href="#DejaVuSans-30" x="95.410156"/>
       <use xlink:href="#DejaVuSans-30" x="159.033203"/>
      </g>
     </g>
    </g>
    <g id="xtick_2">
     <g id="line2d_2">
      <path d="M 179.496464 874.956522 
L 179.496464 7.2 
" clip-path="url(#p34f112db01)" style="fill: none; stroke: #dedede; stroke-linecap: square"/>
     </g>
     <g id="text_2">
      <!-- 0.25 -->
      <g transform="translate(170.590214 888.035272)scale(0.08 -0.08)">
       <defs>
        <path id="DejaVuSans-32" d="M 1228 531 
L 3431 531 
L 3431 0 
L 469 0 
L 469 531 
Q 828 903 1448 1529 
Q 2069 2156 2228 2338 
Q 2531 2678 2651 2914 
Q 2772 3150 2772 3378 
Q 2772 3750 2511 3984 
Q 2250 4219 1831 4219 
Q 1534 4219 1204 4116 
Q 875 4013 500 3803 
L 500 4441 
Q 881 4594 1212 4672 
Q 1544 4750 1819 4750 
Q 2544 4750 2975 4387 
Q 3406 4025 3406 3419 
Q 3406 3131 3298 2873 
Q 3191 2616 2906 2266 
Q 2828 2175 2409 1742 
Q 1991 1309 1228 531 
z
" transform="scale(0.015625)"/>
        <path id="DejaVuSans-35" d="M 691 4666 
L 3169 4666 
L 3169 4134 
L 1269 4134 
L 1269 2991 
Q 1406 3038 1543 3061 
Q 1681 3084 1819 3084 
Q 2600 3084 3056 2656 
Q 3513 2228 3513 1497 
Q 3513 744 3044 326 
Q 2575 -91 1722 -91 
Q 1428 -91 1123 -41 
Q 819 9 494 109 
L 494 744 
Q 775 591 1075 516 
Q 1375 441 1709 441 
Q 2250 441 2565 725 
Q 2881 1009 2881 1497 
Q 2881 1984 2565 2268 
Q 2250 2553 1709 2553 
Q 1456 2553 1204 2497 
Q 953 2441 691 2322 
L 691 4666 
z
" transform="scale(0.015625)"/>
       </defs>
       <use xlink:href="#DejaVuSans-30"/>
       <use xlink:href="#DejaVuSans-2e" x="63.623047"/>
       <use xlink:href="#DejaVuSans-32" x="95.410156"/>
       <use xlink:href="#DejaVuSans-35" x="159.033203"/>
      </g>
     </g>
    </g>
    <g id="xtick_3">
     <g id="line2d_3">
      <path d="M 285.170429 874.956522 
L 285.170429 7.2 
" clip-path="url(#p34f112db01)" style="fill: none; stroke: #dedede; stroke-linecap: square"/>
     </g>
     <g id="text_3">
      <!-- 0.50 -->
      <g transform="translate(276.264179 888.035272)scale(0.08 -0.08)">
       <use xlink:href="#DejaVuSans-30"/>
       <use xlink:href="#DejaVuSans-2e" x="63.623047"/>
       <use xlink:href="#DejaVuSans-35" x="95.410156"/>
       <use xlink:href="#DejaVuSans-30" x="159.033203"/>
      </g>
     </g>
    </g>
    <g id="xtick_4">
     <g id="line2d_4">
      <path d="M 390.844393 874.956522 
L 390.844393 7.2 
" clip-path="url(#p34f112db01)" style="fill: none; stroke: #dedede; stroke-linecap: square"/>
     </g>
     <g id="text_4">
      <!-- 0.75 -->
      <g transform="translate(381.938143 888.035272)scale(0.08 -0.08)">
       <defs>
        <path id="DejaVuSans-37" d="M 525 4666 
L 3525 4666 
L 3525 4397 
L 1831 0 
L 1172 0 
L 2766 4134 
L 525 4134 
L 525 4666 
z
" transform="scale(0.015625)"/>
       </defs>
       <use xlink:href="#DejaVuSans-30"/>
       <use xlink:href="#DejaVuSans-2e" x="63.623047"/>
       <use xlink:href="#DejaVuSans-37" x="95.410156"/>
       <use xlink:href="#DejaVuSans-35" x="159.033203"/>
      </g>
     </g>
    </g>
    <g id="xtick_5">
     <g id="line2d_5">
      <path d="M 496.518357 874.956522 
L 496.518357 7.2 
" clip-path="url(#p34f112db01)" style="fill: none; stroke: #dedede; stroke-linecap: square"/>
     </g>
     <g id="text_5">
      <!-- 1.00 -->
      <g transform="translate(487.612107 888.035272)scale(0.08 -0.08)">
       <defs>
        <path id="DejaVuSans-31" d="M 794 531 
L 1825 531 
L 1825 4091 
L 703 3866 
L 703 4441 
L 1819 4666 
L 2450 4666 
L 2450 531 
L 3481 531 
L 3481 0 
L 794 0 
L 794 531 
z
" transform="scale(0.015625)"/>
       </defs>
       <use xlink:href="#DejaVuSans-31"/>
       <use xlink:href="#DejaVuSans-2e" x="63.623047"/>
       <use xlink:href="#DejaVuSans-30" x="95.410156"/>
       <use xlink:href="#DejaVuSans-30" x="159.033203"/>
      </g>
     </g>
    </g>
    <g id="xtick_6">
     <g id="line2d_6">
      <path d="M 602.192321 874.956522 
L 602.192321 7.2 
" clip-path="url(#p34f112db01)" style="fill: none; stroke: #dedede; stroke-linecap: square"/>
     </g>
     <g id="text_6">
      <!-- 1.25 -->
      <g transform="translate(593.286071 888.035272)scale(0.08 -0.08)">
       <use xlink:href="#DejaVuSans-31"/>
       <use xlink:href="#DejaVuSans-2e" x="63.623047"/>
       <use xlink:href="#DejaVuSans-32" x="95.410156"/>
       <use xlink:href="#DejaVuSans-35" x="159.033203"/>
      </g>
     </g>
    </g>
    <g id="xtick_7">
     <g id="line2d_7">
      <path d="M 707.866286 874.956522 
L 707.866286 7.2 
" clip-path="url(#p34f112db01)" style="fill: none; stroke: #dedede; stroke-linecap: square"/>
     </g>
     <g id="text_7">
      <!-- 1.50 -->
      <g transform="translate(698.960036 888.035272)scale(0.08 -0.08)">
       <use xlink:href="#DejaVuSans-31"/>
       <use xlink:href="#DejaVuSans-2e" x="63.623047"/>
       <use xlink:href="#DejaVuSans-35" x="95.410156"/>
       <use xlink:href="#DejaVuSans-30" x="159.033203"/>
      </g>
     </g>
    </g>
    <g id="xtick_8">
     <g id="line2d_8">
      <path d="M 813.54025 874.956522 
L 813.54025 7.2 
" clip-path="url(#p34f112db01)" style="fill: none; stroke: #dedede; stroke-linecap: square"/>
     </g>
     <g id="text_8">
      <!-- 1.75 -->
      <g transform="translate(804.634 888.035272)scale(0.08 -0.08)">
       <use xlink:href="#DejaVuSans-31"/>
       <use xlink:href="#DejaVuSans-2e" x="63.623047"/>
       <use xlink:href="#DejaVuSans-37" x="95.410156"/>
       <use xlink:href="#DejaVuSans-35" x="159.033203"/>
      </g>
     </g>
    </g>
    <g id="text_9">
     <!-- Percentage of Total Sequences -->
     <g transform="translate(387.767031 901.297459)scale(0.1 -0.1)">
      <defs>
       <path id="DejaVuSans-50" d="M 1259 4147 
L 1259 2394 
L 2053 2394 
Q 2494 2394 2734 2622 
Q 2975 2850 2975 3272 
Q 2975 3691 2734 3919 
Q 2494 4147 2053 4147 
L 1259 4147 
z
M 628 4666 
L 2053 4666 
Q 2838 4666 3239 4311 
Q 3641 3956 3641 3272 
Q 3641 2581 3239 2228 
Q 2838 1875 2053 1875 
L 1259 1875 
L 1259 0 
L 628 0 
L 628 4666 
z
" transform="scale(0.015625)"/>
       <path id="DejaVuSans-65" d="M 3597 1894 
L 3597 1613 
L 953 1613 
Q 991 1019 1311 708 
Q 1631 397 2203 397 
Q 2534 397 2845 478 
Q 3156 559 3463 722 
L 3463 178 
Q 3153 47 2828 -22 
Q 2503 -91 2169 -91 
Q 1331 -91 842 396 
Q 353 884 353 1716 
Q 353 2575 817 3079 
Q 1281 3584 2069 3584 
Q 2775 3584 3186 3129 
Q 3597 2675 3597 1894 
z
M 3022 2063 
Q 3016 2534 2758 2815 
Q 2500 3097 2075 3097 
Q 1594 3097 1305 2825 
Q 1016 2553 972 2059 
L 3022 2063 
z
" transform="scale(0.015625)"/>
       <path id="DejaVuSans-72" d="M 2631 2963 
Q 2534 3019 2420 3045 
Q 2306 3072 2169 3072 
Q 1681 3072 1420 2755 
Q 1159 2438 1159 1844 
L 1159 0 
L 581 0 
L 581 3500 
L 1159 3500 
L 1159 2956 
Q 1341 3275 1631 3429 
Q 1922 3584 2338 3584 
Q 2397 3584 2469 3576 
Q 2541 3569 2628 3553 
L 2631 2963 
z
" transform="scale(0.015625)"/>
       <path id="DejaVuSans-63" d="M 3122 3366 
L 3122 2828 
Q 2878 2963 2633 3030 
Q 2388 3097 2138 3097 
Q 1578 3097 1268 2742 
Q 959 2388 959 1747 
Q 959 1106 1268 751 
Q 1578 397 2138 397 
Q 2388 397 2633 464 
Q 2878 531 3122 666 
L 3122 134 
Q 2881 22 2623 -34 
Q 2366 -91 2075 -91 
Q 1284 -91 818 406 
Q 353 903 353 1747 
Q 353 2603 823 3093 
Q 1294 3584 2113 3584 
Q 2378 3584 2631 3529 
Q 2884 3475 3122 3366 
z
" transform="scale(0.015625)"/>
       <path id="DejaVuSans-6e" d="M 3513 2113 
L 3513 0 
L 2938 0 
L 2938 2094 
Q 2938 2591 2744 2837 
Q 2550 3084 2163 3084 
Q 1697 3084 1428 2787 
Q 1159 2491 1159 1978 
L 1159 0 
L 581 0 
L 581 3500 
L 1159 3500 
L 1159 2956 
Q 1366 3272 1645 3428 
Q 1925 3584 2291 3584 
Q 2894 3584 3203 3211 
Q 3513 2838 3513 2113 
z
" transform="scale(0.015625)"/>
       <path id="DejaVuSans-74" d="M 1172 4494 
L 1172 3500 
L 2356 3500 
L 2356 3053 
L 1172 3053 
L 1172 1153 
Q 1172 725 1289 603 
Q 1406 481 1766 481 
L 2356 481 
L 2356 0 
L 1766 0 
Q 1100 0 847 248 
Q 594 497 594 1153 
L 594 3053 
L 172 3053 
L 172 3500 
L 594 3500 
L 594 4494 
L 1172 4494 
z
" transform="scale(0.015625)"/>
       <path id="DejaVuSans-61" d="M 2194 1759 
Q 1497 1759 1228 1600 
Q 959 1441 959 1056 
Q 959 750 1161 570 
Q 1363 391 1709 391 
Q 2188 391 2477 730 
Q 2766 1069 2766 1631 
L 2766 1759 
L 2194 1759 
z
M 3341 1997 
L 3341 0 
L 2766 0 
L 2766 531 
Q 2569 213 2275 61 
Q 1981 -91 1556 -91 
Q 1019 -91 701 211 
Q 384 513 384 1019 
Q 384 1609 779 1909 
Q 1175 2209 1959 2209 
L 2766 2209 
L 2766 2266 
Q 2766 2663 2505 2880 
Q 2244 3097 1772 3097 
Q 1472 3097 1187 3025 
Q 903 2953 641 2809 
L 641 3341 
Q 956 3463 1253 3523 
Q 1550 3584 1831 3584 
Q 2591 3584 2966 3190 
Q 3341 2797 3341 1997 
z
" transform="scale(0.015625)"/>
       <path id="DejaVuSans-67" d="M 2906 1791 
Q 2906 2416 2648 2759 
Q 2391 3103 1925 3103 
Q 1463 3103 1205 2759 
Q 947 2416 947 1791 
Q 947 1169 1205 825 
Q 1463 481 1925 481 
Q 2391 481 2648 825 
Q 2906 1169 2906 1791 
z
M 3481 434 
Q 3481 -459 3084 -895 
Q 2688 -1331 1869 -1331 
Q 1566 -1331 1297 -1286 
Q 1028 -1241 775 -1147 
L 775 -588 
Q 1028 -725 1275 -790 
Q 1522 -856 1778 -856 
Q 2344 -856 2625 -561 
Q 2906 -266 2906 331 
L 2906 616 
Q 2728 306 2450 153 
Q 2172 0 1784 0 
Q 1141 0 747 490 
Q 353 981 353 1791 
Q 353 2603 747 3093 
Q 1141 3584 1784 3584 
Q 2172 3584 2450 3431 
Q 2728 3278 2906 2969 
L 2906 3500 
L 3481 3500 
L 3481 434 
z
" transform="scale(0.015625)"/>
       <path id="DejaVuSans-20" transform="scale(0.015625)"/>
       <path id="DejaVuSans-6f" d="M 1959 3097 
Q 1497 3097 1228 2736 
Q 959 2375 959 1747 
Q 959 1119 1226 758 
Q 1494 397 1959 397 
Q 2419 397 2687 759 
Q 2956 1122 2956 1747 
Q 2956 2369 2687 2733 
Q 2419 3097 1959 3097 
z
M 1959 3584 
Q 2709 3584 3137 3096 
Q 3566 2609 3566 1747 
Q 3566 888 3137 398 
Q 2709 -91 1959 -91 
Q 1206 -91 779 398 
Q 353 888 353 1747 
Q 353 2609 779 3096 
Q 1206 3584 1959 3584 
z
" transform="scale(0.015625)"/>
       <path id="DejaVuSans-66" d="M 2375 4863 
L 2375 4384 
L 1825 4384 
Q 1516 4384 1395 4259 
Q 1275 4134 1275 3809 
L 1275 3500 
L 2222 3500 
L 2222 3053 
L 1275 3053 
L 1275 0 
L 697 0 
L 697 3053 
L 147 3053 
L 147 3500 
L 697 3500 
L 697 3744 
Q 697 4328 969 4595 
Q 1241 4863 1831 4863 
L 2375 4863 
z
" transform="scale(0.015625)"/>
       <path id="DejaVuSans-54" d="M -19 4666 
L 3928 4666 
L 3928 4134 
L 2272 4134 
L 2272 0 
L 1638 0 
L 1638 4134 
L -19 4134 
L -19 4666 
z
" transform="scale(0.015625)"/>
       <path id="DejaVuSans-6c" d="M 603 4863 
L 1178 4863 
L 1178 0 
L 603 0 
L 603 4863 
z
" transform="scale(0.015625)"/>
       <path id="DejaVuSans-53" d="M 3425 4513 
L 3425 3897 
Q 3066 4069 2747 4153 
Q 2428 4238 2131 4238 
Q 1616 4238 1336 4038 
Q 1056 3838 1056 3469 
Q 1056 3159 1242 3001 
Q 1428 2844 1947 2747 
L 2328 2669 
Q 3034 2534 3370 2195 
Q 3706 1856 3706 1288 
Q 3706 609 3251 259 
Q 2797 -91 1919 -91 
Q 1588 -91 1214 -16 
Q 841 59 441 206 
L 441 856 
Q 825 641 1194 531 
Q 1563 422 1919 422 
Q 2459 422 2753 634 
Q 3047 847 3047 1241 
Q 3047 1584 2836 1778 
Q 2625 1972 2144 2069 
L 1759 2144 
Q 1053 2284 737 2584 
Q 422 2884 422 3419 
Q 422 4038 858 4394 
Q 1294 4750 2059 4750 
Q 2388 4750 2728 4690 
Q 3069 4631 3425 4513 
z
" transform="scale(0.015625)"/>
       <path id="DejaVuSans-71" d="M 947 1747 
Q 947 1113 1208 752 
Q 1469 391 1925 391 
Q 2381 391 2643 752 
Q 2906 1113 2906 1747 
Q 2906 2381 2643 2742 
Q 2381 3103 1925 3103 
Q 1469 3103 1208 2742 
Q 947 2381 947 1747 
z
M 2906 525 
Q 2725 213 2448 61 
Q 2172 -91 1784 -91 
Q 1150 -91 751 415 
Q 353 922 353 1747 
Q 353 2572 751 3078 
Q 1150 3584 1784 3584 
Q 2172 3584 2448 3432 
Q 2725 3281 2906 2969 
L 2906 3500 
L 3481 3500 
L 3481 -1331 
L 2906 -1331 
L 2906 525 
z
" transform="scale(0.015625)"/>
       <path id="DejaVuSans-75" d="M 544 1381 
L 544 3500 
L 1119 3500 
L 1119 1403 
Q 1119 906 1312 657 
Q 1506 409 1894 409 
Q 2359 409 2629 706 
Q 2900 1003 2900 1516 
L 2900 3500 
L 3475 3500 
L 3475 0 
L 2900 0 
L 2900 538 
Q 2691 219 2414 64 
Q 2138 -91 1772 -91 
Q 1169 -91 856 284 
Q 544 659 544 1381 
z
M 1991 3584 
L 1991 3584 
z
" transform="scale(0.015625)"/>
       <path id="DejaVuSans-73" d="M 2834 3397 
L 2834 2853 
Q 2591 2978 2328 3040 
Q 2066 3103 1784 3103 
Q 1356 3103 1142 2972 
Q 928 2841 928 2578 
Q 928 2378 1081 2264 
Q 1234 2150 1697 2047 
L 1894 2003 
Q 2506 1872 2764 1633 
Q 3022 1394 3022 966 
Q 3022 478 2636 193 
Q 2250 -91 1575 -91 
Q 1294 -91 989 -36 
Q 684 19 347 128 
L 347 722 
Q 666 556 975 473 
Q 1284 391 1588 391 
Q 1994 391 2212 530 
Q 2431 669 2431 922 
Q 2431 1156 2273 1281 
Q 2116 1406 1581 1522 
L 1381 1569 
Q 847 1681 609 1914 
Q 372 2147 372 2553 
Q 372 3047 722 3315 
Q 1072 3584 1716 3584 
Q 2034 3584 2315 3537 
Q 2597 3491 2834 3397 
z
" transform="scale(0.015625)"/>
      </defs>
      <use xlink:href="#DejaVuSans-50"/>
      <use xlink:href="#DejaVuSans-65" x="56.677734"/>
      <use xlink:href="#DejaVuSans-72" x="118.201172"/>
      <use xlink:href="#DejaVuSans-63" x="157.064453"/>
      <use xlink:href="#DejaVuSans-65" x="212.044922"/>
      <use xlink:href="#DejaVuSans-6e" x="273.568359"/>
      <use xlink:href="#DejaVuSans-74" x="336.947266"/>
      <use xlink:href="#DejaVuSans-61" x="376.15625"/>
      <use xlink:href="#DejaVuSans-67" x="437.435547"/>
      <use xlink:href="#DejaVuSans-65" x="500.912109"/>
      <use xlink:href="#DejaVuSans-20" x="562.435547"/>
      <use xlink:href="#DejaVuSans-6f" x="594.222656"/>
      <use xlink:href="#DejaVuSans-66" x="655.404297"/>
      <use xlink:href="#DejaVuSans-20" x="690.609375"/>
      <use xlink:href="#DejaVuSans-54" x="722.396484"/>
      <use xlink:href="#DejaVuSans-6f" x="766.480469"/>
      <use xlink:href="#DejaVuSans-74" x="827.662109"/>
      <use xlink:href="#DejaVuSans-61" x="866.871094"/>
      <use xlink:href="#DejaVuSans-6c" x="928.150391"/>
      <use xlink:href="#DejaVuSans-20" x="955.933594"/>
      <use xlink:href="#DejaVuSans-53" x="987.720703"/>
      <use xlink:href="#DejaVuSans-65" x="1051.197266"/>
      <use xlink:href="#DejaVuSans-71" x="1112.720703"/>
      <use xlink:href="#DejaVuSans-75" x="1176.197266"/>
      <use xlink:href="#DejaVuSans-65" x="1239.576172"/>
      <use xlink:href="#DejaVuSans-6e" x="1301.099609"/>
      <use xlink:href="#DejaVuSans-63" x="1364.478516"/>
      <use xlink:href="#DejaVuSans-65" x="1419.458984"/>
      <use xlink:href="#DejaVuSans-73" x="1480.982422"/>
     </g>
    </g>
   </g>
   <g id="matplotlib.axis_2">
    <g id="ytick_1">
     <g id="text_10">
      <!-- CRR240976_f1 -->
      <g transform="translate(7.6725 22.291549)scale(0.08 -0.08)">
       <defs>
        <path id="DejaVuSans-43" d="M 4122 4306 
L 4122 3641 
Q 3803 3938 3442 4084 
Q 3081 4231 2675 4231 
Q 1875 4231 1450 3742 
Q 1025 3253 1025 2328 
Q 1025 1406 1450 917 
Q 1875 428 2675 428 
Q 3081 428 3442 575 
Q 3803 722 4122 1019 
L 4122 359 
Q 3791 134 3420 21 
Q 3050 -91 2638 -91 
Q 1578 -91 968 557 
Q 359 1206 359 2328 
Q 359 3453 968 4101 
Q 1578 4750 2638 4750 
Q 3056 4750 3426 4639 
Q 3797 4528 4122 4306 
z
" transform="scale(0.015625)"/>
        <path id="DejaVuSans-52" d="M 2841 2188 
Q 3044 2119 3236 1894 
Q 3428 1669 3622 1275 
L 4263 0 
L 3584 0 
L 2988 1197 
Q 2756 1666 2539 1819 
Q 2322 1972 1947 1972 
L 1259 1972 
L 1259 0 
L 628 0 
L 628 4666 
L 2053 4666 
Q 2853 4666 3247 4331 
Q 3641 3997 3641 3322 
Q 3641 2881 3436 2590 
Q 3231 2300 2841 2188 
z
M 1259 4147 
L 1259 2491 
L 2053 2491 
Q 2509 2491 2742 2702 
Q 2975 2913 2975 3322 
Q 2975 3731 2742 3939 
Q 2509 4147 2053 4147 
L 1259 4147 
z
" transform="scale(0.015625)"/>
        <path id="DejaVuSans-34" d="M 2419 4116 
L 825 1625 
L 2419 1625 
L 2419 4116 
z
M 2253 4666 
L 3047 4666 
L 3047 1625 
L 3713 1625 
L 3713 1100 
L 3047 1100 
L 3047 0 
L 2419 0 
L 2419 1100 
L 313 1100 
L 313 1709 
L 2253 4666 
z
" transform="scale(0.015625)"/>
        <path id="DejaVuSans-39" d="M 703 97 
L 703 672 
Q 941 559 1184 500 
Q 1428 441 1663 441 
Q 2288 441 2617 861 
Q 2947 1281 2994 2138 
Q 2813 1869 2534 1725 
Q 2256 1581 1919 1581 
Q 1219 1581 811 2004 
Q 403 2428 403 3163 
Q 403 3881 828 4315 
Q 1253 4750 1959 4750 
Q 2769 4750 3195 4129 
Q 3622 3509 3622 2328 
Q 3622 1225 3098 567 
Q 2575 -91 1691 -91 
Q 1453 -91 1209 -44 
Q 966 3 703 97 
z
M 1959 2075 
Q 2384 2075 2632 2365 
Q 2881 2656 2881 3163 
Q 2881 3666 2632 3958 
Q 2384 4250 1959 4250 
Q 1534 4250 1286 3958 
Q 1038 3666 1038 3163 
Q 1038 2656 1286 2365 
Q 1534 2075 1959 2075 
z
" transform="scale(0.015625)"/>
        <path id="DejaVuSans-36" d="M 2113 2584 
Q 1688 2584 1439 2293 
Q 1191 2003 1191 1497 
Q 1191 994 1439 701 
Q 1688 409 2113 409 
Q 2538 409 2786 701 
Q 3034 994 3034 1497 
Q 3034 2003 2786 2293 
Q 2538 2584 2113 2584 
z
M 3366 4563 
L 3366 3988 
Q 3128 4100 2886 4159 
Q 2644 4219 2406 4219 
Q 1781 4219 1451 3797 
Q 1122 3375 1075 2522 
Q 1259 2794 1537 2939 
Q 1816 3084 2150 3084 
Q 2853 3084 3261 2657 
Q 3669 2231 3669 1497 
Q 3669 778 3244 343 
Q 2819 -91 2113 -91 
Q 1303 -91 875 529 
Q 447 1150 447 2328 
Q 447 3434 972 4092 
Q 1497 4750 2381 4750 
Q 2619 4750 2861 4703 
Q 3103 4656 3366 4563 
z
" transform="scale(0.015625)"/>
        <path id="DejaVuSans-5f" d="M 3263 -1063 
L 3263 -1509 
L -63 -1509 
L -63 -1063 
L 3263 -1063 
z
" transform="scale(0.015625)"/>
       </defs>
       <use xlink:href="#DejaVuSans-43"/>
       <use xlink:href="#DejaVuSans-52" x="69.824219"/>
       <use xlink:href="#DejaVuSans-52" x="139.306641"/>
       <use xlink:href="#DejaVuSans-32" x="208.789062"/>
       <use xlink:href="#DejaVuSans-34" x="272.412109"/>
       <use xlink:href="#DejaVuSans-30" x="336.035156"/>
       <use xlink:href="#DejaVuSans-39" x="399.658203"/>
       <use xlink:href="#DejaVuSans-37" x="463.28125"/>
       <use xlink:href="#DejaVuSans-36" x="526.904297"/>
       <use xlink:href="#DejaVuSans-5f" x="590.527344"/>
       <use xlink:href="#DejaVuSans-66" x="640.527344"/>
       <use xlink:href="#DejaVuSans-31" x="675.732422"/>
      </g>
     </g>
    </g>
    <g id="ytick_2">
     <g id="text_11">
      <!-- CRR240976_r2 -->
      <g transform="translate(7.2 46.325272)scale(0.08 -0.08)">
       <use xlink:href="#DejaVuSans-43"/>
       <use xlink:href="#DejaVuSans-52" x="69.824219"/>
       <use xlink:href="#DejaVuSans-52" x="139.306641"/>
       <use xlink:href="#DejaVuSans-32" x="208.789062"/>
       <use xlink:href="#DejaVuSans-34" x="272.412109"/>
       <use xlink:href="#DejaVuSans-30" x="336.035156"/>
       <use xlink:href="#DejaVuSans-39" x="399.658203"/>
       <use xlink:href="#DejaVuSans-37" x="463.28125"/>
       <use xlink:href="#DejaVuSans-36" x="526.904297"/>
       <use xlink:href="#DejaVuSans-5f" x="590.527344"/>
       <use xlink:href="#DejaVuSans-72" x="640.527344"/>
       <use xlink:href="#DejaVuSans-32" x="681.640625"/>
      </g>
     </g>
    </g>
    <g id="ytick_3">
     <g id="text_12">
      <!-- CRR240977_f1 -->
      <g transform="translate(7.6725 70.500245)scale(0.08 -0.08)">
       <use xlink:href="#DejaVuSans-43"/>
       <use xlink:href="#DejaVuSans-52" x="69.824219"/>
       <use xlink:href="#DejaVuSans-52" x="139.306641"/>
       <use xlink:href="#DejaVuSans-32" x="208.789062"/>
       <use xlink:href="#DejaVuSans-34" x="272.412109"/>
       <use xlink:href="#DejaVuSans-30" x="336.035156"/>
       <use xlink:href="#DejaVuSans-39" x="399.658203"/>
       <use xlink:href="#DejaVuSans-37" x="463.28125"/>
       <use xlink:href="#DejaVuSans-37" x="526.904297"/>
       <use xlink:href="#DejaVuSans-5f" x="590.527344"/>
       <use xlink:href="#DejaVuSans-66" x="640.527344"/>
       <use xlink:href="#DejaVuSans-31" x="675.732422"/>
      </g>
     </g>
    </g>
    <g id="ytick_4">
     <g id="text_13">
      <!-- CRR240977_r2 -->
      <g transform="translate(7.2 94.533967)scale(0.08 -0.08)">
       <use xlink:href="#DejaVuSans-43"/>
       <use xlink:href="#DejaVuSans-52" x="69.824219"/>
       <use xlink:href="#DejaVuSans-52" x="139.306641"/>
       <use xlink:href="#DejaVuSans-32" x="208.789062"/>
       <use xlink:href="#DejaVuSans-34" x="272.412109"/>
       <use xlink:href="#DejaVuSans-30" x="336.035156"/>
       <use xlink:href="#DejaVuSans-39" x="399.658203"/>
       <use xlink:href="#DejaVuSans-37" x="463.28125"/>
       <use xlink:href="#DejaVuSans-37" x="526.904297"/>
       <use xlink:href="#DejaVuSans-5f" x="590.527344"/>
       <use xlink:href="#DejaVuSans-72" x="640.527344"/>
       <use xlink:href="#DejaVuSans-32" x="681.640625"/>
      </g>
     </g>
    </g>
    <g id="ytick_5">
     <g id="text_14">
      <!-- CRR240978_f1 -->
      <g transform="translate(7.6725 118.70894)scale(0.08 -0.08)">
       <defs>
        <path id="DejaVuSans-38" d="M 2034 2216 
Q 1584 2216 1326 1975 
Q 1069 1734 1069 1313 
Q 1069 891 1326 650 
Q 1584 409 2034 409 
Q 2484 409 2743 651 
Q 3003 894 3003 1313 
Q 3003 1734 2745 1975 
Q 2488 2216 2034 2216 
z
M 1403 2484 
Q 997 2584 770 2862 
Q 544 3141 544 3541 
Q 544 4100 942 4425 
Q 1341 4750 2034 4750 
Q 2731 4750 3128 4425 
Q 3525 4100 3525 3541 
Q 3525 3141 3298 2862 
Q 3072 2584 2669 2484 
Q 3125 2378 3379 2068 
Q 3634 1759 3634 1313 
Q 3634 634 3220 271 
Q 2806 -91 2034 -91 
Q 1263 -91 848 271 
Q 434 634 434 1313 
Q 434 1759 690 2068 
Q 947 2378 1403 2484 
z
M 1172 3481 
Q 1172 3119 1398 2916 
Q 1625 2713 2034 2713 
Q 2441 2713 2670 2916 
Q 2900 3119 2900 3481 
Q 2900 3844 2670 4047 
Q 2441 4250 2034 4250 
Q 1625 4250 1398 4047 
Q 1172 3844 1172 3481 
z
" transform="scale(0.015625)"/>
       </defs>
       <use xlink:href="#DejaVuSans-43"/>
       <use xlink:href="#DejaVuSans-52" x="69.824219"/>
       <use xlink:href="#DejaVuSans-52" x="139.306641"/>
       <use xlink:href="#DejaVuSans-32" x="208.789062"/>
       <use xlink:href="#DejaVuSans-34" x="272.412109"/>
       <use xlink:href="#DejaVuSans-30" x="336.035156"/>
       <use xlink:href="#DejaVuSans-39" x="399.658203"/>
       <use xlink:href="#DejaVuSans-37" x="463.28125"/>
       <use xlink:href="#DejaVuSans-38" x="526.904297"/>
       <use xlink:href="#DejaVuSans-5f" x="590.527344"/>
       <use xlink:href="#DejaVuSans-66" x="640.527344"/>
       <use xlink:href="#DejaVuSans-31" x="675.732422"/>
      </g>
     </g>
    </g>
    <g id="ytick_6">
     <g id="text_15">
      <!-- CRR240978_r2 -->
      <g transform="translate(7.2 142.742663)scale(0.08 -0.08)">
       <use xlink:href="#DejaVuSans-43"/>
       <use xlink:href="#DejaVuSans-52" x="69.824219"/>
       <use xlink:href="#DejaVuSans-52" x="139.306641"/>
       <use xlink:href="#DejaVuSans-32" x="208.789062"/>
       <use xlink:href="#DejaVuSans-34" x="272.412109"/>
       <use xlink:href="#DejaVuSans-30" x="336.035156"/>
       <use xlink:href="#DejaVuSans-39" x="399.658203"/>
       <use xlink:href="#DejaVuSans-37" x="463.28125"/>
       <use xlink:href="#DejaVuSans-38" x="526.904297"/>
       <use xlink:href="#DejaVuSans-5f" x="590.527344"/>
       <use xlink:href="#DejaVuSans-72" x="640.527344"/>
       <use xlink:href="#DejaVuSans-32" x="681.640625"/>
      </g>
     </g>
    </g>
    <g id="ytick_7">
     <g id="text_16">
      <!-- CRR240979_f1 -->
      <g transform="translate(7.6725 166.917636)scale(0.08 -0.08)">
       <use xlink:href="#DejaVuSans-43"/>
       <use xlink:href="#DejaVuSans-52" x="69.824219"/>
       <use xlink:href="#DejaVuSans-52" x="139.306641"/>
       <use xlink:href="#DejaVuSans-32" x="208.789062"/>
       <use xlink:href="#DejaVuSans-34" x="272.412109"/>
       <use xlink:href="#DejaVuSans-30" x="336.035156"/>
       <use xlink:href="#DejaVuSans-39" x="399.658203"/>
       <use xlink:href="#DejaVuSans-37" x="463.28125"/>
       <use xlink:href="#DejaVuSans-39" x="526.904297"/>
       <use xlink:href="#DejaVuSans-5f" x="590.527344"/>
       <use xlink:href="#DejaVuSans-66" x="640.527344"/>
       <use xlink:href="#DejaVuSans-31" x="675.732422"/>
      </g>
     </g>
    </g>
    <g id="ytick_8">
     <g id="text_17">
      <!-- CRR240979_r2 -->
      <g transform="translate(7.2 190.951359)scale(0.08 -0.08)">
       <use xlink:href="#DejaVuSans-43"/>
       <use xlink:href="#DejaVuSans-52" x="69.824219"/>
       <use xlink:href="#DejaVuSans-52" x="139.306641"/>
       <use xlink:href="#DejaVuSans-32" x="208.789062"/>
       <use xlink:href="#DejaVuSans-34" x="272.412109"/>
       <use xlink:href="#DejaVuSans-30" x="336.035156"/>
       <use xlink:href="#DejaVuSans-39" x="399.658203"/>
       <use xlink:href="#DejaVuSans-37" x="463.28125"/>
       <use xlink:href="#DejaVuSans-39" x="526.904297"/>
       <use xlink:href="#DejaVuSans-5f" x="590.527344"/>
       <use xlink:href="#DejaVuSans-72" x="640.527344"/>
       <use xlink:href="#DejaVuSans-32" x="681.640625"/>
      </g>
     </g>
    </g>
    <g id="ytick_9">
     <g id="text_18">
      <!-- CRR240980_f1 -->
      <g transform="translate(7.6725 215.126332)scale(0.08 -0.08)">
       <use xlink:href="#DejaVuSans-43"/>
       <use xlink:href="#DejaVuSans-52" x="69.824219"/>
       <use xlink:href="#DejaVuSans-52" x="139.306641"/>
       <use xlink:href="#DejaVuSans-32" x="208.789062"/>
       <use xlink:href="#DejaVuSans-34" x="272.412109"/>
       <use xlink:href="#DejaVuSans-30" x="336.035156"/>
       <use xlink:href="#DejaVuSans-39" x="399.658203"/>
       <use xlink:href="#DejaVuSans-38" x="463.28125"/>
       <use xlink:href="#DejaVuSans-30" x="526.904297"/>
       <use xlink:href="#DejaVuSans-5f" x="590.527344"/>
       <use xlink:href="#DejaVuSans-66" x="640.527344"/>
       <use xlink:href="#DejaVuSans-31" x="675.732422"/>
      </g>
     </g>
    </g>
    <g id="ytick_10">
     <g id="text_19">
      <!-- CRR240980_r2 -->
      <g transform="translate(7.2 239.160054)scale(0.08 -0.08)">
       <use xlink:href="#DejaVuSans-43"/>
       <use xlink:href="#DejaVuSans-52" x="69.824219"/>
       <use xlink:href="#DejaVuSans-52" x="139.306641"/>
       <use xlink:href="#DejaVuSans-32" x="208.789062"/>
       <use xlink:href="#DejaVuSans-34" x="272.412109"/>
       <use xlink:href="#DejaVuSans-30" x="336.035156"/>
       <use xlink:href="#DejaVuSans-39" x="399.658203"/>
       <use xlink:href="#DejaVuSans-38" x="463.28125"/>
       <use xlink:href="#DejaVuSans-30" x="526.904297"/>
       <use xlink:href="#DejaVuSans-5f" x="590.527344"/>
       <use xlink:href="#DejaVuSans-72" x="640.527344"/>
       <use xlink:href="#DejaVuSans-32" x="681.640625"/>
      </g>
     </g>
    </g>
    <g id="ytick_11">
     <g id="text_20">
      <!-- CRR240981_f1 -->
      <g transform="translate(7.6725 263.335027)scale(0.08 -0.08)">
       <use xlink:href="#DejaVuSans-43"/>
       <use xlink:href="#DejaVuSans-52" x="69.824219"/>
       <use xlink:href="#DejaVuSans-52" x="139.306641"/>
       <use xlink:href="#DejaVuSans-32" x="208.789062"/>
       <use xlink:href="#DejaVuSans-34" x="272.412109"/>
       <use xlink:href="#DejaVuSans-30" x="336.035156"/>
       <use xlink:href="#DejaVuSans-39" x="399.658203"/>
       <use xlink:href="#DejaVuSans-38" x="463.28125"/>
       <use xlink:href="#DejaVuSans-31" x="526.904297"/>
       <use xlink:href="#DejaVuSans-5f" x="590.527344"/>
       <use xlink:href="#DejaVuSans-66" x="640.527344"/>
       <use xlink:href="#DejaVuSans-31" x="675.732422"/>
      </g>
     </g>
    </g>
    <g id="ytick_12">
     <g id="text_21">
      <!-- CRR240981_r2 -->
      <g transform="translate(7.2 287.36875)scale(0.08 -0.08)">
       <use xlink:href="#DejaVuSans-43"/>
       <use xlink:href="#DejaVuSans-52" x="69.824219"/>
       <use xlink:href="#DejaVuSans-52" x="139.306641"/>
       <use xlink:href="#DejaVuSans-32" x="208.789062"/>
       <use xlink:href="#DejaVuSans-34" x="272.412109"/>
       <use xlink:href="#DejaVuSans-30" x="336.035156"/>
       <use xlink:href="#DejaVuSans-39" x="399.658203"/>
       <use xlink:href="#DejaVuSans-38" x="463.28125"/>
       <use xlink:href="#DejaVuSans-31" x="526.904297"/>
       <use xlink:href="#DejaVuSans-5f" x="590.527344"/>
       <use xlink:href="#DejaVuSans-72" x="640.527344"/>
       <use xlink:href="#DejaVuSans-32" x="681.640625"/>
      </g>
     </g>
    </g>
    <g id="ytick_13">
     <g id="text_22">
      <!-- CRR240982_f1 -->
      <g transform="translate(7.6725 311.543723)scale(0.08 -0.08)">
       <use xlink:href="#DejaVuSans-43"/>
       <use xlink:href="#DejaVuSans-52" x="69.824219"/>
       <use xlink:href="#DejaVuSans-52" x="139.306641"/>
       <use xlink:href="#DejaVuSans-32" x="208.789062"/>
       <use xlink:href="#DejaVuSans-34" x="272.412109"/>
       <use xlink:href="#DejaVuSans-30" x="336.035156"/>
       <use xlink:href="#DejaVuSans-39" x="399.658203"/>
       <use xlink:href="#DejaVuSans-38" x="463.28125"/>
       <use xlink:href="#DejaVuSans-32" x="526.904297"/>
       <use xlink:href="#DejaVuSans-5f" x="590.527344"/>
       <use xlink:href="#DejaVuSans-66" x="640.527344"/>
       <use xlink:href="#DejaVuSans-31" x="675.732422"/>
      </g>
     </g>
    </g>
    <g id="ytick_14">
     <g id="text_23">
      <!-- CRR240982_r2 -->
      <g transform="translate(7.2 335.577446)scale(0.08 -0.08)">
       <use xlink:href="#DejaVuSans-43"/>
       <use xlink:href="#DejaVuSans-52" x="69.824219"/>
       <use xlink:href="#DejaVuSans-52" x="139.306641"/>
       <use xlink:href="#DejaVuSans-32" x="208.789062"/>
       <use xlink:href="#DejaVuSans-34" x="272.412109"/>
       <use xlink:href="#DejaVuSans-30" x="336.035156"/>
       <use xlink:href="#DejaVuSans-39" x="399.658203"/>
       <use xlink:href="#DejaVuSans-38" x="463.28125"/>
       <use xlink:href="#DejaVuSans-32" x="526.904297"/>
       <use xlink:href="#DejaVuSans-5f" x="590.527344"/>
       <use xlink:href="#DejaVuSans-72" x="640.527344"/>
       <use xlink:href="#DejaVuSans-32" x="681.640625"/>
      </g>
     </g>
    </g>
    <g id="ytick_15">
     <g id="text_24">
      <!-- CRR240983_f1 -->
      <g transform="translate(7.6725 359.752418)scale(0.08 -0.08)">
       <defs>
        <path id="DejaVuSans-33" d="M 2597 2516 
Q 3050 2419 3304 2112 
Q 3559 1806 3559 1356 
Q 3559 666 3084 287 
Q 2609 -91 1734 -91 
Q 1441 -91 1130 -33 
Q 819 25 488 141 
L 488 750 
Q 750 597 1062 519 
Q 1375 441 1716 441 
Q 2309 441 2620 675 
Q 2931 909 2931 1356 
Q 2931 1769 2642 2001 
Q 2353 2234 1838 2234 
L 1294 2234 
L 1294 2753 
L 1863 2753 
Q 2328 2753 2575 2939 
Q 2822 3125 2822 3475 
Q 2822 3834 2567 4026 
Q 2313 4219 1838 4219 
Q 1578 4219 1281 4162 
Q 984 4106 628 3988 
L 628 4550 
Q 988 4650 1302 4700 
Q 1616 4750 1894 4750 
Q 2613 4750 3031 4423 
Q 3450 4097 3450 3541 
Q 3450 3153 3228 2886 
Q 3006 2619 2597 2516 
z
" transform="scale(0.015625)"/>
       </defs>
       <use xlink:href="#DejaVuSans-43"/>
       <use xlink:href="#DejaVuSans-52" x="69.824219"/>
       <use xlink:href="#DejaVuSans-52" x="139.306641"/>
       <use xlink:href="#DejaVuSans-32" x="208.789062"/>
       <use xlink:href="#DejaVuSans-34" x="272.412109"/>
       <use xlink:href="#DejaVuSans-30" x="336.035156"/>
       <use xlink:href="#DejaVuSans-39" x="399.658203"/>
       <use xlink:href="#DejaVuSans-38" x="463.28125"/>
       <use xlink:href="#DejaVuSans-33" x="526.904297"/>
       <use xlink:href="#DejaVuSans-5f" x="590.527344"/>
       <use xlink:href="#DejaVuSans-66" x="640.527344"/>
       <use xlink:href="#DejaVuSans-31" x="675.732422"/>
      </g>
     </g>
    </g>
    <g id="ytick_16">
     <g id="text_25">
      <!-- CRR240983_r2 -->
      <g transform="translate(7.2 383.786141)scale(0.08 -0.08)">
       <use xlink:href="#DejaVuSans-43"/>
       <use xlink:href="#DejaVuSans-52" x="69.824219"/>
       <use xlink:href="#DejaVuSans-52" x="139.306641"/>
       <use xlink:href="#DejaVuSans-32" x="208.789062"/>
       <use xlink:href="#DejaVuSans-34" x="272.412109"/>
       <use xlink:href="#DejaVuSans-30" x="336.035156"/>
       <use xlink:href="#DejaVuSans-39" x="399.658203"/>
       <use xlink:href="#DejaVuSans-38" x="463.28125"/>
       <use xlink:href="#DejaVuSans-33" x="526.904297"/>
       <use xlink:href="#DejaVuSans-5f" x="590.527344"/>
       <use xlink:href="#DejaVuSans-72" x="640.527344"/>
       <use xlink:href="#DejaVuSans-32" x="681.640625"/>
      </g>
     </g>
    </g>
    <g id="ytick_17">
     <g id="text_26">
      <!-- CRR240984_f1 -->
      <g transform="translate(7.6725 407.961114)scale(0.08 -0.08)">
       <use xlink:href="#DejaVuSans-43"/>
       <use xlink:href="#DejaVuSans-52" x="69.824219"/>
       <use xlink:href="#DejaVuSans-52" x="139.306641"/>
       <use xlink:href="#DejaVuSans-32" x="208.789062"/>
       <use xlink:href="#DejaVuSans-34" x="272.412109"/>
       <use xlink:href="#DejaVuSans-30" x="336.035156"/>
       <use xlink:href="#DejaVuSans-39" x="399.658203"/>
       <use xlink:href="#DejaVuSans-38" x="463.28125"/>
       <use xlink:href="#DejaVuSans-34" x="526.904297"/>
       <use xlink:href="#DejaVuSans-5f" x="590.527344"/>
       <use xlink:href="#DejaVuSans-66" x="640.527344"/>
       <use xlink:href="#DejaVuSans-31" x="675.732422"/>
      </g>
     </g>
    </g>
    <g id="ytick_18">
     <g id="text_27">
      <!-- CRR240984_r2 -->
      <g transform="translate(7.2 431.994837)scale(0.08 -0.08)">
       <use xlink:href="#DejaVuSans-43"/>
       <use xlink:href="#DejaVuSans-52" x="69.824219"/>
       <use xlink:href="#DejaVuSans-52" x="139.306641"/>
       <use xlink:href="#DejaVuSans-32" x="208.789062"/>
       <use xlink:href="#DejaVuSans-34" x="272.412109"/>
       <use xlink:href="#DejaVuSans-30" x="336.035156"/>
       <use xlink:href="#DejaVuSans-39" x="399.658203"/>
       <use xlink:href="#DejaVuSans-38" x="463.28125"/>
       <use xlink:href="#DejaVuSans-34" x="526.904297"/>
       <use xlink:href="#DejaVuSans-5f" x="590.527344"/>
       <use xlink:href="#DejaVuSans-72" x="640.527344"/>
       <use xlink:href="#DejaVuSans-32" x="681.640625"/>
      </g>
     </g>
    </g>
    <g id="ytick_19">
     <g id="text_28">
      <!-- CRR240985_f1 -->
      <g transform="translate(7.6725 456.16981)scale(0.08 -0.08)">
       <use xlink:href="#DejaVuSans-43"/>
       <use xlink:href="#DejaVuSans-52" x="69.824219"/>
       <use xlink:href="#DejaVuSans-52" x="139.306641"/>
       <use xlink:href="#DejaVuSans-32" x="208.789062"/>
       <use xlink:href="#DejaVuSans-34" x="272.412109"/>
       <use xlink:href="#DejaVuSans-30" x="336.035156"/>
       <use xlink:href="#DejaVuSans-39" x="399.658203"/>
       <use xlink:href="#DejaVuSans-38" x="463.28125"/>
       <use xlink:href="#DejaVuSans-35" x="526.904297"/>
       <use xlink:href="#DejaVuSans-5f" x="590.527344"/>
       <use xlink:href="#DejaVuSans-66" x="640.527344"/>
       <use xlink:href="#DejaVuSans-31" x="675.732422"/>
      </g>
     </g>
    </g>
    <g id="ytick_20">
     <g id="text_29">
      <!-- CRR240985_r2 -->
      <g transform="translate(7.2 480.203533)scale(0.08 -0.08)">
       <use xlink:href="#DejaVuSans-43"/>
       <use xlink:href="#DejaVuSans-52" x="69.824219"/>
       <use xlink:href="#DejaVuSans-52" x="139.306641"/>
       <use xlink:href="#DejaVuSans-32" x="208.789062"/>
       <use xlink:href="#DejaVuSans-34" x="272.412109"/>
       <use xlink:href="#DejaVuSans-30" x="336.035156"/>
       <use xlink:href="#DejaVuSans-39" x="399.658203"/>
       <use xlink:href="#DejaVuSans-38" x="463.28125"/>
       <use xlink:href="#DejaVuSans-35" x="526.904297"/>
       <use xlink:href="#DejaVuSans-5f" x="590.527344"/>
       <use xlink:href="#DejaVuSans-72" x="640.527344"/>
       <use xlink:href="#DejaVuSans-32" x="681.640625"/>
      </g>
     </g>
    </g>
    <g id="ytick_21">
     <g id="text_30">
      <!-- CRR240986_f1 -->
      <g transform="translate(7.6725 504.378505)scale(0.08 -0.08)">
       <use xlink:href="#DejaVuSans-43"/>
       <use xlink:href="#DejaVuSans-52" x="69.824219"/>
       <use xlink:href="#DejaVuSans-52" x="139.306641"/>
       <use xlink:href="#DejaVuSans-32" x="208.789062"/>
       <use xlink:href="#DejaVuSans-34" x="272.412109"/>
       <use xlink:href="#DejaVuSans-30" x="336.035156"/>
       <use xlink:href="#DejaVuSans-39" x="399.658203"/>
       <use xlink:href="#DejaVuSans-38" x="463.28125"/>
       <use xlink:href="#DejaVuSans-36" x="526.904297"/>
       <use xlink:href="#DejaVuSans-5f" x="590.527344"/>
       <use xlink:href="#DejaVuSans-66" x="640.527344"/>
       <use xlink:href="#DejaVuSans-31" x="675.732422"/>
      </g>
     </g>
    </g>
    <g id="ytick_22">
     <g id="text_31">
      <!-- CRR240986_r2 -->
      <g transform="translate(7.2 528.412228)scale(0.08 -0.08)">
       <use xlink:href="#DejaVuSans-43"/>
       <use xlink:href="#DejaVuSans-52" x="69.824219"/>
       <use xlink:href="#DejaVuSans-52" x="139.306641"/>
       <use xlink:href="#DejaVuSans-32" x="208.789062"/>
       <use xlink:href="#DejaVuSans-34" x="272.412109"/>
       <use xlink:href="#DejaVuSans-30" x="336.035156"/>
       <use xlink:href="#DejaVuSans-39" x="399.658203"/>
       <use xlink:href="#DejaVuSans-38" x="463.28125"/>
       <use xlink:href="#DejaVuSans-36" x="526.904297"/>
       <use xlink:href="#DejaVuSans-5f" x="590.527344"/>
       <use xlink:href="#DejaVuSans-72" x="640.527344"/>
       <use xlink:href="#DejaVuSans-32" x="681.640625"/>
      </g>
     </g>
    </g>
    <g id="ytick_23">
     <g id="text_32">
      <!-- CRR240987_f1 -->
      <g transform="translate(7.6725 552.587201)scale(0.08 -0.08)">
       <use xlink:href="#DejaVuSans-43"/>
       <use xlink:href="#DejaVuSans-52" x="69.824219"/>
       <use xlink:href="#DejaVuSans-52" x="139.306641"/>
       <use xlink:href="#DejaVuSans-32" x="208.789062"/>
       <use xlink:href="#DejaVuSans-34" x="272.412109"/>
       <use xlink:href="#DejaVuSans-30" x="336.035156"/>
       <use xlink:href="#DejaVuSans-39" x="399.658203"/>
       <use xlink:href="#DejaVuSans-38" x="463.28125"/>
       <use xlink:href="#DejaVuSans-37" x="526.904297"/>
       <use xlink:href="#DejaVuSans-5f" x="590.527344"/>
       <use xlink:href="#DejaVuSans-66" x="640.527344"/>
       <use xlink:href="#DejaVuSans-31" x="675.732422"/>
      </g>
     </g>
    </g>
    <g id="ytick_24">
     <g id="text_33">
      <!-- CRR240987_r2 -->
      <g transform="translate(7.2 576.620924)scale(0.08 -0.08)">
       <use xlink:href="#DejaVuSans-43"/>
       <use xlink:href="#DejaVuSans-52" x="69.824219"/>
       <use xlink:href="#DejaVuSans-52" x="139.306641"/>
       <use xlink:href="#DejaVuSans-32" x="208.789062"/>
       <use xlink:href="#DejaVuSans-34" x="272.412109"/>
       <use xlink:href="#DejaVuSans-30" x="336.035156"/>
       <use xlink:href="#DejaVuSans-39" x="399.658203"/>
       <use xlink:href="#DejaVuSans-38" x="463.28125"/>
       <use xlink:href="#DejaVuSans-37" x="526.904297"/>
       <use xlink:href="#DejaVuSans-5f" x="590.527344"/>
       <use xlink:href="#DejaVuSans-72" x="640.527344"/>
       <use xlink:href="#DejaVuSans-32" x="681.640625"/>
      </g>
     </g>
    </g>
    <g id="ytick_25">
     <g id="text_34">
      <!-- CRR240988_f1 -->
      <g transform="translate(7.6725 600.795897)scale(0.08 -0.08)">
       <use xlink:href="#DejaVuSans-43"/>
       <use xlink:href="#DejaVuSans-52" x="69.824219"/>
       <use xlink:href="#DejaVuSans-52" x="139.306641"/>
       <use xlink:href="#DejaVuSans-32" x="208.789062"/>
       <use xlink:href="#DejaVuSans-34" x="272.412109"/>
       <use xlink:href="#DejaVuSans-30" x="336.035156"/>
       <use xlink:href="#DejaVuSans-39" x="399.658203"/>
       <use xlink:href="#DejaVuSans-38" x="463.28125"/>
       <use xlink:href="#DejaVuSans-38" x="526.904297"/>
       <use xlink:href="#DejaVuSans-5f" x="590.527344"/>
       <use xlink:href="#DejaVuSans-66" x="640.527344"/>
       <use xlink:href="#DejaVuSans-31" x="675.732422"/>
      </g>
     </g>
    </g>
    <g id="ytick_26">
     <g id="text_35">
      <!-- CRR240988_r2 -->
      <g transform="translate(7.2 624.82962)scale(0.08 -0.08)">
       <use xlink:href="#DejaVuSans-43"/>
       <use xlink:href="#DejaVuSans-52" x="69.824219"/>
       <use xlink:href="#DejaVuSans-52" x="139.306641"/>
       <use xlink:href="#DejaVuSans-32" x="208.789062"/>
       <use xlink:href="#DejaVuSans-34" x="272.412109"/>
       <use xlink:href="#DejaVuSans-30" x="336.035156"/>
       <use xlink:href="#DejaVuSans-39" x="399.658203"/>
       <use xlink:href="#DejaVuSans-38" x="463.28125"/>
       <use xlink:href="#DejaVuSans-38" x="526.904297"/>
       <use xlink:href="#DejaVuSans-5f" x="590.527344"/>
       <use xlink:href="#DejaVuSans-72" x="640.527344"/>
       <use xlink:href="#DejaVuSans-32" x="681.640625"/>
      </g>
     </g>
    </g>
    <g id="ytick_27">
     <g id="text_36">
      <!-- CRR240989_f1 -->
      <g transform="translate(7.6725 649.004592)scale(0.08 -0.08)">
       <use xlink:href="#DejaVuSans-43"/>
       <use xlink:href="#DejaVuSans-52" x="69.824219"/>
       <use xlink:href="#DejaVuSans-52" x="139.306641"/>
       <use xlink:href="#DejaVuSans-32" x="208.789062"/>
       <use xlink:href="#DejaVuSans-34" x="272.412109"/>
       <use xlink:href="#DejaVuSans-30" x="336.035156"/>
       <use xlink:href="#DejaVuSans-39" x="399.658203"/>
       <use xlink:href="#DejaVuSans-38" x="463.28125"/>
       <use xlink:href="#DejaVuSans-39" x="526.904297"/>
       <use xlink:href="#DejaVuSans-5f" x="590.527344"/>
       <use xlink:href="#DejaVuSans-66" x="640.527344"/>
       <use xlink:href="#DejaVuSans-31" x="675.732422"/>
      </g>
     </g>
    </g>
    <g id="ytick_28">
     <g id="text_37">
      <!-- CRR240989_r2 -->
      <g transform="translate(7.2 673.038315)scale(0.08 -0.08)">
       <use xlink:href="#DejaVuSans-43"/>
       <use xlink:href="#DejaVuSans-52" x="69.824219"/>
       <use xlink:href="#DejaVuSans-52" x="139.306641"/>
       <use xlink:href="#DejaVuSans-32" x="208.789062"/>
       <use xlink:href="#DejaVuSans-34" x="272.412109"/>
       <use xlink:href="#DejaVuSans-30" x="336.035156"/>
       <use xlink:href="#DejaVuSans-39" x="399.658203"/>
       <use xlink:href="#DejaVuSans-38" x="463.28125"/>
       <use xlink:href="#DejaVuSans-39" x="526.904297"/>
       <use xlink:href="#DejaVuSans-5f" x="590.527344"/>
       <use xlink:href="#DejaVuSans-72" x="640.527344"/>
       <use xlink:href="#DejaVuSans-32" x="681.640625"/>
      </g>
     </g>
    </g>
    <g id="ytick_29">
     <g id="text_38">
      <!-- CRR240990_f1 -->
      <g transform="translate(7.6725 697.213288)scale(0.08 -0.08)">
       <use xlink:href="#DejaVuSans-43"/>
       <use xlink:href="#DejaVuSans-52" x="69.824219"/>
       <use xlink:href="#DejaVuSans-52" x="139.306641"/>
       <use xlink:href="#DejaVuSans-32" x="208.789062"/>
       <use xlink:href="#DejaVuSans-34" x="272.412109"/>
       <use xlink:href="#DejaVuSans-30" x="336.035156"/>
       <use xlink:href="#DejaVuSans-39" x="399.658203"/>
       <use xlink:href="#DejaVuSans-39" x="463.28125"/>
       <use xlink:href="#DejaVuSans-30" x="526.904297"/>
       <use xlink:href="#DejaVuSans-5f" x="590.527344"/>
       <use xlink:href="#DejaVuSans-66" x="640.527344"/>
       <use xlink:href="#DejaVuSans-31" x="675.732422"/>
      </g>
     </g>
    </g>
    <g id="ytick_30">
     <g id="text_39">
      <!-- CRR240990_r2 -->
      <g transform="translate(7.2 721.247011)scale(0.08 -0.08)">
       <use xlink:href="#DejaVuSans-43"/>
       <use xlink:href="#DejaVuSans-52" x="69.824219"/>
       <use xlink:href="#DejaVuSans-52" x="139.306641"/>
       <use xlink:href="#DejaVuSans-32" x="208.789062"/>
       <use xlink:href="#DejaVuSans-34" x="272.412109"/>
       <use xlink:href="#DejaVuSans-30" x="336.035156"/>
       <use xlink:href="#DejaVuSans-39" x="399.658203"/>
       <use xlink:href="#DejaVuSans-39" x="463.28125"/>
       <use xlink:href="#DejaVuSans-30" x="526.904297"/>
       <use xlink:href="#DejaVuSans-5f" x="590.527344"/>
       <use xlink:href="#DejaVuSans-72" x="640.527344"/>
       <use xlink:href="#DejaVuSans-32" x="681.640625"/>
      </g>
     </g>
    </g>
    <g id="ytick_31">
     <g id="text_40">
      <!-- CRR240991_f1 -->
      <g transform="translate(7.6725 745.421984)scale(0.08 -0.08)">
       <use xlink:href="#DejaVuSans-43"/>
       <use xlink:href="#DejaVuSans-52" x="69.824219"/>
       <use xlink:href="#DejaVuSans-52" x="139.306641"/>
       <use xlink:href="#DejaVuSans-32" x="208.789062"/>
       <use xlink:href="#DejaVuSans-34" x="272.412109"/>
       <use xlink:href="#DejaVuSans-30" x="336.035156"/>
       <use xlink:href="#DejaVuSans-39" x="399.658203"/>
       <use xlink:href="#DejaVuSans-39" x="463.28125"/>
       <use xlink:href="#DejaVuSans-31" x="526.904297"/>
       <use xlink:href="#DejaVuSans-5f" x="590.527344"/>
       <use xlink:href="#DejaVuSans-66" x="640.527344"/>
       <use xlink:href="#DejaVuSans-31" x="675.732422"/>
      </g>
     </g>
    </g>
    <g id="ytick_32">
     <g id="text_41">
      <!-- CRR240991_r2 -->
      <g transform="translate(7.2 769.455707)scale(0.08 -0.08)">
       <use xlink:href="#DejaVuSans-43"/>
       <use xlink:href="#DejaVuSans-52" x="69.824219"/>
       <use xlink:href="#DejaVuSans-52" x="139.306641"/>
       <use xlink:href="#DejaVuSans-32" x="208.789062"/>
       <use xlink:href="#DejaVuSans-34" x="272.412109"/>
       <use xlink:href="#DejaVuSans-30" x="336.035156"/>
       <use xlink:href="#DejaVuSans-39" x="399.658203"/>
       <use xlink:href="#DejaVuSans-39" x="463.28125"/>
       <use xlink:href="#DejaVuSans-31" x="526.904297"/>
       <use xlink:href="#DejaVuSans-5f" x="590.527344"/>
       <use xlink:href="#DejaVuSans-72" x="640.527344"/>
       <use xlink:href="#DejaVuSans-32" x="681.640625"/>
      </g>
     </g>
    </g>
    <g id="ytick_33">
     <g id="text_42">
      <!-- CRR240992_f1 -->
      <g transform="translate(7.6725 793.630679)scale(0.08 -0.08)">
       <use xlink:href="#DejaVuSans-43"/>
       <use xlink:href="#DejaVuSans-52" x="69.824219"/>
       <use xlink:href="#DejaVuSans-52" x="139.306641"/>
       <use xlink:href="#DejaVuSans-32" x="208.789062"/>
       <use xlink:href="#DejaVuSans-34" x="272.412109"/>
       <use xlink:href="#DejaVuSans-30" x="336.035156"/>
       <use xlink:href="#DejaVuSans-39" x="399.658203"/>
       <use xlink:href="#DejaVuSans-39" x="463.28125"/>
       <use xlink:href="#DejaVuSans-32" x="526.904297"/>
       <use xlink:href="#DejaVuSans-5f" x="590.527344"/>
       <use xlink:href="#DejaVuSans-66" x="640.527344"/>
       <use xlink:href="#DejaVuSans-31" x="675.732422"/>
      </g>
     </g>
    </g>
    <g id="ytick_34">
     <g id="text_43">
      <!-- CRR240992_r2 -->
      <g transform="translate(7.2 817.664402)scale(0.08 -0.08)">
       <use xlink:href="#DejaVuSans-43"/>
       <use xlink:href="#DejaVuSans-52" x="69.824219"/>
       <use xlink:href="#DejaVuSans-52" x="139.306641"/>
       <use xlink:href="#DejaVuSans-32" x="208.789062"/>
       <use xlink:href="#DejaVuSans-34" x="272.412109"/>
       <use xlink:href="#DejaVuSans-30" x="336.035156"/>
       <use xlink:href="#DejaVuSans-39" x="399.658203"/>
       <use xlink:href="#DejaVuSans-39" x="463.28125"/>
       <use xlink:href="#DejaVuSans-32" x="526.904297"/>
       <use xlink:href="#DejaVuSans-5f" x="590.527344"/>
       <use xlink:href="#DejaVuSans-72" x="640.527344"/>
       <use xlink:href="#DejaVuSans-32" x="681.640625"/>
      </g>
     </g>
    </g>
    <g id="ytick_35">
     <g id="text_44">
      <!-- CRR240993_f1 -->
      <g transform="translate(7.6725 841.839375)scale(0.08 -0.08)">
       <use xlink:href="#DejaVuSans-43"/>
       <use xlink:href="#DejaVuSans-52" x="69.824219"/>
       <use xlink:href="#DejaVuSans-52" x="139.306641"/>
       <use xlink:href="#DejaVuSans-32" x="208.789062"/>
       <use xlink:href="#DejaVuSans-34" x="272.412109"/>
       <use xlink:href="#DejaVuSans-30" x="336.035156"/>
       <use xlink:href="#DejaVuSans-39" x="399.658203"/>
       <use xlink:href="#DejaVuSans-39" x="463.28125"/>
       <use xlink:href="#DejaVuSans-33" x="526.904297"/>
       <use xlink:href="#DejaVuSans-5f" x="590.527344"/>
       <use xlink:href="#DejaVuSans-66" x="640.527344"/>
       <use xlink:href="#DejaVuSans-31" x="675.732422"/>
      </g>
     </g>
    </g>
    <g id="ytick_36">
     <g id="text_45">
      <!-- CRR240993_r2 -->
      <g transform="translate(7.2 865.873098)scale(0.08 -0.08)">
       <use xlink:href="#DejaVuSans-43"/>
       <use xlink:href="#DejaVuSans-52" x="69.824219"/>
       <use xlink:href="#DejaVuSans-52" x="139.306641"/>
       <use xlink:href="#DejaVuSans-32" x="208.789062"/>
       <use xlink:href="#DejaVuSans-34" x="272.412109"/>
       <use xlink:href="#DejaVuSans-30" x="336.035156"/>
       <use xlink:href="#DejaVuSans-39" x="399.658203"/>
       <use xlink:href="#DejaVuSans-39" x="463.28125"/>
       <use xlink:href="#DejaVuSans-33" x="526.904297"/>
       <use xlink:href="#DejaVuSans-5f" x="590.527344"/>
       <use xlink:href="#DejaVuSans-72" x="640.527344"/>
       <use xlink:href="#DejaVuSans-32" x="681.640625"/>
      </g>
     </g>
    </g>
   </g>
   <g id="patch_2">
    <path d="M 73.8225 9.610435 
L 123.007235 9.610435 
L 123.007235 28.893913 
L 73.8225 28.893913 
z
" clip-path="url(#p34f112db01)" style="fill: #7cb5ec"/>
   </g>
   <g id="patch_3">
    <path d="M 73.8225 33.714783 
L 202.076085 33.714783 
L 202.076085 52.998261 
L 73.8225 52.998261 
z
" clip-path="url(#p34f112db01)" style="fill: #7cb5ec"/>
   </g>
   <g id="patch_4">
    <path d="M 73.8225 57.81913 
L 157.576772 57.81913 
L 157.576772 77.102609 
L 73.8225 77.102609 
z
" clip-path="url(#p34f112db01)" style="fill: #7cb5ec"/>
   </g>
   <g id="patch_5">
    <path d="M 73.8225 81.923478 
L 270.94139 81.923478 
L 270.94139 101.206957 
L 73.8225 101.206957 
z
" clip-path="url(#p34f112db01)" style="fill: #7cb5ec"/>
   </g>
   <g id="patch_6">
    <path d="M 73.8225 106.027826 
L 122.190237 106.027826 
L 122.190237 125.311304 
L 73.8225 125.311304 
z
" clip-path="url(#p34f112db01)" style="fill: #7cb5ec"/>
   </g>
   <g id="patch_7">
    <path d="M 73.8225 130.132174 
L 188.038165 130.132174 
L 188.038165 149.415652 
L 73.8225 149.415652 
z
" clip-path="url(#p34f112db01)" style="fill: #7cb5ec"/>
   </g>
   <g id="patch_8">
    <path d="M 73.8225 154.236522 
L 173.260604 154.236522 
L 173.260604 173.52 
L 73.8225 173.52 
z
" clip-path="url(#p34f112db01)" style="fill: #7cb5ec"/>
   </g>
   <g id="patch_9">
    <path d="M 73.8225 178.34087 
L 310.55186 178.34087 
L 310.55186 197.624348 
L 73.8225 197.624348 
z
" clip-path="url(#p34f112db01)" style="fill: #7cb5ec"/>
   </g>
   <g id="patch_10">
    <path d="M 73.8225 202.445217 
L 171.188743 202.445217 
L 171.188743 221.728696 
L 73.8225 221.728696 
z
" clip-path="url(#p34f112db01)" style="fill: #7cb5ec"/>
   </g>
   <g id="patch_11">
    <path d="M 73.8225 226.549565 
L 253.411403 226.549565 
L 253.411403 245.833043 
L 73.8225 245.833043 
z
" clip-path="url(#p34f112db01)" style="fill: #7cb5ec"/>
   </g>
   <g id="patch_12">
    <path d="M 73.8225 250.653913 
L 73.8225 250.653913 
L 73.8225 269.937391 
L 73.8225 269.937391 
z
" clip-path="url(#p34f112db01)" style="fill: #7cb5ec"/>
   </g>
   <g id="patch_13">
    <path d="M 73.8225 274.758261 
L 73.8225 274.758261 
L 73.8225 294.041739 
L 73.8225 294.041739 
z
" clip-path="url(#p34f112db01)" style="fill: #7cb5ec"/>
   </g>
   <g id="patch_14">
    <path d="M 73.8225 298.862609 
L 142.210441 298.862609 
L 142.210441 318.146087 
L 73.8225 318.146087 
z
" clip-path="url(#p34f112db01)" style="fill: #7cb5ec"/>
   </g>
   <g id="patch_15">
    <path d="M 73.8225 322.966957 
L 160.41172 322.966957 
L 160.41172 342.250435 
L 73.8225 342.250435 
z
" clip-path="url(#p34f112db01)" style="fill: #7cb5ec"/>
   </g>
   <g id="patch_16">
    <path d="M 73.8225 347.071304 
L 124.257394 347.071304 
L 124.257394 366.354783 
L 73.8225 366.354783 
z
" clip-path="url(#p34f112db01)" style="fill: #7cb5ec"/>
   </g>
   <g id="patch_17">
    <path d="M 73.8225 371.175652 
L 147.171811 371.175652 
L 147.171811 390.45913 
L 73.8225 390.45913 
z
" clip-path="url(#p34f112db01)" style="fill: #7cb5ec"/>
   </g>
   <g id="patch_18">
    <path d="M 73.8225 395.28 
L 153.369532 395.28 
L 153.369532 414.563478 
L 73.8225 414.563478 
z
" clip-path="url(#p34f112db01)" style="fill: #7cb5ec"/>
   </g>
   <g id="patch_19">
    <path d="M 73.8225 419.384348 
L 166.688135 419.384348 
L 166.688135 438.667826 
L 73.8225 438.667826 
z
" clip-path="url(#p34f112db01)" style="fill: #7cb5ec"/>
   </g>
   <g id="patch_20">
    <path d="M 73.8225 443.488696 
L 130.194325 443.488696 
L 130.194325 462.772174 
L 73.8225 462.772174 
z
" clip-path="url(#p34f112db01)" style="fill: #7cb5ec"/>
   </g>
   <g id="patch_21">
    <path d="M 73.8225 467.593043 
L 229.619292 467.593043 
L 229.619292 486.876522 
L 73.8225 486.876522 
z
" clip-path="url(#p34f112db01)" style="fill: #7cb5ec"/>
   </g>
   <g id="patch_22">
    <path d="M 73.8225 491.697391 
L 73.8225 491.697391 
L 73.8225 510.98087 
L 73.8225 510.98087 
z
" clip-path="url(#p34f112db01)" style="fill: #7cb5ec"/>
   </g>
   <g id="patch_23">
    <path d="M 73.8225 515.801739 
L 173.501674 515.801739 
L 173.501674 535.085217 
L 73.8225 535.085217 
z
" clip-path="url(#p34f112db01)" style="fill: #7cb5ec"/>
   </g>
   <g id="patch_24">
    <path d="M 73.8225 539.906087 
L 73.8225 539.906087 
L 73.8225 559.189565 
L 73.8225 559.189565 
z
" clip-path="url(#p34f112db01)" style="fill: #7cb5ec"/>
   </g>
   <g id="patch_25">
    <path d="M 73.8225 564.010435 
L 167.833765 564.010435 
L 167.833765 583.293913 
L 73.8225 583.293913 
z
" clip-path="url(#p34f112db01)" style="fill: #7cb5ec"/>
   </g>
   <g id="patch_26">
    <path d="M 73.8225 588.114783 
L 148.852316 588.114783 
L 148.852316 607.398261 
L 73.8225 607.398261 
z
" clip-path="url(#p34f112db01)" style="fill: #7cb5ec"/>
   </g>
   <g id="patch_27">
    <path d="M 73.8225 612.21913 
L 205.633347 612.21913 
L 205.633347 631.502609 
L 73.8225 631.502609 
z
" clip-path="url(#p34f112db01)" style="fill: #7cb5ec"/>
   </g>
   <g id="patch_28">
    <path d="M 73.8225 636.323478 
L 169.601447 636.323478 
L 169.601447 655.606957 
L 73.8225 655.606957 
z
" clip-path="url(#p34f112db01)" style="fill: #7cb5ec"/>
   </g>
   <g id="patch_29">
    <path d="M 73.8225 660.427826 
L 247.641205 660.427826 
L 247.641205 679.711304 
L 73.8225 679.711304 
z
" clip-path="url(#p34f112db01)" style="fill: #7cb5ec"/>
   </g>
   <g id="patch_30">
    <path d="M 73.8225 684.532174 
L 73.8225 684.532174 
L 73.8225 703.815652 
L 73.8225 703.815652 
z
" clip-path="url(#p34f112db01)" style="fill: #7cb5ec"/>
   </g>
   <g id="patch_31">
    <path d="M 73.8225 708.636522 
L 203.401647 708.636522 
L 203.401647 727.92 
L 73.8225 727.92 
z
" clip-path="url(#p34f112db01)" style="fill: #7cb5ec"/>
   </g>
   <g id="patch_32">
    <path d="M 73.8225 732.74087 
L 151.419163 732.74087 
L 151.419163 752.024348 
L 73.8225 752.024348 
z
" clip-path="url(#p34f112db01)" style="fill: #7cb5ec"/>
   </g>
   <g id="patch_33">
    <path d="M 73.8225 756.845217 
L 188.573368 756.845217 
L 188.573368 776.128696 
L 73.8225 776.128696 
z
" clip-path="url(#p34f112db01)" style="fill: #7cb5ec"/>
   </g>
   <g id="patch_34">
    <path d="M 73.8225 780.949565 
L 164.778355 780.949565 
L 164.778355 800.233043 
L 73.8225 800.233043 
z
" clip-path="url(#p34f112db01)" style="fill: #7cb5ec"/>
   </g>
   <g id="patch_35">
    <path d="M 73.8225 805.053913 
L 231.170292 805.053913 
L 231.170292 824.337391 
L 73.8225 824.337391 
z
" clip-path="url(#p34f112db01)" style="fill: #7cb5ec"/>
   </g>
   <g id="patch_36">
    <path d="M 73.8225 829.158261 
L 120.605752 829.158261 
L 120.605752 848.441739 
L 73.8225 848.441739 
z
" clip-path="url(#p34f112db01)" style="fill: #7cb5ec"/>
   </g>
   <g id="patch_37">
    <path d="M 73.8225 853.262609 
L 209.500543 853.262609 
L 209.500543 872.546087 
L 73.8225 872.546087 
z
" clip-path="url(#p34f112db01)" style="fill: #7cb5ec"/>
   </g>
   <g id="patch_38">
    <path d="M 123.007235 9.610435 
L 167.432983 9.610435 
L 167.432983 28.893913 
L 123.007235 28.893913 
z
" clip-path="url(#p34f112db01)" style="fill: #434348"/>
   </g>
   <g id="patch_39">
    <path d="M 202.076085 33.714783 
L 362.416546 33.714783 
L 362.416546 52.998261 
L 202.076085 52.998261 
z
" clip-path="url(#p34f112db01)" style="fill: #434348"/>
   </g>
   <g id="patch_40">
    <path d="M 157.576772 57.81913 
L 499.115235 57.81913 
L 499.115235 77.102609 
L 157.576772 77.102609 
z
" clip-path="url(#p34f112db01)" style="fill: #434348"/>
   </g>
   <g id="patch_41">
    <path d="M 270.94139 81.923478 
L 718.368829 81.923478 
L 718.368829 101.206957 
L 270.94139 101.206957 
z
" clip-path="url(#p34f112db01)" style="fill: #434348"/>
   </g>
   <g id="patch_42">
    <path d="M 122.190237 106.027826 
L 167.237394 106.027826 
L 167.237394 125.311304 
L 122.190237 125.311304 
z
" clip-path="url(#p34f112db01)" style="fill: #434348"/>
   </g>
   <g id="patch_43">
    <path d="M 188.038165 130.132174 
L 386.330105 130.132174 
L 386.330105 149.415652 
L 188.038165 149.415652 
z
" clip-path="url(#p34f112db01)" style="fill: #434348"/>
   </g>
   <g id="patch_44">
    <path d="M 173.260604 154.236522 
L 524.954248 154.236522 
L 524.954248 173.52 
L 173.260604 173.52 
z
" clip-path="url(#p34f112db01)" style="fill: #434348"/>
   </g>
   <g id="patch_45">
    <path d="M 310.55186 178.34087 
L 817.8225 178.34087 
L 817.8225 197.624348 
L 310.55186 197.624348 
z
" clip-path="url(#p34f112db01)" style="fill: #434348"/>
   </g>
   <g id="patch_46">
    <path d="M 171.188743 202.445217 
L 367.346 202.445217 
L 367.346 221.728696 
L 171.188743 221.728696 
z
" clip-path="url(#p34f112db01)" style="fill: #434348"/>
   </g>
   <g id="patch_47">
    <path d="M 253.411403 226.549565 
L 511.746114 226.549565 
L 511.746114 245.833043 
L 253.411403 245.833043 
z
" clip-path="url(#p34f112db01)" style="fill: #434348"/>
   </g>
   <g id="patch_48">
    <path d="M 73.8225 250.653913 
L 73.8225 250.653913 
L 73.8225 269.937391 
L 73.8225 269.937391 
z
" clip-path="url(#p34f112db01)" style="fill: #434348"/>
   </g>
   <g id="patch_49">
    <path d="M 73.8225 274.758261 
L 73.8225 274.758261 
L 73.8225 294.041739 
L 73.8225 294.041739 
z
" clip-path="url(#p34f112db01)" style="fill: #434348"/>
   </g>
   <g id="patch_50">
    <path d="M 142.210441 298.862609 
L 380.351632 298.862609 
L 380.351632 318.146087 
L 142.210441 318.146087 
z
" clip-path="url(#p34f112db01)" style="fill: #434348"/>
   </g>
   <g id="patch_51">
    <path d="M 160.41172 322.966957 
L 510.590178 322.966957 
L 510.590178 342.250435 
L 160.41172 342.250435 
z
" clip-path="url(#p34f112db01)" style="fill: #434348"/>
   </g>
   <g id="patch_52">
    <path d="M 124.257394 347.071304 
L 308.423229 347.071304 
L 308.423229 366.354783 
L 124.257394 366.354783 
z
" clip-path="url(#p34f112db01)" style="fill: #434348"/>
   </g>
   <g id="patch_53">
    <path d="M 147.171811 371.175652 
L 451.313257 371.175652 
L 451.313257 390.45913 
L 147.171811 390.45913 
z
" clip-path="url(#p34f112db01)" style="fill: #434348"/>
   </g>
   <g id="patch_54">
    <path d="M 153.369532 395.28 
L 416.408224 395.28 
L 416.408224 414.563478 
L 153.369532 414.563478 
z
" clip-path="url(#p34f112db01)" style="fill: #434348"/>
   </g>
   <g id="patch_55">
    <path d="M 166.688135 419.384348 
L 633.187092 419.384348 
L 633.187092 438.667826 
L 166.688135 438.667826 
z
" clip-path="url(#p34f112db01)" style="fill: #434348"/>
   </g>
   <g id="patch_56">
    <path d="M 130.194325 443.488696 
L 236.007575 443.488696 
L 236.007575 462.772174 
L 130.194325 462.772174 
z
" clip-path="url(#p34f112db01)" style="fill: #434348"/>
   </g>
   <g id="patch_57">
    <path d="M 229.619292 467.593043 
L 335.129693 467.593043 
L 335.129693 486.876522 
L 229.619292 486.876522 
z
" clip-path="url(#p34f112db01)" style="fill: #434348"/>
   </g>
   <g id="patch_58">
    <path d="M 73.8225 491.697391 
L 73.8225 491.697391 
L 73.8225 510.98087 
L 73.8225 510.98087 
z
" clip-path="url(#p34f112db01)" style="fill: #434348"/>
   </g>
   <g id="patch_59">
    <path d="M 173.501674 515.801739 
L 173.501674 515.801739 
L 173.501674 535.085217 
L 173.501674 535.085217 
z
" clip-path="url(#p34f112db01)" style="fill: #434348"/>
   </g>
   <g id="patch_60">
    <path d="M 73.8225 539.906087 
L 73.8225 539.906087 
L 73.8225 559.189565 
L 73.8225 559.189565 
z
" clip-path="url(#p34f112db01)" style="fill: #434348"/>
   </g>
   <g id="patch_61">
    <path d="M 167.833765 564.010435 
L 167.833765 564.010435 
L 167.833765 583.293913 
L 167.833765 583.293913 
z
" clip-path="url(#p34f112db01)" style="fill: #434348"/>
   </g>
   <g id="patch_62">
    <path d="M 148.852316 588.114783 
L 405.358967 588.114783 
L 405.358967 607.398261 
L 148.852316 607.398261 
z
" clip-path="url(#p34f112db01)" style="fill: #434348"/>
   </g>
   <g id="patch_63">
    <path d="M 205.633347 612.21913 
L 510.406619 612.21913 
L 510.406619 631.502609 
L 205.633347 631.502609 
z
" clip-path="url(#p34f112db01)" style="fill: #434348"/>
   </g>
   <g id="patch_64">
    <path d="M 169.601447 636.323478 
L 262.721439 636.323478 
L 262.721439 655.606957 
L 169.601447 655.606957 
z
" clip-path="url(#p34f112db01)" style="fill: #434348"/>
   </g>
   <g id="patch_65">
    <path d="M 247.641205 660.427826 
L 809.773671 660.427826 
L 809.773671 679.711304 
L 247.641205 679.711304 
z
" clip-path="url(#p34f112db01)" style="fill: #434348"/>
   </g>
   <g id="patch_66">
    <path d="M 73.8225 684.532174 
L 73.8225 684.532174 
L 73.8225 703.815652 
L 73.8225 703.815652 
z
" clip-path="url(#p34f112db01)" style="fill: #434348"/>
   </g>
   <g id="patch_67">
    <path d="M 203.401647 708.636522 
L 305.050903 708.636522 
L 305.050903 727.92 
L 203.401647 727.92 
z
" clip-path="url(#p34f112db01)" style="fill: #434348"/>
   </g>
   <g id="patch_68">
    <path d="M 151.419163 732.74087 
L 201.323037 732.74087 
L 201.323037 752.024348 
L 151.419163 752.024348 
z
" clip-path="url(#p34f112db01)" style="fill: #434348"/>
   </g>
   <g id="patch_69">
    <path d="M 188.573368 756.845217 
L 466.882252 756.845217 
L 466.882252 776.128696 
L 188.573368 776.128696 
z
" clip-path="url(#p34f112db01)" style="fill: #434348"/>
   </g>
   <g id="patch_70">
    <path d="M 164.778355 780.949565 
L 315.052605 780.949565 
L 315.052605 800.233043 
L 164.778355 800.233043 
z
" clip-path="url(#p34f112db01)" style="fill: #434348"/>
   </g>
   <g id="patch_71">
    <path d="M 231.170292 805.053913 
L 672.838755 805.053913 
L 672.838755 824.337391 
L 231.170292 824.337391 
z
" clip-path="url(#p34f112db01)" style="fill: #434348"/>
   </g>
   <g id="patch_72">
    <path d="M 120.605752 829.158261 
L 120.605752 829.158261 
L 120.605752 848.441739 
L 120.605752 848.441739 
z
" clip-path="url(#p34f112db01)" style="fill: #434348"/>
   </g>
   <g id="patch_73">
    <path d="M 209.500543 853.262609 
L 317.784549 853.262609 
L 317.784549 872.546087 
L 209.500543 872.546087 
z
" clip-path="url(#p34f112db01)" style="fill: #434348"/>
   </g>
   <g id="text_46">
    <!-- FastQC: Overrepresented sequences -->
    <g transform="translate(318.41875 -20.52)scale(0.16 -0.16)">
     <defs>
      <path id="DejaVuSans-46" d="M 628 4666 
L 3309 4666 
L 3309 4134 
L 1259 4134 
L 1259 2759 
L 3109 2759 
L 3109 2228 
L 1259 2228 
L 1259 0 
L 628 0 
L 628 4666 
z
" transform="scale(0.015625)"/>
      <path id="DejaVuSans-51" d="M 2522 4238 
Q 1834 4238 1429 3725 
Q 1025 3213 1025 2328 
Q 1025 1447 1429 934 
Q 1834 422 2522 422 
Q 3209 422 3611 934 
Q 4013 1447 4013 2328 
Q 4013 3213 3611 3725 
Q 3209 4238 2522 4238 
z
M 3406 84 
L 4238 -825 
L 3475 -825 
L 2784 -78 
Q 2681 -84 2626 -87 
Q 2572 -91 2522 -91 
Q 1538 -91 948 567 
Q 359 1225 359 2328 
Q 359 3434 948 4092 
Q 1538 4750 2522 4750 
Q 3503 4750 4090 4092 
Q 4678 3434 4678 2328 
Q 4678 1516 4351 937 
Q 4025 359 3406 84 
z
" transform="scale(0.015625)"/>
      <path id="DejaVuSans-3a" d="M 750 794 
L 1409 794 
L 1409 0 
L 750 0 
L 750 794 
z
M 750 3309 
L 1409 3309 
L 1409 2516 
L 750 2516 
L 750 3309 
z
" transform="scale(0.015625)"/>
      <path id="DejaVuSans-4f" d="M 2522 4238 
Q 1834 4238 1429 3725 
Q 1025 3213 1025 2328 
Q 1025 1447 1429 934 
Q 1834 422 2522 422 
Q 3209 422 3611 934 
Q 4013 1447 4013 2328 
Q 4013 3213 3611 3725 
Q 3209 4238 2522 4238 
z
M 2522 4750 
Q 3503 4750 4090 4092 
Q 4678 3434 4678 2328 
Q 4678 1225 4090 567 
Q 3503 -91 2522 -91 
Q 1538 -91 948 565 
Q 359 1222 359 2328 
Q 359 3434 948 4092 
Q 1538 4750 2522 4750 
z
" transform="scale(0.015625)"/>
      <path id="DejaVuSans-76" d="M 191 3500 
L 800 3500 
L 1894 563 
L 2988 3500 
L 3597 3500 
L 2284 0 
L 1503 0 
L 191 3500 
z
" transform="scale(0.015625)"/>
      <path id="DejaVuSans-70" d="M 1159 525 
L 1159 -1331 
L 581 -1331 
L 581 3500 
L 1159 3500 
L 1159 2969 
Q 1341 3281 1617 3432 
Q 1894 3584 2278 3584 
Q 2916 3584 3314 3078 
Q 3713 2572 3713 1747 
Q 3713 922 3314 415 
Q 2916 -91 2278 -91 
Q 1894 -91 1617 61 
Q 1341 213 1159 525 
z
M 3116 1747 
Q 3116 2381 2855 2742 
Q 2594 3103 2138 3103 
Q 1681 3103 1420 2742 
Q 1159 2381 1159 1747 
Q 1159 1113 1420 752 
Q 1681 391 2138 391 
Q 2594 391 2855 752 
Q 3116 1113 3116 1747 
z
" transform="scale(0.015625)"/>
      <path id="DejaVuSans-64" d="M 2906 2969 
L 2906 4863 
L 3481 4863 
L 3481 0 
L 2906 0 
L 2906 525 
Q 2725 213 2448 61 
Q 2172 -91 1784 -91 
Q 1150 -91 751 415 
Q 353 922 353 1747 
Q 353 2572 751 3078 
Q 1150 3584 1784 3584 
Q 2172 3584 2448 3432 
Q 2725 3281 2906 2969 
z
M 947 1747 
Q 947 1113 1208 752 
Q 1469 391 1925 391 
Q 2381 391 2643 752 
Q 2906 1113 2906 1747 
Q 2906 2381 2643 2742 
Q 2381 3103 1925 3103 
Q 1469 3103 1208 2742 
Q 947 2381 947 1747 
z
" transform="scale(0.015625)"/>
     </defs>
     <use xlink:href="#DejaVuSans-46"/>
     <use xlink:href="#DejaVuSans-61" x="48.394531"/>
     <use xlink:href="#DejaVuSans-73" x="109.673828"/>
     <use xlink:href="#DejaVuSans-74" x="161.773438"/>
     <use xlink:href="#DejaVuSans-51" x="200.982422"/>
     <use xlink:href="#DejaVuSans-43" x="279.693359"/>
     <use xlink:href="#DejaVuSans-3a" x="349.517578"/>
     <use xlink:href="#DejaVuSans-20" x="383.208984"/>
     <use xlink:href="#DejaVuSans-4f" x="414.996094"/>
     <use xlink:href="#DejaVuSans-76" x="493.707031"/>
     <use xlink:href="#DejaVuSans-65" x="552.886719"/>
     <use xlink:href="#DejaVuSans-72" x="614.410156"/>
     <use xlink:href="#DejaVuSans-72" x="653.773438"/>
     <use xlink:href="#DejaVuSans-65" x="692.636719"/>
     <use xlink:href="#DejaVuSans-70" x="754.160156"/>
     <use xlink:href="#DejaVuSans-72" x="817.636719"/>
     <use xlink:href="#DejaVuSans-65" x="856.5"/>
     <use xlink:href="#DejaVuSans-73" x="918.023438"/>
     <use xlink:href="#DejaVuSans-65" x="970.123047"/>
     <use xlink:href="#DejaVuSans-6e" x="1031.646484"/>
     <use xlink:href="#DejaVuSans-74" x="1095.025391"/>
     <use xlink:href="#DejaVuSans-65" x="1134.234375"/>
     <use xlink:href="#DejaVuSans-64" x="1195.757812"/>
     <use xlink:href="#DejaVuSans-20" x="1259.234375"/>
     <use xlink:href="#DejaVuSans-73" x="1291.021484"/>
     <use xlink:href="#DejaVuSans-65" x="1343.121094"/>
     <use xlink:href="#DejaVuSans-71" x="1404.644531"/>
     <use xlink:href="#DejaVuSans-75" x="1468.121094"/>
     <use xlink:href="#DejaVuSans-65" x="1531.5"/>
     <use xlink:href="#DejaVuSans-6e" x="1593.023438"/>
     <use xlink:href="#DejaVuSans-63" x="1656.402344"/>
     <use xlink:href="#DejaVuSans-65" x="1711.382812"/>
     <use xlink:href="#DejaVuSans-73" x="1772.90625"/>
    </g>
   </g>
   <g id="legend_1">
    <g id="patch_74">
     <path d="M 81.0225 949.252772 
L 97.0225 949.252772 
L 97.0225 943.652772 
L 81.0225 943.652772 
z
" style="fill: #7cb5ec"/>
    </g>
    <g id="text_47">
     <!-- Top over-represented sequence -->
     <g transform="translate(103.4225 949.252772)scale(0.08 -0.08)">
      <defs>
       <path id="DejaVuSans-2d" d="M 313 2009 
L 1997 2009 
L 1997 1497 
L 313 1497 
L 313 2009 
z
" transform="scale(0.015625)"/>
      </defs>
      <use xlink:href="#DejaVuSans-54"/>
      <use xlink:href="#DejaVuSans-6f" x="44.083984"/>
      <use xlink:href="#DejaVuSans-70" x="105.265625"/>
      <use xlink:href="#DejaVuSans-20" x="168.742188"/>
      <use xlink:href="#DejaVuSans-6f" x="200.529297"/>
      <use xlink:href="#DejaVuSans-76" x="261.710938"/>
      <use xlink:href="#DejaVuSans-65" x="320.890625"/>
      <use xlink:href="#DejaVuSans-72" x="382.414062"/>
      <use xlink:href="#DejaVuSans-2d" x="417.152344"/>
      <use xlink:href="#DejaVuSans-72" x="453.236328"/>
      <use xlink:href="#DejaVuSans-65" x="492.099609"/>
      <use xlink:href="#DejaVuSans-70" x="553.623047"/>
      <use xlink:href="#DejaVuSans-72" x="617.099609"/>
      <use xlink:href="#DejaVuSans-65" x="655.962891"/>
      <use xlink:href="#DejaVuSans-73" x="717.486328"/>
      <use xlink:href="#DejaVuSans-65" x="769.585938"/>
      <use xlink:href="#DejaVuSans-6e" x="831.109375"/>
      <use xlink:href="#DejaVuSans-74" x="894.488281"/>
      <use xlink:href="#DejaVuSans-65" x="933.697266"/>
      <use xlink:href="#DejaVuSans-64" x="995.220703"/>
      <use xlink:href="#DejaVuSans-20" x="1058.697266"/>
      <use xlink:href="#DejaVuSans-73" x="1090.484375"/>
      <use xlink:href="#DejaVuSans-65" x="1142.583984"/>
      <use xlink:href="#DejaVuSans-71" x="1204.107422"/>
      <use xlink:href="#DejaVuSans-75" x="1267.583984"/>
      <use xlink:href="#DejaVuSans-65" x="1330.962891"/>
      <use xlink:href="#DejaVuSans-6e" x="1392.486328"/>
      <use xlink:href="#DejaVuSans-63" x="1455.865234"/>
      <use xlink:href="#DejaVuSans-65" x="1510.845703"/>
     </g>
    </g>
    <g id="patch_75">
     <path d="M 637.83375 949.252772 
L 653.83375 949.252772 
L 653.83375 943.652772 
L 637.83375 943.652772 
z
" style="fill: #434348"/>
    </g>
    <g id="text_48">
     <!-- Sum of remaining over-represented sequences -->
     <g transform="translate(660.23375 949.252772)scale(0.08 -0.08)">
      <defs>
       <path id="DejaVuSans-6d" d="M 3328 2828 
Q 3544 3216 3844 3400 
Q 4144 3584 4550 3584 
Q 5097 3584 5394 3201 
Q 5691 2819 5691 2113 
L 5691 0 
L 5113 0 
L 5113 2094 
Q 5113 2597 4934 2840 
Q 4756 3084 4391 3084 
Q 3944 3084 3684 2787 
Q 3425 2491 3425 1978 
L 3425 0 
L 2847 0 
L 2847 2094 
Q 2847 2600 2669 2842 
Q 2491 3084 2119 3084 
Q 1678 3084 1418 2786 
Q 1159 2488 1159 1978 
L 1159 0 
L 581 0 
L 581 3500 
L 1159 3500 
L 1159 2956 
Q 1356 3278 1631 3431 
Q 1906 3584 2284 3584 
Q 2666 3584 2933 3390 
Q 3200 3197 3328 2828 
z
" transform="scale(0.015625)"/>
       <path id="DejaVuSans-69" d="M 603 3500 
L 1178 3500 
L 1178 0 
L 603 0 
L 603 3500 
z
M 603 4863 
L 1178 4863 
L 1178 4134 
L 603 4134 
L 603 4863 
z
" transform="scale(0.015625)"/>
      </defs>
      <use xlink:href="#DejaVuSans-53"/>
      <use xlink:href="#DejaVuSans-75" x="63.476562"/>
      <use xlink:href="#DejaVuSans-6d" x="126.855469"/>
      <use xlink:href="#DejaVuSans-20" x="224.267578"/>
      <use xlink:href="#DejaVuSans-6f" x="256.054688"/>
      <use xlink:href="#DejaVuSans-66" x="317.236328"/>
      <use xlink:href="#DejaVuSans-20" x="352.441406"/>
      <use xlink:href="#DejaVuSans-72" x="384.228516"/>
      <use xlink:href="#DejaVuSans-65" x="423.091797"/>
      <use xlink:href="#DejaVuSans-6d" x="484.615234"/>
      <use xlink:href="#DejaVuSans-61" x="582.027344"/>
      <use xlink:href="#DejaVuSans-69" x="643.306641"/>
      <use xlink:href="#DejaVuSans-6e" x="671.089844"/>
      <use xlink:href="#DejaVuSans-69" x="734.46875"/>
      <use xlink:href="#DejaVuSans-6e" x="762.251953"/>
      <use xlink:href="#DejaVuSans-67" x="825.630859"/>
      <use xlink:href="#DejaVuSans-20" x="889.107422"/>
      <use xlink:href="#DejaVuSans-6f" x="920.894531"/>
      <use xlink:href="#DejaVuSans-76" x="982.076172"/>
      <use xlink:href="#DejaVuSans-65" x="1041.255859"/>
      <use xlink:href="#DejaVuSans-72" x="1102.779297"/>
      <use xlink:href="#DejaVuSans-2d" x="1137.517578"/>
      <use xlink:href="#DejaVuSans-72" x="1173.601562"/>
      <use xlink:href="#DejaVuSans-65" x="1212.464844"/>
      <use xlink:href="#DejaVuSans-70" x="1273.988281"/>
      <use xlink:href="#DejaVuSans-72" x="1337.464844"/>
      <use xlink:href="#DejaVuSans-65" x="1376.328125"/>
      <use xlink:href="#DejaVuSans-73" x="1437.851562"/>
      <use xlink:href="#DejaVuSans-65" x="1489.951172"/>
      <use xlink:href="#DejaVuSans-6e" x="1551.474609"/>
      <use xlink:href="#DejaVuSans-74" x="1614.853516"/>
      <use xlink:href="#DejaVuSans-65" x="1654.0625"/>
      <use xlink:href="#DejaVuSans-64" x="1715.585938"/>
      <use xlink:href="#DejaVuSans-20" x="1779.0625"/>
      <use xlink:href="#DejaVuSans-73" x="1810.849609"/>
      <use xlink:href="#DejaVuSans-65" x="1862.949219"/>
      <use xlink:href="#DejaVuSans-71" x="1924.472656"/>
      <use xlink:href="#DejaVuSans-75" x="1987.949219"/>
      <use xlink:href="#DejaVuSans-65" x="2051.328125"/>
      <use xlink:href="#DejaVuSans-6e" x="2112.851562"/>
      <use xlink:href="#DejaVuSans-63" x="2176.230469"/>
      <use xlink:href="#DejaVuSans-65" x="2231.210938"/>
      <use xlink:href="#DejaVuSans-73" x="2292.734375"/>
     </g>
    </g>
   </g>
  </g>
 </g>
 <defs>
  <clipPath id="p34f112db01">
   <rect x="73.8225" y="7.2" width="781.2" height="867.756522"/>
  </clipPath>
 </defs>
</svg>
