<?xml version="1.0" encoding="utf-8" standalone="no"?>
<!DOCTYPE svg PUBLIC "-//W3C//DTD SVG 1.1//EN"
  "http://www.w3.org/Graphics/SVG/1.1/DTD/svg11.dtd">
<svg xmlns:xlink="http://www.w3.org/1999/xlink" width="1000.408125pt" height="390.356525pt" viewBox="0 0 1000.408125 390.356525" xmlns="http://www.w3.org/2000/svg" version="1.1">
 <metadata>
  <rdf:RDF xmlns:dc="http://purl.org/dc/elements/1.1/" xmlns:cc="http://creativecommons.org/ns#" xmlns:rdf="http://www.w3.org/1999/02/22-rdf-syntax-ns#">
   <cc:Work>
    <dc:type rdf:resource="http://purl.org/dc/dcmitype/StillImage"/>
    <dc:date>2023-04-20T18:33:30.036447</dc:date>
    <dc:format>image/svg+xml</dc:format>
    <dc:creator>
     <cc:Agent>
      <dc:title>Matplotlib v3.5.1, https://matplotlib.org/</dc:title>
     </cc:Agent>
    </dc:creator>
   </cc:Work>
  </rdf:RDF>
 </metadata>
 <defs>
  <style type="text/css">*{stroke-linejoin: round; stroke-linecap: butt}</style>
 </defs>
 <g id="figure_1">
  <g id="axes_1">
   <g id="patch_1">
    <path d="M 38.058125 354.7359 
L 993.208125 354.7359 
L 993.208125 35.3279 
L 38.058125 35.3279 
z
" style="fill: #ffffff"/>
   </g>
   <g id="patch_2">
    <path d="M 38.058125 111.190281 
L 957.614902 111.190281 
L 957.614902 -515.069883 
L 38.058125 -515.069883 
z
" clip-path="url(#p4be21a90dc)" style="fill: #c3e6c3"/>
   </g>
   <g id="patch_3">
    <path d="M 38.058125 180.774743 
L 957.614902 180.774743 
L 957.614902 111.190281 
L 38.058125 111.190281 
z
" clip-path="url(#p4be21a90dc)" style="fill: #e6dcc3"/>
   </g>
   <g id="patch_4">
    <path d="M 38.058125 354.7359 
L 957.614902 354.7359 
L 957.614902 180.774743 
L 38.058125 180.774743 
z
" clip-path="url(#p4be21a90dc)" style="fill: #e6c3c3"/>
   </g>
   <g id="matplotlib.axis_1">
    <g id="xtick_1">
     <g id="text_1">
      <!-- 0 -->
      <g transform="translate(71.106348 367.81465)scale(0.08 -0.08)">
       <defs>
        <path id="DejaVuSans-30" d="M 2034 4250 
Q 1547 4250 1301 3770 
Q 1056 3291 1056 2328 
Q 1056 1369 1301 889 
Q 1547 409 2034 409 
Q 2525 409 2770 889 
Q 3016 1369 3016 2328 
Q 3016 3291 2770 3770 
Q 2525 4250 2034 4250 
z
M 2034 4750 
Q 2819 4750 3233 4129 
Q 3647 3509 3647 2328 
Q 3647 1150 3233 529 
Q 2819 -91 2034 -91 
Q 1250 -91 836 529 
Q 422 1150 422 2328 
Q 422 3509 836 4129 
Q 1250 4750 2034 4750 
z
" transform="scale(0.015625)"/>
       </defs>
       <use xlink:href="#DejaVuSans-30"/>
      </g>
     </g>
    </g>
    <g id="xtick_2">
     <g id="text_2">
      <!-- 20 -->
      <g transform="translate(225.015074 367.81465)scale(0.08 -0.08)">
       <defs>
        <path id="DejaVuSans-32" d="M 1228 531 
L 3431 531 
L 3431 0 
L 469 0 
L 469 531 
Q 828 903 1448 1529 
Q 2069 2156 2228 2338 
Q 2531 2678 2651 2914 
Q 2772 3150 2772 3378 
Q 2772 3750 2511 3984 
Q 2250 4219 1831 4219 
Q 1534 4219 1204 4116 
Q 875 4013 500 3803 
L 500 4441 
Q 881 4594 1212 4672 
Q 1544 4750 1819 4750 
Q 2544 4750 2975 4387 
Q 3406 4025 3406 3419 
Q 3406 3131 3298 2873 
Q 3191 2616 2906 2266 
Q 2828 2175 2409 1742 
Q 1991 1309 1228 531 
z
" transform="scale(0.015625)"/>
       </defs>
       <use xlink:href="#DejaVuSans-32"/>
       <use xlink:href="#DejaVuSans-30" x="63.623047"/>
      </g>
     </g>
    </g>
    <g id="xtick_3">
     <g id="text_3">
      <!-- 40 -->
      <g transform="translate(381.468801 367.81465)scale(0.08 -0.08)">
       <defs>
        <path id="DejaVuSans-34" d="M 2419 4116 
L 825 1625 
L 2419 1625 
L 2419 4116 
z
M 2253 4666 
L 3047 4666 
L 3047 1625 
L 3713 1625 
L 3713 1100 
L 3047 1100 
L 3047 0 
L 2419 0 
L 2419 1100 
L 313 1100 
L 313 1709 
L 2253 4666 
z
" transform="scale(0.015625)"/>
       </defs>
       <use xlink:href="#DejaVuSans-34"/>
       <use xlink:href="#DejaVuSans-30" x="63.623047"/>
      </g>
     </g>
    </g>
    <g id="xtick_4">
     <g id="text_4">
      <!-- 60 -->
      <g transform="translate(537.922527 367.81465)scale(0.08 -0.08)">
       <defs>
        <path id="DejaVuSans-36" d="M 2113 2584 
Q 1688 2584 1439 2293 
Q 1191 2003 1191 1497 
Q 1191 994 1439 701 
Q 1688 409 2113 409 
Q 2538 409 2786 701 
Q 3034 994 3034 1497 
Q 3034 2003 2786 2293 
Q 2538 2584 2113 2584 
z
M 3366 4563 
L 3366 3988 
Q 3128 4100 2886 4159 
Q 2644 4219 2406 4219 
Q 1781 4219 1451 3797 
Q 1122 3375 1075 2522 
Q 1259 2794 1537 2939 
Q 1816 3084 2150 3084 
Q 2853 3084 3261 2657 
Q 3669 2231 3669 1497 
Q 3669 778 3244 343 
Q 2819 -91 2113 -91 
Q 1303 -91 875 529 
Q 447 1150 447 2328 
Q 447 3434 972 4092 
Q 1497 4750 2381 4750 
Q 2619 4750 2861 4703 
Q 3103 4656 3366 4563 
z
" transform="scale(0.015625)"/>
       </defs>
       <use xlink:href="#DejaVuSans-36"/>
       <use xlink:href="#DejaVuSans-30" x="63.623047"/>
      </g>
     </g>
    </g>
    <g id="xtick_5">
     <g id="text_5">
      <!-- 80 -->
      <g transform="translate(694.376254 367.81465)scale(0.08 -0.08)">
       <defs>
        <path id="DejaVuSans-38" d="M 2034 2216 
Q 1584 2216 1326 1975 
Q 1069 1734 1069 1313 
Q 1069 891 1326 650 
Q 1584 409 2034 409 
Q 2484 409 2743 651 
Q 3003 894 3003 1313 
Q 3003 1734 2745 1975 
Q 2488 2216 2034 2216 
z
M 1403 2484 
Q 997 2584 770 2862 
Q 544 3141 544 3541 
Q 544 4100 942 4425 
Q 1341 4750 2034 4750 
Q 2731 4750 3128 4425 
Q 3525 4100 3525 3541 
Q 3525 3141 3298 2862 
Q 3072 2584 2669 2484 
Q 3125 2378 3379 2068 
Q 3634 1759 3634 1313 
Q 3634 634 3220 271 
Q 2806 -91 2034 -91 
Q 1263 -91 848 271 
Q 434 634 434 1313 
Q 434 1759 690 2068 
Q 947 2378 1403 2484 
z
M 1172 3481 
Q 1172 3119 1398 2916 
Q 1625 2713 2034 2713 
Q 2441 2713 2670 2916 
Q 2900 3119 2900 3481 
Q 2900 3844 2670 4047 
Q 2441 4250 2034 4250 
Q 1625 4250 1398 4047 
Q 1172 3844 1172 3481 
z
" transform="scale(0.015625)"/>
       </defs>
       <use xlink:href="#DejaVuSans-38"/>
       <use xlink:href="#DejaVuSans-30" x="63.623047"/>
      </g>
     </g>
    </g>
    <g id="xtick_6">
     <g id="text_6">
      <!-- 100 -->
      <g transform="translate(848.28498 367.81465)scale(0.08 -0.08)">
       <defs>
        <path id="DejaVuSans-31" d="M 794 531 
L 1825 531 
L 1825 4091 
L 703 3866 
L 703 4441 
L 1819 4666 
L 2450 4666 
L 2450 531 
L 3481 531 
L 3481 0 
L 794 0 
L 794 531 
z
" transform="scale(0.015625)"/>
       </defs>
       <use xlink:href="#DejaVuSans-31"/>
       <use xlink:href="#DejaVuSans-30" x="63.623047"/>
       <use xlink:href="#DejaVuSans-30" x="127.246094"/>
      </g>
     </g>
    </g>
    <g id="text_7">
     <!-- Position (bp) -->
     <g transform="translate(484.33 381.076838)scale(0.1 -0.1)">
      <defs>
       <path id="DejaVuSans-50" d="M 1259 4147 
L 1259 2394 
L 2053 2394 
Q 2494 2394 2734 2622 
Q 2975 2850 2975 3272 
Q 2975 3691 2734 3919 
Q 2494 4147 2053 4147 
L 1259 4147 
z
M 628 4666 
L 2053 4666 
Q 2838 4666 3239 4311 
Q 3641 3956 3641 3272 
Q 3641 2581 3239 2228 
Q 2838 1875 2053 1875 
L 1259 1875 
L 1259 0 
L 628 0 
L 628 4666 
z
" transform="scale(0.015625)"/>
       <path id="DejaVuSans-6f" d="M 1959 3097 
Q 1497 3097 1228 2736 
Q 959 2375 959 1747 
Q 959 1119 1226 758 
Q 1494 397 1959 397 
Q 2419 397 2687 759 
Q 2956 1122 2956 1747 
Q 2956 2369 2687 2733 
Q 2419 3097 1959 3097 
z
M 1959 3584 
Q 2709 3584 3137 3096 
Q 3566 2609 3566 1747 
Q 3566 888 3137 398 
Q 2709 -91 1959 -91 
Q 1206 -91 779 398 
Q 353 888 353 1747 
Q 353 2609 779 3096 
Q 1206 3584 1959 3584 
z
" transform="scale(0.015625)"/>
       <path id="DejaVuSans-73" d="M 2834 3397 
L 2834 2853 
Q 2591 2978 2328 3040 
Q 2066 3103 1784 3103 
Q 1356 3103 1142 2972 
Q 928 2841 928 2578 
Q 928 2378 1081 2264 
Q 1234 2150 1697 2047 
L 1894 2003 
Q 2506 1872 2764 1633 
Q 3022 1394 3022 966 
Q 3022 478 2636 193 
Q 2250 -91 1575 -91 
Q 1294 -91 989 -36 
Q 684 19 347 128 
L 347 722 
Q 666 556 975 473 
Q 1284 391 1588 391 
Q 1994 391 2212 530 
Q 2431 669 2431 922 
Q 2431 1156 2273 1281 
Q 2116 1406 1581 1522 
L 1381 1569 
Q 847 1681 609 1914 
Q 372 2147 372 2553 
Q 372 3047 722 3315 
Q 1072 3584 1716 3584 
Q 2034 3584 2315 3537 
Q 2597 3491 2834 3397 
z
" transform="scale(0.015625)"/>
       <path id="DejaVuSans-69" d="M 603 3500 
L 1178 3500 
L 1178 0 
L 603 0 
L 603 3500 
z
M 603 4863 
L 1178 4863 
L 1178 4134 
L 603 4134 
L 603 4863 
z
" transform="scale(0.015625)"/>
       <path id="DejaVuSans-74" d="M 1172 4494 
L 1172 3500 
L 2356 3500 
L 2356 3053 
L 1172 3053 
L 1172 1153 
Q 1172 725 1289 603 
Q 1406 481 1766 481 
L 2356 481 
L 2356 0 
L 1766 0 
Q 1100 0 847 248 
Q 594 497 594 1153 
L 594 3053 
L 172 3053 
L 172 3500 
L 594 3500 
L 594 4494 
L 1172 4494 
z
" transform="scale(0.015625)"/>
       <path id="DejaVuSans-6e" d="M 3513 2113 
L 3513 0 
L 2938 0 
L 2938 2094 
Q 2938 2591 2744 2837 
Q 2550 3084 2163 3084 
Q 1697 3084 1428 2787 
Q 1159 2491 1159 1978 
L 1159 0 
L 581 0 
L 581 3500 
L 1159 3500 
L 1159 2956 
Q 1366 3272 1645 3428 
Q 1925 3584 2291 3584 
Q 2894 3584 3203 3211 
Q 3513 2838 3513 2113 
z
" transform="scale(0.015625)"/>
       <path id="DejaVuSans-20" transform="scale(0.015625)"/>
       <path id="DejaVuSans-28" d="M 1984 4856 
Q 1566 4138 1362 3434 
Q 1159 2731 1159 2009 
Q 1159 1288 1364 580 
Q 1569 -128 1984 -844 
L 1484 -844 
Q 1016 -109 783 600 
Q 550 1309 550 2009 
Q 550 2706 781 3412 
Q 1013 4119 1484 4856 
L 1984 4856 
z
" transform="scale(0.015625)"/>
       <path id="DejaVuSans-62" d="M 3116 1747 
Q 3116 2381 2855 2742 
Q 2594 3103 2138 3103 
Q 1681 3103 1420 2742 
Q 1159 2381 1159 1747 
Q 1159 1113 1420 752 
Q 1681 391 2138 391 
Q 2594 391 2855 752 
Q 3116 1113 3116 1747 
z
M 1159 2969 
Q 1341 3281 1617 3432 
Q 1894 3584 2278 3584 
Q 2916 3584 3314 3078 
Q 3713 2572 3713 1747 
Q 3713 922 3314 415 
Q 2916 -91 2278 -91 
Q 1894 -91 1617 61 
Q 1341 213 1159 525 
L 1159 0 
L 581 0 
L 581 4863 
L 1159 4863 
L 1159 2969 
z
" transform="scale(0.015625)"/>
       <path id="DejaVuSans-70" d="M 1159 525 
L 1159 -1331 
L 581 -1331 
L 581 3500 
L 1159 3500 
L 1159 2969 
Q 1341 3281 1617 3432 
Q 1894 3584 2278 3584 
Q 2916 3584 3314 3078 
Q 3713 2572 3713 1747 
Q 3713 922 3314 415 
Q 2916 -91 2278 -91 
Q 1894 -91 1617 61 
Q 1341 213 1159 525 
z
M 3116 1747 
Q 3116 2381 2855 2742 
Q 2594 3103 2138 3103 
Q 1681 3103 1420 2742 
Q 1159 2381 1159 1747 
Q 1159 1113 1420 752 
Q 1681 391 2138 391 
Q 2594 391 2855 752 
Q 3116 1113 3116 1747 
z
" transform="scale(0.015625)"/>
       <path id="DejaVuSans-29" d="M 513 4856 
L 1013 4856 
Q 1481 4119 1714 3412 
Q 1947 2706 1947 2009 
Q 1947 1309 1714 600 
Q 1481 -109 1013 -844 
L 513 -844 
Q 928 -128 1133 580 
Q 1338 1288 1338 2009 
Q 1338 2731 1133 3434 
Q 928 4138 513 4856 
z
" transform="scale(0.015625)"/>
      </defs>
      <use xlink:href="#DejaVuSans-50"/>
      <use xlink:href="#DejaVuSans-6f" x="56.677734"/>
      <use xlink:href="#DejaVuSans-73" x="117.859375"/>
      <use xlink:href="#DejaVuSans-69" x="169.958984"/>
      <use xlink:href="#DejaVuSans-74" x="197.742188"/>
      <use xlink:href="#DejaVuSans-69" x="236.951172"/>
      <use xlink:href="#DejaVuSans-6f" x="264.734375"/>
      <use xlink:href="#DejaVuSans-6e" x="325.916016"/>
      <use xlink:href="#DejaVuSans-20" x="389.294922"/>
      <use xlink:href="#DejaVuSans-28" x="421.082031"/>
      <use xlink:href="#DejaVuSans-62" x="460.095703"/>
      <use xlink:href="#DejaVuSans-70" x="523.572266"/>
      <use xlink:href="#DejaVuSans-29" x="587.048828"/>
     </g>
    </g>
   </g>
   <g id="matplotlib.axis_2">
    <g id="ytick_1">
     <g id="line2d_1">
      <path d="M 38.058125 354.7359 
L 993.208125 354.7359 
" clip-path="url(#p4be21a90dc)" style="fill: none; stroke: #dedede; stroke-linecap: square"/>
     </g>
     <g id="text_8">
      <!-- 0 -->
      <g transform="translate(25.968125 357.775275)scale(0.08 -0.08)">
       <use xlink:href="#DejaVuSans-30"/>
      </g>
     </g>
    </g>
    <g id="ytick_2">
     <g id="line2d_2">
      <path d="M 38.058125 311.245611 
L 993.208125 311.245611 
" clip-path="url(#p4be21a90dc)" style="fill: none; stroke: #dedede; stroke-linecap: square"/>
     </g>
     <g id="text_9">
      <!-- 5 -->
      <g transform="translate(25.968125 314.284986)scale(0.08 -0.08)">
       <defs>
        <path id="DejaVuSans-35" d="M 691 4666 
L 3169 4666 
L 3169 4134 
L 1269 4134 
L 1269 2991 
Q 1406 3038 1543 3061 
Q 1681 3084 1819 3084 
Q 2600 3084 3056 2656 
Q 3513 2228 3513 1497 
Q 3513 744 3044 326 
Q 2575 -91 1722 -91 
Q 1428 -91 1123 -41 
Q 819 9 494 109 
L 494 744 
Q 775 591 1075 516 
Q 1375 441 1709 441 
Q 2250 441 2565 725 
Q 2881 1009 2881 1497 
Q 2881 1984 2565 2268 
Q 2250 2553 1709 2553 
Q 1456 2553 1204 2497 
Q 953 2441 691 2322 
L 691 4666 
z
" transform="scale(0.015625)"/>
       </defs>
       <use xlink:href="#DejaVuSans-35"/>
      </g>
     </g>
    </g>
    <g id="ytick_3">
     <g id="line2d_3">
      <path d="M 38.058125 267.755322 
L 993.208125 267.755322 
" clip-path="url(#p4be21a90dc)" style="fill: none; stroke: #dedede; stroke-linecap: square"/>
     </g>
     <g id="text_10">
      <!-- 10 -->
      <g transform="translate(20.878125 270.794697)scale(0.08 -0.08)">
       <use xlink:href="#DejaVuSans-31"/>
       <use xlink:href="#DejaVuSans-30" x="63.623047"/>
      </g>
     </g>
    </g>
    <g id="ytick_4">
     <g id="line2d_4">
      <path d="M 38.058125 224.265032 
L 993.208125 224.265032 
" clip-path="url(#p4be21a90dc)" style="fill: none; stroke: #dedede; stroke-linecap: square"/>
     </g>
     <g id="text_11">
      <!-- 15 -->
      <g transform="translate(20.878125 227.304407)scale(0.08 -0.08)">
       <use xlink:href="#DejaVuSans-31"/>
       <use xlink:href="#DejaVuSans-35" x="63.623047"/>
      </g>
     </g>
    </g>
    <g id="ytick_5">
     <g id="line2d_5">
      <path d="M 38.058125 180.774743 
L 993.208125 180.774743 
" clip-path="url(#p4be21a90dc)" style="fill: none; stroke: #dedede; stroke-linecap: square"/>
     </g>
     <g id="text_12">
      <!-- 20 -->
      <g transform="translate(20.878125 183.814118)scale(0.08 -0.08)">
       <use xlink:href="#DejaVuSans-32"/>
       <use xlink:href="#DejaVuSans-30" x="63.623047"/>
      </g>
     </g>
    </g>
    <g id="ytick_6">
     <g id="line2d_6">
      <path d="M 38.058125 137.284454 
L 993.208125 137.284454 
" clip-path="url(#p4be21a90dc)" style="fill: none; stroke: #dedede; stroke-linecap: square"/>
     </g>
     <g id="text_13">
      <!-- 25 -->
      <g transform="translate(20.878125 140.323829)scale(0.08 -0.08)">
       <use xlink:href="#DejaVuSans-32"/>
       <use xlink:href="#DejaVuSans-35" x="63.623047"/>
      </g>
     </g>
    </g>
    <g id="ytick_7">
     <g id="line2d_7">
      <path d="M 38.058125 93.794165 
L 993.208125 93.794165 
" clip-path="url(#p4be21a90dc)" style="fill: none; stroke: #dedede; stroke-linecap: square"/>
     </g>
     <g id="text_14">
      <!-- 30 -->
      <g transform="translate(20.878125 96.83354)scale(0.08 -0.08)">
       <defs>
        <path id="DejaVuSans-33" d="M 2597 2516 
Q 3050 2419 3304 2112 
Q 3559 1806 3559 1356 
Q 3559 666 3084 287 
Q 2609 -91 1734 -91 
Q 1441 -91 1130 -33 
Q 819 25 488 141 
L 488 750 
Q 750 597 1062 519 
Q 1375 441 1716 441 
Q 2309 441 2620 675 
Q 2931 909 2931 1356 
Q 2931 1769 2642 2001 
Q 2353 2234 1838 2234 
L 1294 2234 
L 1294 2753 
L 1863 2753 
Q 2328 2753 2575 2939 
Q 2822 3125 2822 3475 
Q 2822 3834 2567 4026 
Q 2313 4219 1838 4219 
Q 1578 4219 1281 4162 
Q 984 4106 628 3988 
L 628 4550 
Q 988 4650 1302 4700 
Q 1616 4750 1894 4750 
Q 2613 4750 3031 4423 
Q 3450 4097 3450 3541 
Q 3450 3153 3228 2886 
Q 3006 2619 2597 2516 
z
" transform="scale(0.015625)"/>
       </defs>
       <use xlink:href="#DejaVuSans-33"/>
       <use xlink:href="#DejaVuSans-30" x="63.623047"/>
      </g>
     </g>
    </g>
    <g id="ytick_8">
     <g id="line2d_8">
      <path d="M 38.058125 50.303876 
L 993.208125 50.303876 
" clip-path="url(#p4be21a90dc)" style="fill: none; stroke: #dedede; stroke-linecap: square"/>
     </g>
     <g id="text_15">
      <!-- 35 -->
      <g transform="translate(20.878125 53.343251)scale(0.08 -0.08)">
       <use xlink:href="#DejaVuSans-33"/>
       <use xlink:href="#DejaVuSans-35" x="63.623047"/>
      </g>
     </g>
    </g>
    <g id="text_16">
     <!-- Phred Score -->
     <g transform="translate(14.798438 225.00065)rotate(-90)scale(0.1 -0.1)">
      <defs>
       <path id="DejaVuSans-68" d="M 3513 2113 
L 3513 0 
L 2938 0 
L 2938 2094 
Q 2938 2591 2744 2837 
Q 2550 3084 2163 3084 
Q 1697 3084 1428 2787 
Q 1159 2491 1159 1978 
L 1159 0 
L 581 0 
L 581 4863 
L 1159 4863 
L 1159 2956 
Q 1366 3272 1645 3428 
Q 1925 3584 2291 3584 
Q 2894 3584 3203 3211 
Q 3513 2838 3513 2113 
z
" transform="scale(0.015625)"/>
       <path id="DejaVuSans-72" d="M 2631 2963 
Q 2534 3019 2420 3045 
Q 2306 3072 2169 3072 
Q 1681 3072 1420 2755 
Q 1159 2438 1159 1844 
L 1159 0 
L 581 0 
L 581 3500 
L 1159 3500 
L 1159 2956 
Q 1341 3275 1631 3429 
Q 1922 3584 2338 3584 
Q 2397 3584 2469 3576 
Q 2541 3569 2628 3553 
L 2631 2963 
z
" transform="scale(0.015625)"/>
       <path id="DejaVuSans-65" d="M 3597 1894 
L 3597 1613 
L 953 1613 
Q 991 1019 1311 708 
Q 1631 397 2203 397 
Q 2534 397 2845 478 
Q 3156 559 3463 722 
L 3463 178 
Q 3153 47 2828 -22 
Q 2503 -91 2169 -91 
Q 1331 -91 842 396 
Q 353 884 353 1716 
Q 353 2575 817 3079 
Q 1281 3584 2069 3584 
Q 2775 3584 3186 3129 
Q 3597 2675 3597 1894 
z
M 3022 2063 
Q 3016 2534 2758 2815 
Q 2500 3097 2075 3097 
Q 1594 3097 1305 2825 
Q 1016 2553 972 2059 
L 3022 2063 
z
" transform="scale(0.015625)"/>
       <path id="DejaVuSans-64" d="M 2906 2969 
L 2906 4863 
L 3481 4863 
L 3481 0 
L 2906 0 
L 2906 525 
Q 2725 213 2448 61 
Q 2172 -91 1784 -91 
Q 1150 -91 751 415 
Q 353 922 353 1747 
Q 353 2572 751 3078 
Q 1150 3584 1784 3584 
Q 2172 3584 2448 3432 
Q 2725 3281 2906 2969 
z
M 947 1747 
Q 947 1113 1208 752 
Q 1469 391 1925 391 
Q 2381 391 2643 752 
Q 2906 1113 2906 1747 
Q 2906 2381 2643 2742 
Q 2381 3103 1925 3103 
Q 1469 3103 1208 2742 
Q 947 2381 947 1747 
z
" transform="scale(0.015625)"/>
       <path id="DejaVuSans-53" d="M 3425 4513 
L 3425 3897 
Q 3066 4069 2747 4153 
Q 2428 4238 2131 4238 
Q 1616 4238 1336 4038 
Q 1056 3838 1056 3469 
Q 1056 3159 1242 3001 
Q 1428 2844 1947 2747 
L 2328 2669 
Q 3034 2534 3370 2195 
Q 3706 1856 3706 1288 
Q 3706 609 3251 259 
Q 2797 -91 1919 -91 
Q 1588 -91 1214 -16 
Q 841 59 441 206 
L 441 856 
Q 825 641 1194 531 
Q 1563 422 1919 422 
Q 2459 422 2753 634 
Q 3047 847 3047 1241 
Q 3047 1584 2836 1778 
Q 2625 1972 2144 2069 
L 1759 2144 
Q 1053 2284 737 2584 
Q 422 2884 422 3419 
Q 422 4038 858 4394 
Q 1294 4750 2059 4750 
Q 2388 4750 2728 4690 
Q 3069 4631 3425 4513 
z
" transform="scale(0.015625)"/>
       <path id="DejaVuSans-63" d="M 3122 3366 
L 3122 2828 
Q 2878 2963 2633 3030 
Q 2388 3097 2138 3097 
Q 1578 3097 1268 2742 
Q 959 2388 959 1747 
Q 959 1106 1268 751 
Q 1578 397 2138 397 
Q 2388 397 2633 464 
Q 2878 531 3122 666 
L 3122 134 
Q 2881 22 2623 -34 
Q 2366 -91 2075 -91 
Q 1284 -91 818 406 
Q 353 903 353 1747 
Q 353 2603 823 3093 
Q 1294 3584 2113 3584 
Q 2378 3584 2631 3529 
Q 2884 3475 3122 3366 
z
" transform="scale(0.015625)"/>
      </defs>
      <use xlink:href="#DejaVuSans-50"/>
      <use xlink:href="#DejaVuSans-68" x="60.302734"/>
      <use xlink:href="#DejaVuSans-72" x="123.681641"/>
      <use xlink:href="#DejaVuSans-65" x="162.544922"/>
      <use xlink:href="#DejaVuSans-64" x="224.068359"/>
      <use xlink:href="#DejaVuSans-20" x="287.544922"/>
      <use xlink:href="#DejaVuSans-53" x="319.332031"/>
      <use xlink:href="#DejaVuSans-63" x="382.808594"/>
      <use xlink:href="#DejaVuSans-6f" x="437.789062"/>
      <use xlink:href="#DejaVuSans-72" x="498.970703"/>
      <use xlink:href="#DejaVuSans-65" x="537.833984"/>
     </g>
    </g>
   </g>
   <g id="line2d_9">
    <path d="M 81.474034 36.564208 
L 89.29672 36.500247 
L 97.119407 36.581763 
L 104.942093 36.587522 
L 112.764779 36.618145 
L 120.587466 36.651023 
L 128.410152 36.660129 
L 136.232838 36.695475 
L 144.055525 36.762291 
L 151.878211 36.974164 
L 167.523584 36.929298 
L 183.168956 36.980324 
L 198.814329 37.245955 
L 214.459702 37.12147 
L 230.105074 37.075832 
L 245.750447 37.081246 
L 261.39582 37.123766 
L 277.041192 37.614091 
L 292.686565 37.963862 
L 308.331937 37.817026 
L 323.97731 37.859559 
L 339.622683 37.92909 
L 355.268055 38.046655 
L 370.913428 38.113379 
L 386.558801 38.527271 
L 402.204173 38.801692 
L 417.849546 38.474126 
L 433.494919 38.711221 
L 449.140291 38.95984 
L 464.785664 38.940128 
L 480.431037 39.066997 
L 496.076409 39.024336 
L 511.721782 39.144209 
L 527.367154 39.47261 
L 543.012527 39.40809 
L 558.6579 39.31601 
L 574.303272 39.538834 
L 589.948645 39.409208 
L 605.594018 39.485546 
L 621.23939 39.687041 
L 636.884763 39.783738 
L 652.530136 40.08428 
L 668.175508 40.496421 
L 683.820881 40.510456 
L 699.466254 40.990933 
L 715.111626 41.87433 
L 730.756999 42.252746 
L 746.402372 42.472954 
L 762.047744 42.733594 
L 777.693117 42.437069 
L 793.338489 42.897972 
L 808.983862 43.10294 
L 824.629235 43.529814 
L 840.274607 43.906155 
L 855.91998 44.561926 
L 871.565353 44.929771 
L 887.210725 44.612651 
L 902.856098 44.372901 
L 918.501471 44.36254 
L 934.146843 43.072324 
L 949.792216 40.030246 
" clip-path="url(#p4be21a90dc)" style="fill: none; stroke: #5cb85c; stroke-linecap: square"/>
   </g>
   <g id="line2d_10">
    <path d="M 81.474034 39.003062 
L 89.29672 38.894466 
L 97.119407 38.979209 
L 104.942093 38.983058 
L 112.764779 38.951455 
L 120.587466 39.088714 
L 128.410152 39.019894 
L 136.232838 39.052737 
L 144.055525 39.705456 
L 151.878211 39.250097 
L 167.523584 39.137651 
L 183.168956 39.263885 
L 198.814329 39.306217 
L 214.459702 39.424248 
L 230.105074 39.42369 
L 245.750447 39.5146 
L 261.39582 39.601763 
L 277.041192 40.062951 
L 292.686565 39.839936 
L 308.331937 39.872229 
L 323.97731 39.936631 
L 339.622683 40.002692 
L 355.268055 40.095834 
L 370.913428 40.117947 
L 386.558801 40.516106 
L 402.204173 40.560302 
L 417.849546 40.276501 
L 433.494919 40.370482 
L 449.140291 40.495104 
L 464.785664 40.636219 
L 480.431037 40.564228 
L 496.076409 40.649864 
L 511.721782 40.719547 
L 527.367154 40.814227 
L 543.012527 40.92988 
L 558.6579 41.040281 
L 574.303272 41.096859 
L 589.948645 41.224262 
L 605.594018 41.302939 
L 621.23939 41.469007 
L 636.884763 41.686717 
L 652.530136 41.888221 
L 668.175508 42.04628 
L 683.820881 42.231442 
L 699.466254 42.471603 
L 715.111626 42.685206 
L 730.756999 42.877295 
L 746.402372 43.118224 
L 762.047744 43.26361 
L 777.693117 43.558342 
L 793.338489 43.806695 
L 808.983862 43.925743 
L 824.629235 44.252546 
L 840.274607 44.498903 
L 855.91998 44.57276 
L 871.565353 44.712018 
L 887.210725 44.999947 
L 902.856098 45.144212 
L 918.501471 44.67039 
L 934.146843 43.807174 
L 949.792216 40.487417 
" clip-path="url(#p4be21a90dc)" style="fill: none; stroke: #5cb85c; stroke-linecap: square"/>
   </g>
   <g id="line2d_11">
    <path d="M 81.474034 36.398362 
L 89.29672 36.361173 
L 97.119407 36.428966 
L 104.942093 36.426398 
L 112.764779 36.465263 
L 120.587466 36.468692 
L 128.410152 36.484588 
L 136.232838 36.532494 
L 144.055525 36.603166 
L 151.878211 36.803335 
L 167.523584 36.762293 
L 183.168956 36.806071 
L 198.814329 37.062538 
L 214.459702 36.937762 
L 230.105074 36.898272 
L 245.750447 36.900577 
L 261.39582 36.93393 
L 277.041192 37.418165 
L 292.686565 37.745234 
L 308.331937 37.602332 
L 323.97731 37.639004 
L 339.622683 37.699059 
L 355.268055 37.814581 
L 370.913428 37.875309 
L 386.558801 38.28997 
L 402.204173 38.565803 
L 417.849546 38.23829 
L 433.494919 38.475148 
L 449.140291 38.715669 
L 464.785664 38.688239 
L 480.431037 38.81234 
L 496.076409 38.773584 
L 511.721782 38.881147 
L 527.367154 39.199556 
L 543.012527 39.141557 
L 558.6579 39.045232 
L 574.303272 39.288454 
L 589.948645 39.143835 
L 605.594018 39.223691 
L 621.23939 39.415879 
L 636.884763 39.518148 
L 652.530136 39.814942 
L 668.175508 40.212335 
L 683.820881 40.216872 
L 699.466254 40.698366 
L 715.111626 41.558647 
L 730.756999 41.950635 
L 746.402372 42.168223 
L 762.047744 42.405317 
L 777.693117 42.094215 
L 793.338489 42.558118 
L 808.983862 42.750662 
L 824.629235 43.18225 
L 840.274607 43.544304 
L 855.91998 44.181454 
L 871.565353 44.524961 
L 887.210725 44.235559 
L 902.856098 44.004981 
L 918.501471 43.987514 
L 934.146843 42.741386 
L 949.792216 39.795311 
" clip-path="url(#p4be21a90dc)" style="fill: none; stroke: #5cb85c; stroke-linecap: square"/>
   </g>
   <g id="line2d_12">
    <path d="M 81.474034 39.083858 
L 89.29672 38.987177 
L 97.119407 39.080585 
L 104.942093 39.074378 
L 112.764779 39.048249 
L 120.587466 39.184556 
L 128.410152 39.109292 
L 136.232838 39.145437 
L 144.055525 39.803034 
L 151.878211 39.36306 
L 167.523584 39.24248 
L 183.168956 39.365222 
L 198.814329 39.415319 
L 214.459702 39.532987 
L 230.105074 39.52769 
L 245.750447 39.613651 
L 261.39582 39.719238 
L 277.041192 40.182352 
L 292.686565 39.951148 
L 308.331937 39.973026 
L 323.97731 40.052374 
L 339.622683 40.123943 
L 355.268055 40.217945 
L 370.913428 40.247613 
L 386.558801 40.659394 
L 402.204173 40.71055 
L 417.849546 40.443917 
L 433.494919 40.537832 
L 449.140291 40.678616 
L 464.785664 40.848227 
L 480.431037 40.749153 
L 496.076409 40.809799 
L 511.721782 40.876989 
L 527.367154 40.970229 
L 543.012527 41.070938 
L 558.6579 41.169121 
L 574.303272 41.244181 
L 589.948645 41.360472 
L 605.594018 41.447184 
L 621.23939 41.607299 
L 636.884763 41.823191 
L 652.530136 42.040368 
L 668.175508 42.188818 
L 683.820881 42.385772 
L 699.466254 42.607929 
L 715.111626 42.826091 
L 730.756999 43.014115 
L 746.402372 43.260449 
L 762.047744 43.406561 
L 777.693117 43.679894 
L 793.338489 43.926886 
L 808.983862 44.060364 
L 824.629235 44.364682 
L 840.274607 44.613826 
L 855.91998 44.693971 
L 871.565353 44.834635 
L 887.210725 45.096836 
L 902.856098 45.217262 
L 918.501471 44.735435 
L 934.146843 43.853348 
L 949.792216 40.499586 
" clip-path="url(#p4be21a90dc)" style="fill: none; stroke: #5cb85c; stroke-linecap: square"/>
   </g>
   <g id="line2d_13">
    <path d="M 81.474034 36.435144 
L 89.29672 36.385485 
L 97.119407 36.457612 
L 104.942093 36.454601 
L 112.764779 36.490984 
L 120.587466 36.516389 
L 128.410152 36.532325 
L 136.232838 36.562932 
L 144.055525 36.632222 
L 151.878211 36.841248 
L 167.523584 36.793747 
L 183.168956 36.844034 
L 198.814329 37.097358 
L 214.459702 36.967475 
L 230.105074 36.92913 
L 245.750447 36.926048 
L 261.39582 36.965572 
L 277.041192 37.447481 
L 292.686565 37.776832 
L 308.331937 37.631804 
L 323.97731 37.67025 
L 339.622683 37.734456 
L 355.268055 37.854528 
L 370.913428 37.913181 
L 386.558801 38.325234 
L 402.204173 38.593359 
L 417.849546 38.260841 
L 433.494919 38.489961 
L 449.140291 38.742774 
L 464.785664 38.717928 
L 480.431037 38.836466 
L 496.076409 38.807673 
L 511.721782 38.923192 
L 527.367154 39.232647 
L 543.012527 39.167361 
L 558.6579 39.065609 
L 574.303272 39.29302 
L 589.948645 39.159484 
L 605.594018 39.242082 
L 621.23939 39.418865 
L 636.884763 39.525995 
L 652.530136 39.824946 
L 668.175508 40.230724 
L 683.820881 40.228285 
L 699.466254 40.701812 
L 715.111626 41.574886 
L 730.756999 41.953636 
L 746.402372 42.16257 
L 762.047744 42.406946 
L 777.693117 42.127261 
L 793.338489 42.545052 
L 808.983862 42.751881 
L 824.629235 43.182102 
L 840.274607 43.545083 
L 855.91998 44.192787 
L 871.565353 44.558208 
L 887.210725 44.263538 
L 902.856098 44.006307 
L 918.501471 44.018601 
L 934.146843 42.760183 
L 949.792216 39.83791 
" clip-path="url(#p4be21a90dc)" style="fill: none; stroke: #5cb85c; stroke-linecap: square"/>
   </g>
   <g id="line2d_14">
    <path d="M 81.474034 39.17414 
L 89.29672 39.075116 
L 97.119407 39.145699 
L 104.942093 39.151333 
L 112.764779 39.109547 
L 120.587466 39.24544 
L 128.410152 39.18529 
L 136.232838 39.197903 
L 144.055525 39.861069 
L 151.878211 39.424577 
L 167.523584 39.305806 
L 183.168956 39.435227 
L 198.814329 39.486739 
L 214.459702 39.606315 
L 230.105074 39.596912 
L 245.750447 39.701893 
L 261.39582 39.783852 
L 277.041192 40.242161 
L 292.686565 40.037798 
L 308.331937 40.063137 
L 323.97731 40.129617 
L 339.622683 40.198229 
L 355.268055 40.283013 
L 370.913428 40.31959 
L 386.558801 40.703037 
L 402.204173 40.749357 
L 417.849546 40.467847 
L 433.494919 40.568843 
L 449.140291 40.683396 
L 464.785664 40.806832 
L 480.431037 40.740353 
L 496.076409 40.832611 
L 511.721782 40.913138 
L 527.367154 41.014474 
L 543.012527 41.129134 
L 558.6579 41.250939 
L 574.303272 41.309994 
L 589.948645 41.430811 
L 605.594018 41.502966 
L 621.23939 41.672851 
L 636.884763 41.896547 
L 652.530136 42.112731 
L 668.175508 42.268682 
L 683.820881 42.45511 
L 699.466254 42.701307 
L 715.111626 42.932967 
L 730.756999 43.118585 
L 746.402372 43.373532 
L 762.047744 43.537883 
L 777.693117 43.803459 
L 793.338489 44.060688 
L 808.983862 44.198944 
L 824.629235 44.522585 
L 840.274607 44.778108 
L 855.91998 44.84071 
L 871.565353 44.985212 
L 887.210725 45.284842 
L 902.856098 45.408824 
L 918.501471 44.913273 
L 934.146843 44.014683 
L 949.792216 40.618586 
" clip-path="url(#p4be21a90dc)" style="fill: none; stroke: #5cb85c; stroke-linecap: square"/>
   </g>
   <g id="line2d_15">
    <path d="M 81.474034 36.383658 
L 89.29672 36.352682 
L 97.119407 36.442341 
L 104.942093 36.420825 
L 112.764779 36.477406 
L 120.587466 36.492338 
L 128.410152 36.506856 
L 136.232838 36.559824 
L 144.055525 36.625792 
L 151.878211 36.845626 
L 167.523584 36.810412 
L 183.168956 36.850913 
L 198.814329 37.111863 
L 214.459702 36.978215 
L 230.105074 36.936637 
L 245.750447 36.950957 
L 261.39582 36.971232 
L 277.041192 37.461352 
L 292.686565 37.797941 
L 308.331937 37.652502 
L 323.97731 37.692693 
L 339.622683 37.75148 
L 355.268055 37.866473 
L 370.913428 37.92783 
L 386.558801 38.32856 
L 402.204173 38.60955 
L 417.849546 38.292939 
L 433.494919 38.527518 
L 449.140291 38.767948 
L 464.785664 38.754726 
L 480.431037 38.881983 
L 496.076409 38.845564 
L 511.721782 38.967068 
L 527.367154 39.286605 
L 543.012527 39.22323 
L 558.6579 39.112222 
L 574.303272 39.35677 
L 589.948645 39.200047 
L 605.594018 39.304285 
L 621.23939 39.499225 
L 636.884763 39.60137 
L 652.530136 39.916626 
L 668.175508 40.303223 
L 683.820881 40.335366 
L 699.466254 40.836612 
L 715.111626 41.699295 
L 730.756999 42.088897 
L 746.402372 42.331118 
L 762.047744 42.555795 
L 777.693117 42.289778 
L 793.338489 42.741052 
L 808.983862 42.94147 
L 824.629235 43.345055 
L 840.274607 43.757275 
L 855.91998 44.391448 
L 871.565353 44.727517 
L 887.210725 44.460188 
L 902.856098 44.204793 
L 918.501471 44.219766 
L 934.146843 42.951709 
L 949.792216 39.88776 
" clip-path="url(#p4be21a90dc)" style="fill: none; stroke: #5cb85c; stroke-linecap: square"/>
   </g>
   <g id="line2d_16">
    <path d="M 81.474034 38.696468 
L 89.29672 38.622396 
L 97.119407 38.688077 
L 104.942093 38.720286 
L 112.764779 38.668618 
L 120.587466 38.812158 
L 128.410152 38.746658 
L 136.232838 38.771813 
L 144.055525 39.415648 
L 151.878211 38.978194 
L 167.523584 38.863019 
L 183.168956 38.988383 
L 198.814329 39.039736 
L 214.459702 39.141058 
L 230.105074 39.130942 
L 245.750447 39.225397 
L 261.39582 39.316966 
L 277.041192 39.778864 
L 292.686565 39.54932 
L 308.331937 39.581046 
L 323.97731 39.642325 
L 339.622683 39.699713 
L 355.268055 39.7827 
L 370.913428 39.803769 
L 386.558801 40.201015 
L 402.204173 40.25219 
L 417.849546 39.999108 
L 433.494919 40.081413 
L 449.140291 40.226296 
L 464.785664 40.384808 
L 480.431037 40.234147 
L 496.076409 40.292087 
L 511.721782 40.344504 
L 527.367154 40.432078 
L 543.012527 40.537785 
L 558.6579 40.655616 
L 574.303272 40.720311 
L 589.948645 40.830459 
L 605.594018 40.902209 
L 621.23939 41.056598 
L 636.884763 41.266374 
L 652.530136 41.472551 
L 668.175508 41.612903 
L 683.820881 41.781734 
L 699.466254 42.015041 
L 715.111626 42.223186 
L 730.756999 42.415774 
L 746.402372 42.638619 
L 762.047744 42.763897 
L 777.693117 43.035776 
L 793.338489 43.272935 
L 808.983862 43.386047 
L 824.629235 43.69732 
L 840.274607 43.936271 
L 855.91998 44.008278 
L 871.565353 44.186492 
L 887.210725 44.457987 
L 902.856098 44.564551 
L 918.501471 44.134227 
L 934.146843 43.318618 
L 949.792216 40.141967 
" clip-path="url(#p4be21a90dc)" style="fill: none; stroke: #5cb85c; stroke-linecap: square"/>
   </g>
   <g id="line2d_17">
    <path d="M 81.474034 36.211859 
L 89.29672 36.186971 
L 97.119407 36.059536 
L 104.942093 36.472231 
L 112.764779 36.467973 
L 120.587466 36.30648 
L 128.410152 36.314702 
L 136.232838 36.299878 
L 144.055525 36.153811 
L 151.878211 36.414506 
L 167.523584 36.546479 
L 183.168956 36.972718 
L 198.814329 36.942265 
L 214.459702 36.539591 
L 230.105074 36.551247 
L 245.750447 36.620023 
L 261.39582 36.611103 
L 277.041192 36.820249 
L 292.686565 37.042618 
L 308.331937 37.642569 
L 323.97731 37.493667 
L 339.622683 37.369057 
L 355.268055 37.668226 
L 370.913428 37.716799 
L 386.558801 37.800585 
L 402.204173 38.400352 
L 417.849546 38.347305 
L 433.494919 38.359604 
L 449.140291 38.465837 
L 464.785664 39.03834 
L 480.431037 38.986539 
L 496.076409 38.797881 
L 511.721782 39.03301 
L 527.367154 39.223813 
L 543.012527 39.356653 
L 558.6579 39.418988 
L 574.303272 39.38148 
L 589.948645 39.560327 
L 605.594018 39.474537 
L 621.23939 39.454578 
L 636.884763 39.844041 
L 652.530136 39.890673 
L 668.175508 40.239341 
L 683.820881 40.255989 
L 699.466254 40.692674 
L 715.111626 41.614162 
L 730.756999 41.626064 
L 746.402372 41.801283 
L 762.047744 41.991091 
L 777.693117 42.272057 
L 793.338489 42.599865 
L 808.983862 42.554729 
L 824.629235 43.24533 
L 840.274607 43.93581 
L 855.91998 44.982796 
L 871.565353 44.894322 
L 887.210725 44.513593 
L 902.856098 44.462094 
L 918.501471 44.653595 
L 934.146843 43.471307 
L 949.792216 40.14965 
" clip-path="url(#p4be21a90dc)" style="fill: none; stroke: #5cb85c; stroke-linecap: square"/>
   </g>
   <g id="line2d_18">
    <path d="M 81.474034 39.313511 
L 89.29672 39.234425 
L 97.119407 39.024153 
L 104.942093 38.843556 
L 112.764779 39.275822 
L 120.587466 39.414012 
L 128.410152 39.275087 
L 136.232838 39.209998 
L 144.055525 39.057287 
L 151.878211 39.44868 
L 167.523584 39.318928 
L 183.168956 39.499789 
L 198.814329 39.349785 
L 214.459702 39.331641 
L 230.105074 39.461229 
L 245.750447 39.518177 
L 261.39582 39.387131 
L 277.041192 39.424992 
L 292.686565 39.610277 
L 308.331937 39.722657 
L 323.97731 39.91298 
L 339.622683 39.728849 
L 355.268055 39.76261 
L 370.913428 39.946902 
L 386.558801 39.820414 
L 402.204173 39.816154 
L 417.849546 40.004007 
L 433.494919 40.387484 
L 449.140291 40.463234 
L 464.785664 40.933566 
L 480.431037 40.82718 
L 496.076409 40.657778 
L 511.721782 40.813718 
L 527.367154 41.003479 
L 543.012527 41.004325 
L 558.6579 41.489532 
L 574.303272 41.466794 
L 589.948645 41.871909 
L 605.594018 41.756489 
L 621.23939 41.595763 
L 636.884763 41.887095 
L 652.530136 42.043555 
L 668.175508 42.3549 
L 683.820881 42.322307 
L 699.466254 42.82415 
L 715.111626 43.142284 
L 730.756999 43.343555 
L 746.402372 43.184943 
L 762.047744 43.356526 
L 777.693117 44.141657 
L 793.338489 44.512115 
L 808.983862 44.248159 
L 824.629235 44.516007 
L 840.274607 45.229056 
L 855.91998 45.235413 
L 871.565353 45.632061 
L 887.210725 45.547807 
L 902.856098 45.588093 
L 918.501471 45.579238 
L 934.146843 44.401822 
L 949.792216 40.922811 
" clip-path="url(#p4be21a90dc)" style="fill: none; stroke: #5cb85c; stroke-linecap: square"/>
   </g>
   <g id="line2d_19">
    <path d="M 81.474034 39.838406 
L 89.29672 39.276171 
L 97.119407 39.269277 
L 104.942093 39.119969 
L 112.764779 39.522877 
L 120.587466 39.411328 
L 128.410152 39.671522 
L 136.232838 39.456995 
L 144.055525 39.221124 
L 151.878211 39.645043 
L 167.523584 39.930837 
L 183.168956 40.476846 
L 198.814329 40.262062 
L 214.459702 40.725341 
L 230.105074 40.52328 
L 245.750447 40.58042 
L 261.39582 40.42078 
L 277.041192 40.636972 
L 292.686565 40.738543 
L 308.331937 40.859083 
L 323.97731 41.040863 
L 339.622683 40.901102 
L 355.268055 41.081118 
L 370.913428 41.345094 
L 386.558801 41.728146 
L 402.204173 42.102215 
L 417.849546 42.024609 
L 433.494919 42.322322 
L 449.140291 42.352229 
L 464.785664 43.198438 
L 480.431037 43.152804 
L 496.076409 42.909185 
L 511.721782 43.05988 
L 527.367154 43.62591 
L 543.012527 43.424926 
L 558.6579 43.796629 
L 574.303272 43.813365 
L 589.948645 44.063616 
L 605.594018 43.787137 
L 621.23939 43.840712 
L 636.884763 44.268663 
L 652.530136 44.445695 
L 668.175508 44.786076 
L 683.820881 44.754275 
L 699.466254 45.356429 
L 715.111626 45.951975 
L 730.756999 46.073949 
L 746.402372 46.517119 
L 762.047744 46.84671 
L 777.693117 47.479443 
L 793.338489 47.879477 
L 808.983862 47.900528 
L 824.629235 48.479528 
L 840.274607 49.517764 
L 855.91998 50.692252 
L 871.565353 50.659978 
L 887.210725 49.87144 
L 902.856098 49.980497 
L 918.501471 49.734359 
L 934.146843 47.920392 
L 949.792216 42.941605 
" clip-path="url(#p4be21a90dc)" style="fill: none; stroke: #5cb85c; stroke-linecap: square"/>
   </g>
   <g id="line2d_20">
    <path d="M 81.474034 41.544366 
L 89.29672 41.331419 
L 97.119407 41.244618 
L 104.942093 41.056604 
L 112.764779 41.62748 
L 120.587466 41.511396 
L 128.410152 42.06618 
L 136.232838 41.653847 
L 144.055525 41.189225 
L 151.878211 41.645073 
L 167.523584 41.527761 
L 183.168956 41.61793 
L 198.814329 41.46774 
L 214.459702 41.328166 
L 230.105074 41.464255 
L 245.750447 41.686267 
L 261.39582 41.434824 
L 277.041192 41.467988 
L 292.686565 41.771483 
L 308.331937 42.08364 
L 323.97731 42.288242 
L 339.622683 42.032984 
L 355.268055 42.081105 
L 370.913428 42.425226 
L 386.558801 42.208646 
L 402.204173 42.198709 
L 417.849546 42.363475 
L 433.494919 42.93029 
L 449.140291 42.932714 
L 464.785664 43.446567 
L 480.431037 43.449405 
L 496.076409 43.214605 
L 511.721782 43.570261 
L 527.367154 43.858868 
L 543.012527 43.787241 
L 558.6579 44.584212 
L 574.303272 44.44883 
L 589.948645 44.801187 
L 605.594018 44.581464 
L 621.23939 44.509687 
L 636.884763 44.867965 
L 652.530136 45.094393 
L 668.175508 45.504495 
L 683.820881 45.332076 
L 699.466254 45.929321 
L 715.111626 46.31236 
L 730.756999 46.364921 
L 746.402372 46.37904 
L 762.047744 46.778366 
L 777.693117 47.778728 
L 793.338489 48.062444 
L 808.983862 47.839666 
L 824.629235 48.193 
L 840.274607 48.863893 
L 855.91998 49.000926 
L 871.565353 49.492701 
L 887.210725 49.640455 
L 902.856098 49.602992 
L 918.501471 49.069842 
L 934.146843 47.872429 
L 949.792216 43.064858 
" clip-path="url(#p4be21a90dc)" style="fill: none; stroke: #5cb85c; stroke-linecap: square"/>
   </g>
   <g id="line2d_21">
    <path d="M 81.474034 39.700261 
L 89.29672 39.142161 
L 97.119407 39.118587 
L 104.942093 38.987621 
L 112.764779 39.359562 
L 120.587466 39.248964 
L 128.410152 39.469994 
L 136.232838 39.277761 
L 144.055525 39.089322 
L 151.878211 39.462666 
L 167.523584 39.736468 
L 183.168956 40.2827 
L 198.814329 40.063887 
L 214.459702 40.487189 
L 230.105074 40.285181 
L 245.750447 40.331105 
L 261.39582 40.186235 
L 277.041192 40.378758 
L 292.686565 40.462054 
L 308.331937 40.609077 
L 323.97731 40.751786 
L 339.622683 40.613337 
L 355.268055 40.820885 
L 370.913428 41.035045 
L 386.558801 41.401369 
L 402.204173 41.791421 
L 417.849546 41.706416 
L 433.494919 41.981771 
L 449.140291 42.018416 
L 464.785664 42.811414 
L 480.431037 42.783451 
L 496.076409 42.530812 
L 511.721782 42.688772 
L 527.367154 43.206009 
L 543.012527 43.038654 
L 558.6579 43.371991 
L 574.303272 43.400082 
L 589.948645 43.63349 
L 605.594018 43.324337 
L 621.23939 43.416222 
L 636.884763 43.86276 
L 652.530136 43.998975 
L 668.175508 44.301427 
L 683.820881 44.30166 
L 699.466254 44.857125 
L 715.111626 45.396281 
L 730.756999 45.529668 
L 746.402372 45.934832 
L 762.047744 46.270633 
L 777.693117 46.868396 
L 793.338489 47.228815 
L 808.983862 47.234507 
L 824.629235 47.808898 
L 840.274607 48.790511 
L 855.91998 49.919076 
L 871.565353 49.933337 
L 887.210725 49.150334 
L 902.856098 49.26028 
L 918.501471 49.032891 
L 934.146843 47.291368 
L 949.792216 42.570456 
" clip-path="url(#p4be21a90dc)" style="fill: none; stroke: #5cb85c; stroke-linecap: square"/>
   </g>
   <g id="line2d_22">
    <path d="M 81.474034 41.860521 
L 89.29672 41.639336 
L 97.119407 41.55485 
L 104.942093 41.303981 
L 112.764779 41.942698 
L 120.587466 41.786422 
L 128.410152 42.390075 
L 136.232838 41.953479 
L 144.055525 41.479872 
L 151.878211 41.923615 
L 167.523584 41.840814 
L 183.168956 41.912443 
L 198.814329 41.784522 
L 214.459702 41.627177 
L 230.105074 41.748677 
L 245.750447 42.020897 
L 261.39582 41.773521 
L 277.041192 41.798432 
L 292.686565 42.111532 
L 308.331937 42.424088 
L 323.97731 42.66592 
L 339.622683 42.378292 
L 355.268055 42.446608 
L 370.913428 42.83547 
L 386.558801 42.622817 
L 402.204173 42.593904 
L 417.849546 42.744408 
L 433.494919 43.329223 
L 449.140291 43.379163 
L 464.785664 43.87055 
L 480.431037 43.841569 
L 496.076409 43.611784 
L 511.721782 43.953033 
L 527.367154 44.262899 
L 543.012527 44.151892 
L 558.6579 44.916352 
L 574.303272 44.820604 
L 589.948645 45.190909 
L 605.594018 45.000338 
L 621.23939 44.921276 
L 636.884763 45.268946 
L 652.530136 45.50916 
L 668.175508 45.930807 
L 683.820881 45.745406 
L 699.466254 46.385532 
L 715.111626 46.756501 
L 730.756999 46.809894 
L 746.402372 46.81672 
L 762.047744 47.159412 
L 777.693117 48.192407 
L 793.338489 48.582053 
L 808.983862 48.307906 
L 824.629235 48.647713 
L 840.274607 49.405517 
L 855.91998 49.486191 
L 871.565353 50.004372 
L 887.210725 50.105624 
L 902.856098 50.00727 
L 918.501471 49.460368 
L 934.146843 48.237954 
L 949.792216 43.277516 
" clip-path="url(#p4be21a90dc)" style="fill: none; stroke: #5cb85c; stroke-linecap: square"/>
   </g>
   <g id="line2d_23">
    <path d="M 81.474034 36.359564 
L 89.29672 36.317463 
L 97.119407 36.201792 
L 104.942093 36.582665 
L 112.764779 36.605414 
L 120.587466 36.457042 
L 128.410152 36.456515 
L 136.232838 36.419725 
L 144.055525 36.273617 
L 151.878211 36.539823 
L 167.523584 36.704498 
L 183.168956 37.134828 
L 198.814329 37.09429 
L 214.459702 36.697471 
L 230.105074 36.710715 
L 245.750447 36.779116 
L 261.39582 36.770829 
L 277.041192 37.017115 
L 292.686565 37.25702 
L 308.331937 37.893481 
L 323.97731 37.734454 
L 339.622683 37.609016 
L 355.268055 37.929982 
L 370.913428 37.977575 
L 386.558801 38.084278 
L 402.204173 38.687451 
L 417.849546 38.614995 
L 433.494919 38.63904 
L 449.140291 38.779587 
L 464.785664 39.364772 
L 480.431037 39.29392 
L 496.076409 39.118546 
L 511.721782 39.377736 
L 527.367154 39.57918 
L 543.012527 39.725138 
L 558.6579 39.778307 
L 574.303272 39.734763 
L 589.948645 39.968434 
L 605.594018 39.834347 
L 621.23939 39.808352 
L 636.884763 40.249025 
L 652.530136 40.297736 
L 668.175508 40.650459 
L 683.820881 40.689106 
L 699.466254 41.119526 
L 715.111626 42.08921 
L 730.756999 42.153658 
L 746.402372 42.314818 
L 762.047744 42.553787 
L 777.693117 42.834708 
L 793.338489 43.154888 
L 808.983862 43.087326 
L 824.629235 43.828417 
L 840.274607 44.594509 
L 855.91998 45.666753 
L 871.565353 45.641056 
L 887.210725 45.242409 
L 902.856098 45.154164 
L 918.501471 45.409336 
L 934.146843 44.091929 
L 949.792216 40.60243 
" clip-path="url(#p4be21a90dc)" style="fill: none; stroke: #5cb85c; stroke-linecap: square"/>
   </g>
   <g id="line2d_24">
    <path d="M 81.474034 39.708407 
L 89.29672 39.638791 
L 97.119407 39.395045 
L 104.942093 39.18889 
L 112.764779 39.651895 
L 120.587466 39.800323 
L 128.410152 39.662048 
L 136.232838 39.580692 
L 144.055525 39.421685 
L 151.878211 39.811971 
L 167.523584 39.69622 
L 183.168956 39.88209 
L 198.814329 39.697126 
L 214.459702 39.692471 
L 230.105074 39.842366 
L 245.750447 39.91186 
L 261.39582 39.78227 
L 277.041192 39.834492 
L 292.686565 40.037542 
L 308.331937 40.170393 
L 323.97731 40.371368 
L 339.622683 40.178729 
L 355.268055 40.235185 
L 370.913428 40.452928 
L 386.558801 40.335593 
L 402.204173 40.301164 
L 417.849546 40.463132 
L 433.494919 40.914974 
L 449.140291 40.941391 
L 464.785664 41.365086 
L 480.431037 41.273033 
L 496.076409 41.182156 
L 511.721782 41.382125 
L 527.367154 41.623649 
L 543.012527 41.642976 
L 558.6579 42.157044 
L 574.303272 42.157591 
L 589.948645 42.598148 
L 605.594018 42.450412 
L 621.23939 42.266196 
L 636.884763 42.58198 
L 652.530136 42.765469 
L 668.175508 43.101854 
L 683.820881 43.075676 
L 699.466254 43.620649 
L 715.111626 43.984972 
L 730.756999 44.197453 
L 746.402372 44.010794 
L 762.047744 44.221489 
L 777.693117 45.101479 
L 793.338489 45.532236 
L 808.983862 45.219168 
L 824.629235 45.523995 
L 840.274607 46.32647 
L 855.91998 46.361748 
L 871.565353 46.773441 
L 887.210725 46.637188 
L 902.856098 46.698816 
L 918.501471 46.669648 
L 934.146843 45.387966 
L 949.792216 41.593887 
" clip-path="url(#p4be21a90dc)" style="fill: none; stroke: #5cb85c; stroke-linecap: square"/>
   </g>
   <g id="line2d_25">
    <path d="M 81.474034 36.253646 
L 89.29672 36.223132 
L 97.119407 36.103001 
L 104.942093 36.483354 
L 112.764779 36.489582 
L 120.587466 36.347858 
L 128.410152 36.34415 
L 136.232838 36.311722 
L 144.055525 36.165559 
L 151.878211 36.427651 
L 167.523584 36.580471 
L 183.168956 36.995253 
L 198.814329 36.967689 
L 214.459702 36.57768 
L 230.105074 36.595493 
L 245.750447 36.650797 
L 261.39582 36.665522 
L 277.041192 36.901906 
L 292.686565 37.108885 
L 308.331937 37.729001 
L 323.97731 37.58288 
L 339.622683 37.46554 
L 355.268055 37.776536 
L 370.913428 37.844483 
L 386.558801 37.920203 
L 402.204173 38.533538 
L 417.849546 38.471194 
L 433.494919 38.504818 
L 449.140291 38.653953 
L 464.785664 39.261879 
L 480.431037 39.195834 
L 496.076409 39.03229 
L 511.721782 39.29692 
L 527.367154 39.529192 
L 543.012527 39.680528 
L 558.6579 39.770761 
L 574.303272 39.727062 
L 589.948645 39.975103 
L 605.594018 39.913367 
L 621.23939 39.887939 
L 636.884763 40.356381 
L 652.530136 40.465914 
L 668.175508 40.831693 
L 683.820881 40.928726 
L 699.466254 41.448209 
L 715.111626 42.444586 
L 730.756999 42.608098 
L 746.402372 42.944534 
L 762.047744 43.186752 
L 777.693117 43.482885 
L 793.338489 44.014884 
L 808.983862 44.037126 
L 824.629235 44.836152 
L 840.274607 45.874856 
L 855.91998 46.835735 
L 871.565353 46.914706 
L 887.210725 46.723325 
L 902.856098 46.532504 
L 918.501471 47.247115 
L 934.146843 45.76745 
L 949.792216 41.771965 
" clip-path="url(#p4be21a90dc)" style="fill: none; stroke: #5cb85c; stroke-linecap: square"/>
   </g>
   <g id="line2d_26">
    <path d="M 81.474034 40.009857 
L 89.29672 39.943988 
L 97.119407 39.652755 
L 104.942093 39.435789 
L 112.764779 39.957569 
L 120.587466 40.113867 
L 128.410152 39.967612 
L 136.232838 39.882907 
L 144.055525 39.70689 
L 151.878211 40.145331 
L 167.523584 40.022963 
L 183.168956 40.218724 
L 198.814329 40.008689 
L 214.459702 40.010156 
L 230.105074 40.170603 
L 245.750447 40.233777 
L 261.39582 40.104954 
L 277.041192 40.171422 
L 292.686565 40.365926 
L 308.331937 40.502643 
L 323.97731 40.716534 
L 339.622683 40.509211 
L 355.268055 40.567932 
L 370.913428 40.813352 
L 386.558801 40.673467 
L 402.204173 40.643932 
L 417.849546 40.835958 
L 433.494919 41.302988 
L 449.140291 41.298316 
L 464.785664 41.76178 
L 480.431037 41.636733 
L 496.076409 41.515366 
L 511.721782 41.70965 
L 527.367154 41.95557 
L 543.012527 42.00055 
L 558.6579 42.563789 
L 574.303272 42.546477 
L 589.948645 43.001055 
L 605.594018 42.839955 
L 621.23939 42.624549 
L 636.884763 42.966089 
L 652.530136 43.160919 
L 668.175508 43.477207 
L 683.820881 43.469108 
L 699.466254 44.022212 
L 715.111626 44.414207 
L 730.756999 44.663078 
L 746.402372 44.459063 
L 762.047744 44.730884 
L 777.693117 45.608538 
L 793.338489 46.022767 
L 808.983862 45.71159 
L 824.629235 46.018067 
L 840.274607 46.814442 
L 855.91998 46.861853 
L 871.565353 47.279374 
L 887.210725 47.111974 
L 902.856098 47.231233 
L 918.501471 47.154558 
L 934.146843 45.798141 
L 949.792216 41.846236 
" clip-path="url(#p4be21a90dc)" style="fill: none; stroke: #5cb85c; stroke-linecap: square"/>
   </g>
   <g id="line2d_27">
    <path d="M 81.474034 39.47434 
L 89.29672 38.971904 
L 97.119407 38.91949 
L 104.942093 38.771965 
L 112.764779 39.133029 
L 120.587466 39.056194 
L 128.410152 39.257211 
L 136.232838 39.111988 
L 144.055525 38.893899 
L 151.878211 39.282402 
L 167.523584 39.550835 
L 183.168956 40.101271 
L 198.814329 39.891079 
L 214.459702 40.300888 
L 230.105074 40.116728 
L 245.750447 40.166155 
L 261.39582 39.998112 
L 277.041192 40.179343 
L 292.686565 40.268495 
L 308.331937 40.35941 
L 323.97731 40.537351 
L 339.622683 40.396395 
L 355.268055 40.553575 
L 370.913428 40.803824 
L 386.558801 41.148594 
L 402.204173 41.530325 
L 417.849546 41.423559 
L 433.494919 41.738274 
L 449.140291 41.758555 
L 464.785664 42.537863 
L 480.431037 42.480632 
L 496.076409 42.251017 
L 511.721782 42.402813 
L 527.367154 42.906798 
L 543.012527 42.729725 
L 558.6579 43.057934 
L 574.303272 43.061523 
L 589.948645 43.270932 
L 605.594018 43.030688 
L 621.23939 43.114339 
L 636.884763 43.523497 
L 652.530136 43.687171 
L 668.175508 43.964424 
L 683.820881 43.949204 
L 699.466254 44.529992 
L 715.111626 45.053691 
L 730.756999 45.176996 
L 746.402372 45.637181 
L 762.047744 45.902531 
L 777.693117 46.492662 
L 793.338489 46.871571 
L 808.983862 46.910275 
L 824.629235 47.417126 
L 840.274607 48.422998 
L 855.91998 49.521004 
L 871.565353 49.453294 
L 887.210725 48.758922 
L 902.856098 48.841328 
L 918.501471 48.648205 
L 934.146843 46.937996 
L 949.792216 42.235441 
" clip-path="url(#p4be21a90dc)" style="fill: none; stroke: #5cb85c; stroke-linecap: square"/>
   </g>
   <g id="line2d_28">
    <path d="M 81.474034 41.605708 
L 89.29672 41.431707 
L 97.119407 41.319472 
L 104.942093 41.070843 
L 112.764779 41.699035 
L 120.587466 41.57163 
L 128.410152 42.142395 
L 136.232838 41.700801 
L 144.055525 41.207751 
L 151.878211 41.692942 
L 167.523584 41.650224 
L 183.168956 41.753742 
L 198.814329 41.549864 
L 214.459702 41.373424 
L 230.105074 41.500573 
L 245.750447 41.720851 
L 261.39582 41.500874 
L 277.041192 41.536821 
L 292.686565 41.806409 
L 308.331937 42.074457 
L 323.97731 42.295997 
L 339.622683 42.084933 
L 355.268055 42.136151 
L 370.913428 42.437823 
L 386.558801 42.195848 
L 402.204173 42.208911 
L 417.849546 42.423161 
L 433.494919 42.961887 
L 449.140291 42.961562 
L 464.785664 43.535111 
L 480.431037 43.400902 
L 496.076409 43.130121 
L 511.721782 43.464187 
L 527.367154 43.756111 
L 543.012527 43.636535 
L 558.6579 44.392012 
L 574.303272 44.261777 
L 589.948645 44.631808 
L 605.594018 44.442096 
L 621.23939 44.3308 
L 636.884763 44.669212 
L 652.530136 44.863001 
L 668.175508 45.284145 
L 683.820881 45.090954 
L 699.466254 45.65272 
L 715.111626 45.997885 
L 730.756999 46.032251 
L 746.402372 46.049574 
L 762.047744 46.416707 
L 777.693117 47.423059 
L 793.338489 47.627577 
L 808.983862 47.34469 
L 824.629235 47.725671 
L 840.274607 48.333791 
L 855.91998 48.480059 
L 871.565353 48.966654 
L 887.210725 49.084421 
L 902.856098 49.020152 
L 918.501471 48.409174 
L 934.146843 47.324845 
L 949.792216 42.639502 
" clip-path="url(#p4be21a90dc)" style="fill: none; stroke: #5cb85c; stroke-linecap: square"/>
   </g>
   <g id="line2d_29">
    <path d="M 81.474034 37.090533 
L 89.29672 36.960595 
L 97.119407 36.821313 
L 104.942093 36.706089 
L 112.764779 36.972923 
L 120.587466 37.061851 
L 128.410152 37.040573 
L 136.232838 36.983963 
L 144.055525 36.879847 
L 151.878211 37.103934 
L 167.523584 37.281118 
L 183.168956 37.576904 
L 198.814329 37.325409 
L 214.459702 37.246631 
L 230.105074 37.283119 
L 245.750447 37.33881 
L 261.39582 37.34049 
L 277.041192 37.473829 
L 292.686565 37.624966 
L 308.331937 37.827395 
L 323.97731 37.90919 
L 339.622683 37.846097 
L 355.268055 38.712106 
L 370.913428 38.278979 
L 386.558801 38.696209 
L 402.204173 38.947179 
L 417.849546 39.00107 
L 433.494919 38.94954 
L 449.140291 39.156043 
L 464.785664 39.780009 
L 480.431037 39.553502 
L 496.076409 39.271739 
L 511.721782 39.81619 
L 527.367154 39.928308 
L 543.012527 40.341083 
L 558.6579 39.968934 
L 574.303272 39.802881 
L 589.948645 39.997586 
L 605.594018 40.672498 
L 621.23939 40.607802 
L 636.884763 40.919157 
L 652.530136 41.033237 
L 668.175508 41.239304 
L 683.820881 41.33019 
L 699.466254 41.37856 
L 715.111626 41.846043 
L 730.756999 42.327574 
L 746.402372 42.727165 
L 762.047744 42.865721 
L 777.693117 43.363886 
L 793.338489 43.572606 
L 808.983862 43.5367 
L 824.629235 44.306032 
L 840.274607 44.718957 
L 855.91998 46.093603 
L 871.565353 45.48257 
L 887.210725 45.499061 
L 902.856098 45.254898 
L 918.501471 44.817758 
L 934.146843 43.119744 
L 949.792216 40.151799 
" clip-path="url(#p4be21a90dc)" style="fill: none; stroke: #5cb85c; stroke-linecap: square"/>
   </g>
   <g id="line2d_30">
    <path d="M 81.474034 40.78417 
L 89.29672 40.680322 
L 97.119407 40.032687 
L 104.942093 40.173799 
L 112.764779 40.663112 
L 120.587466 40.754168 
L 128.410152 40.755993 
L 136.232838 40.833156 
L 144.055525 40.594779 
L 151.878211 40.454704 
L 167.523584 40.771679 
L 183.168956 41.03933 
L 198.814329 40.887958 
L 214.459702 40.746368 
L 230.105074 41.118603 
L 245.750447 40.895938 
L 261.39582 40.969779 
L 277.041192 41.003058 
L 292.686565 40.721923 
L 308.331937 41.458966 
L 323.97731 41.394734 
L 339.622683 40.96246 
L 355.268055 41.540323 
L 370.913428 41.70272 
L 386.558801 41.747721 
L 402.204173 41.655613 
L 417.849546 41.857427 
L 433.494919 41.636584 
L 449.140291 41.699968 
L 464.785664 42.715127 
L 480.431037 42.667627 
L 496.076409 42.258551 
L 511.721782 42.487968 
L 527.367154 42.919043 
L 543.012527 43.152757 
L 558.6579 43.72776 
L 574.303272 43.691506 
L 589.948645 43.955848 
L 605.594018 43.657755 
L 621.23939 43.524952 
L 636.884763 43.984035 
L 652.530136 43.895915 
L 668.175508 44.008744 
L 683.820881 44.372247 
L 699.466254 44.867953 
L 715.111626 45.047156 
L 730.756999 44.893834 
L 746.402372 45.445016 
L 762.047744 45.685121 
L 777.693117 46.879717 
L 793.338489 47.093185 
L 808.983862 46.965329 
L 824.629235 46.341616 
L 840.274607 47.459345 
L 855.91998 47.446556 
L 871.565353 48.219142 
L 887.210725 48.160626 
L 902.856098 48.143243 
L 918.501471 47.887938 
L 934.146843 46.361287 
L 949.792216 42.11409 
" clip-path="url(#p4be21a90dc)" style="fill: none; stroke: #5cb85c; stroke-linecap: square"/>
   </g>
   <g id="line2d_31">
    <path d="M 81.474034 37.184542 
L 89.29672 37.051939 
L 97.119407 36.909328 
L 104.942093 36.779245 
L 112.764779 37.074193 
L 120.587466 37.156363 
L 128.410152 37.126976 
L 136.232838 37.070232 
L 144.055525 36.965042 
L 151.878211 37.195518 
L 167.523584 37.384337 
L 183.168956 37.693539 
L 198.814329 37.430115 
L 214.459702 37.344176 
L 230.105074 37.382056 
L 245.750447 37.438013 
L 261.39582 37.441312 
L 277.041192 37.580769 
L 292.686565 37.740195 
L 308.331937 37.940938 
L 323.97731 38.025147 
L 339.622683 37.965696 
L 355.268055 38.823466 
L 370.913428 38.395845 
L 386.558801 38.805894 
L 402.204173 39.061319 
L 417.849546 39.12666 
L 433.494919 39.07456 
L 449.140291 39.283119 
L 464.785664 39.919216 
L 480.431037 39.689223 
L 496.076409 39.395037 
L 511.721782 39.941473 
L 527.367154 40.058128 
L 543.012527 40.471663 
L 558.6579 40.100165 
L 574.303272 39.930874 
L 589.948645 40.134682 
L 605.594018 40.810683 
L 621.23939 40.732585 
L 636.884763 41.039978 
L 652.530136 41.176338 
L 668.175508 41.374401 
L 683.820881 41.46094 
L 699.466254 41.533204 
L 715.111626 42.009903 
L 730.756999 42.484761 
L 746.402372 42.902791 
L 762.047744 43.034574 
L 777.693117 43.541754 
L 793.338489 43.7405 
L 808.983862 43.700898 
L 824.629235 44.477658 
L 840.274607 44.910164 
L 855.91998 46.28592 
L 871.565353 45.679046 
L 887.210725 45.672954 
L 902.856098 45.430992 
L 918.501471 44.993432 
L 934.146843 43.290581 
L 949.792216 40.261102 
" clip-path="url(#p4be21a90dc)" style="fill: none; stroke: #5cb85c; stroke-linecap: square"/>
   </g>
   <g id="line2d_32">
    <path d="M 81.474034 40.684549 
L 89.29672 40.551454 
L 97.119407 39.920652 
L 104.942093 40.066735 
L 112.764779 40.57623 
L 120.587466 40.657729 
L 128.410152 40.642171 
L 136.232838 40.730754 
L 144.055525 40.500753 
L 151.878211 40.374474 
L 167.523584 40.649105 
L 183.168956 40.888052 
L 198.814329 40.778957 
L 214.459702 40.648077 
L 230.105074 41.027321 
L 245.750447 40.803243 
L 261.39582 40.863368 
L 277.041192 40.914948 
L 292.686565 40.642126 
L 308.331937 41.375794 
L 323.97731 41.303993 
L 339.622683 40.874903 
L 355.268055 41.45872 
L 370.913428 41.637038 
L 386.558801 41.676772 
L 402.204173 41.576079 
L 417.849546 41.785391 
L 433.494919 41.568765 
L 449.140291 41.639849 
L 464.785664 42.642782 
L 480.431037 42.588026 
L 496.076409 42.192762 
L 511.721782 42.414907 
L 527.367154 42.845867 
L 543.012527 43.096904 
L 558.6579 43.660594 
L 574.303272 43.62894 
L 589.948645 43.869269 
L 605.594018 43.598722 
L 621.23939 43.461658 
L 636.884763 43.911656 
L 652.530136 43.828978 
L 668.175508 43.923389 
L 683.820881 44.30641 
L 699.466254 44.829051 
L 715.111626 44.998332 
L 730.756999 44.84387 
L 746.402372 45.385835 
L 762.047744 45.638453 
L 777.693117 46.83265 
L 793.338489 47.065509 
L 808.983862 46.93828 
L 824.629235 46.288506 
L 840.274607 47.435594 
L 855.91998 47.385624 
L 871.565353 48.163395 
L 887.210725 48.133096 
L 902.856098 48.119799 
L 918.501471 47.906906 
L 934.146843 46.358163 
L 949.792216 42.142079 
" clip-path="url(#p4be21a90dc)" style="fill: none; stroke: #5cb85c; stroke-linecap: square"/>
   </g>
   <g id="line2d_33">
    <path d="M 81.474034 37.239489 
L 89.29672 37.106207 
L 97.119407 36.945297 
L 104.942093 36.825873 
L 112.764779 37.135438 
L 120.587466 37.192446 
L 128.410152 37.185757 
L 136.232838 37.121662 
L 144.055525 37.017406 
L 151.878211 37.269069 
L 167.523584 37.42779 
L 183.168956 37.710608 
L 198.814329 37.48351 
L 214.459702 37.381592 
L 230.105074 37.443538 
L 245.750447 37.517062 
L 261.39582 37.519162 
L 277.041192 37.683984 
L 292.686565 37.863958 
L 308.331937 38.067114 
L 323.97731 38.152054 
L 339.622683 38.096629 
L 355.268055 38.963988 
L 370.913428 38.574483 
L 386.558801 39.033837 
L 402.204173 39.235064 
L 417.849546 39.334341 
L 433.494919 39.322001 
L 449.140291 39.535551 
L 464.785664 40.154533 
L 480.431037 39.964126 
L 496.076409 39.686521 
L 511.721782 40.24323 
L 527.367154 40.39189 
L 543.012527 40.804332 
L 558.6579 40.424707 
L 574.303272 40.28882 
L 589.948645 40.504697 
L 605.594018 41.187441 
L 621.23939 41.145842 
L 636.884763 41.473725 
L 652.530136 41.6093 
L 668.175508 41.829067 
L 683.820881 41.932249 
L 699.466254 42.005708 
L 715.111626 42.528711 
L 730.756999 43.017938 
L 746.402372 43.454135 
L 762.047744 43.578575 
L 777.693117 44.091504 
L 793.338489 44.364246 
L 808.983862 44.310709 
L 824.629235 45.095614 
L 840.274607 45.585946 
L 855.91998 46.980592 
L 871.565353 46.324964 
L 887.210725 46.360021 
L 902.856098 46.026048 
L 918.501471 45.63946 
L 934.146843 43.881419 
L 949.792216 40.646417 
" clip-path="url(#p4be21a90dc)" style="fill: none; stroke: #5cb85c; stroke-linecap: square"/>
   </g>
   <g id="line2d_34">
    <path d="M 81.474034 41.658398 
L 89.29672 41.608048 
L 97.119407 40.859831 
L 104.942093 40.99418 
L 112.764779 41.48826 
L 120.587466 41.625243 
L 128.410152 41.597295 
L 136.232838 41.651407 
L 144.055525 41.353871 
L 151.878211 41.280212 
L 167.523584 41.62219 
L 183.168956 41.942244 
L 198.814329 41.691347 
L 214.459702 41.533375 
L 230.105074 41.910021 
L 245.750447 41.698309 
L 261.39582 41.766487 
L 277.041192 41.816781 
L 292.686565 41.514491 
L 308.331937 42.261038 
L 323.97731 42.192579 
L 339.622683 41.756511 
L 355.268055 42.367995 
L 370.913428 42.522906 
L 386.558801 42.526023 
L 402.204173 42.460615 
L 417.849546 42.690567 
L 433.494919 42.539666 
L 449.140291 42.605477 
L 464.785664 43.696109 
L 480.431037 43.630314 
L 496.076409 43.202211 
L 511.721782 43.436805 
L 527.367154 43.906541 
L 543.012527 44.144002 
L 558.6579 44.719554 
L 574.303272 44.677272 
L 589.948645 44.988954 
L 605.594018 44.705661 
L 621.23939 44.560754 
L 636.884763 45.032197 
L 652.530136 44.961282 
L 668.175508 45.120572 
L 683.820881 45.505772 
L 699.466254 45.998808 
L 715.111626 46.188566 
L 730.756999 46.021046 
L 746.402372 46.598692 
L 762.047744 46.866478 
L 777.693117 48.182406 
L 793.338489 48.365249 
L 808.983862 48.205695 
L 824.629235 47.578383 
L 840.274607 48.740435 
L 855.91998 48.744061 
L 871.565353 49.561769 
L 887.210725 49.483366 
L 902.856098 49.376717 
L 918.501471 49.123943 
L 934.146843 47.483183 
L 949.792216 42.874914 
" clip-path="url(#p4be21a90dc)" style="fill: none; stroke: #5cb85c; stroke-linecap: square"/>
   </g>
   <g id="line2d_35">
    <path d="M 81.474034 36.487437 
L 89.29672 36.455812 
L 97.119407 36.536304 
L 104.942093 36.530953 
L 112.764779 36.583137 
L 120.587466 36.59697 
L 128.410152 36.611863 
L 136.232838 36.662846 
L 144.055525 36.742396 
L 151.878211 36.952716 
L 167.523584 36.900159 
L 183.168956 36.939483 
L 198.814329 37.21518 
L 214.459702 37.075884 
L 230.105074 37.035538 
L 245.750447 37.047767 
L 261.39582 37.082523 
L 277.041192 37.596383 
L 292.686565 37.97219 
L 308.331937 37.831386 
L 323.97731 37.889184 
L 339.622683 37.962469 
L 355.268055 38.067409 
L 370.913428 38.139799 
L 386.558801 38.57056 
L 402.204173 38.835887 
L 417.849546 38.523586 
L 433.494919 38.783503 
L 449.140291 39.050995 
L 464.785664 39.045987 
L 480.431037 39.20576 
L 496.076409 39.170692 
L 511.721782 39.284172 
L 527.367154 39.619585 
L 543.012527 39.55128 
L 558.6579 39.432728 
L 574.303272 39.698667 
L 589.948645 39.549814 
L 605.594018 39.646239 
L 621.23939 39.861182 
L 636.884763 39.974049 
L 652.530136 40.290396 
L 668.175508 40.683484 
L 683.820881 40.752638 
L 699.466254 41.232582 
L 715.111626 42.139263 
L 730.756999 42.537095 
L 746.402372 42.797612 
L 762.047744 43.067313 
L 777.693117 42.75632 
L 793.338489 43.222294 
L 808.983862 43.43552 
L 824.629235 43.866226 
L 840.274607 44.244161 
L 855.91998 44.960937 
L 871.565353 45.302091 
L 887.210725 45.055669 
L 902.856098 44.757857 
L 918.501471 44.746168 
L 934.146843 43.451443 
L 949.792216 40.267764 
" clip-path="url(#p4be21a90dc)" style="fill: none; stroke: #5cb85c; stroke-linecap: square"/>
   </g>
   <g id="line2d_36">
    <path d="M 81.474034 39.483743 
L 89.29672 39.407497 
L 97.119407 39.490916 
L 104.942093 39.509325 
L 112.764779 39.445784 
L 120.587466 39.568959 
L 128.410152 39.469619 
L 136.232838 39.474027 
L 144.055525 40.125631 
L 151.878211 39.695965 
L 167.523584 39.602465 
L 183.168956 39.755841 
L 198.814329 39.774061 
L 214.459702 39.860221 
L 230.105074 39.859642 
L 245.750447 39.971584 
L 261.39582 40.071843 
L 277.041192 40.532005 
L 292.686565 40.288269 
L 308.331937 40.314657 
L 323.97731 40.399669 
L 339.622683 40.471693 
L 355.268055 40.546031 
L 370.913428 40.545826 
L 386.558801 40.904625 
L 402.204173 41.001153 
L 417.849546 40.737839 
L 433.494919 40.858013 
L 449.140291 40.988628 
L 464.785664 41.147046 
L 480.431037 41.040661 
L 496.076409 41.131028 
L 511.721782 41.191591 
L 527.367154 41.280266 
L 543.012527 41.377951 
L 558.6579 41.505038 
L 574.303272 41.581409 
L 589.948645 41.71655 
L 605.594018 41.812228 
L 621.23939 41.975111 
L 636.884763 42.197562 
L 652.530136 42.42786 
L 668.175508 42.588662 
L 683.820881 42.767007 
L 699.466254 43.005351 
L 715.111626 43.214499 
L 730.756999 43.427315 
L 746.402372 43.693473 
L 762.047744 43.852132 
L 777.693117 44.14527 
L 793.338489 44.392716 
L 808.983862 44.513723 
L 824.629235 44.854191 
L 840.274607 45.121683 
L 855.91998 45.192942 
L 871.565353 45.352487 
L 887.210725 45.626922 
L 902.856098 45.728754 
L 918.501471 45.250983 
L 934.146843 44.364534 
L 949.792216 40.839621 
" clip-path="url(#p4be21a90dc)" style="fill: none; stroke: #5cb85c; stroke-linecap: square"/>
   </g>
   <g id="line2d_37">
    <path d="M 81.474034 36.448433 
L 89.29672 36.388005 
L 97.119407 36.455671 
L 104.942093 36.471019 
L 112.764779 36.501299 
L 120.587466 36.521293 
L 128.410152 36.53717 
L 136.232838 36.563344 
L 144.055525 36.635425 
L 151.878211 36.846488 
L 167.523584 36.796977 
L 183.168956 36.851372 
L 198.814329 37.108557 
L 214.459702 36.976865 
L 230.105074 36.923033 
L 245.750447 36.92592 
L 261.39582 36.962982 
L 277.041192 37.444205 
L 292.686565 37.777045 
L 308.331937 37.62226 
L 323.97731 37.663097 
L 339.622683 37.727629 
L 355.268055 37.850258 
L 370.913428 37.906662 
L 386.558801 38.332864 
L 402.204173 38.59283 
L 417.849546 38.264524 
L 433.494919 38.502601 
L 449.140291 38.74972 
L 464.785664 38.721124 
L 480.431037 38.845659 
L 496.076409 38.804627 
L 511.721782 38.92846 
L 527.367154 39.245815 
L 543.012527 39.175571 
L 558.6579 39.0621 
L 574.303272 39.297744 
L 589.948645 39.171405 
L 605.594018 39.251594 
L 621.23939 39.432563 
L 636.884763 39.543723 
L 652.530136 39.827519 
L 668.175508 40.224215 
L 683.820881 40.23209 
L 699.466254 40.70699 
L 715.111626 41.581253 
L 730.756999 41.95244 
L 746.402372 42.146236 
L 762.047744 42.404488 
L 777.693117 42.102145 
L 793.338489 42.527495 
L 808.983862 42.725985 
L 824.629235 43.13456 
L 840.274607 43.490819 
L 855.91998 44.131936 
L 871.565353 44.498397 
L 887.210725 44.214451 
L 902.856098 43.957075 
L 918.501471 43.938125 
L 934.146843 42.674353 
L 949.792216 39.767335 
" clip-path="url(#p4be21a90dc)" style="fill: none; stroke: #5cb85c; stroke-linecap: square"/>
   </g>
   <g id="line2d_38">
    <path d="M 81.474034 38.964705 
L 89.29672 38.857201 
L 97.119407 38.939518 
L 104.942093 38.93926 
L 112.764779 38.907068 
L 120.587466 39.041504 
L 128.410152 38.973363 
L 136.232838 38.989807 
L 144.055525 39.648843 
L 151.878211 39.208888 
L 167.523584 39.088866 
L 183.168956 39.21221 
L 198.814329 39.265942 
L 214.459702 39.3649 
L 230.105074 39.356972 
L 245.750447 39.453448 
L 261.39582 39.525532 
L 277.041192 39.983996 
L 292.686565 39.765214 
L 308.331937 39.782204 
L 323.97731 39.868669 
L 339.622683 39.91711 
L 355.268055 40.007179 
L 370.913428 40.030572 
L 386.558801 40.419284 
L 402.204173 40.465426 
L 417.849546 40.179289 
L 433.494919 40.255656 
L 449.140291 40.391419 
L 464.785664 40.531039 
L 480.431037 40.4756 
L 496.076409 40.558036 
L 511.721782 40.613731 
L 527.367154 40.6981 
L 543.012527 40.807993 
L 558.6579 40.921524 
L 574.303272 40.989667 
L 589.948645 41.114494 
L 605.594018 41.166092 
L 621.23939 41.339404 
L 636.884763 41.563739 
L 652.530136 41.764842 
L 668.175508 41.904769 
L 683.820881 42.095434 
L 699.466254 42.303225 
L 715.111626 42.528662 
L 730.756999 42.736253 
L 746.402372 42.966545 
L 762.047744 43.108422 
L 777.693117 43.394706 
L 793.338489 43.620086 
L 808.983862 43.759775 
L 824.629235 44.074848 
L 840.274607 44.315857 
L 855.91998 44.381532 
L 871.565353 44.520104 
L 887.210725 44.810145 
L 902.856098 44.918917 
L 918.501471 44.466441 
L 934.146843 43.600028 
L 949.792216 40.332311 
" clip-path="url(#p4be21a90dc)" style="fill: none; stroke: #5cb85c; stroke-linecap: square"/>
   </g>
   <g id="line2d_39">
    <path d="M 81.474034 36.388917 
L 89.29672 36.345484 
L 97.119407 36.399629 
L 104.942093 36.417022 
L 112.764779 36.464906 
L 120.587466 36.475733 
L 128.410152 36.49331 
L 136.232838 36.516488 
L 144.055525 36.595351 
L 151.878211 36.801076 
L 167.523584 36.738433 
L 183.168956 36.777051 
L 198.814329 37.047971 
L 214.459702 36.90821 
L 230.105074 36.873612 
L 245.750447 36.883894 
L 261.39582 36.906632 
L 277.041192 37.377376 
L 292.686565 37.718872 
L 308.331937 37.559892 
L 323.97731 37.600856 
L 339.622683 37.656477 
L 355.268055 37.775212 
L 370.913428 37.833152 
L 386.558801 38.26256 
L 402.204173 38.522146 
L 417.849546 38.187317 
L 433.494919 38.422899 
L 449.140291 38.672831 
L 464.785664 38.632271 
L 480.431037 38.740114 
L 496.076409 38.729333 
L 511.721782 38.839615 
L 527.367154 39.149019 
L 543.012527 39.086806 
L 558.6579 38.971753 
L 574.303272 39.222602 
L 589.948645 39.078886 
L 605.594018 39.155071 
L 621.23939 39.350035 
L 636.884763 39.445831 
L 652.530136 39.74481 
L 668.175508 40.131892 
L 683.820881 40.139275 
L 699.466254 40.627287 
L 715.111626 41.498977 
L 730.756999 41.87843 
L 746.402372 42.086349 
L 762.047744 42.340061 
L 777.693117 42.045521 
L 793.338489 42.475941 
L 808.983862 42.690906 
L 824.629235 43.097059 
L 840.274607 43.44996 
L 855.91998 44.112989 
L 871.565353 44.497244 
L 887.210725 44.200231 
L 902.856098 43.926534 
L 918.501471 43.897725 
L 934.146843 42.666294 
L 949.792216 39.78776 
" clip-path="url(#p4be21a90dc)" style="fill: none; stroke: #5cb85c; stroke-linecap: square"/>
   </g>
   <g id="line2d_40">
    <path d="M 81.474034 39.321949 
L 89.29672 39.213668 
L 97.119407 39.29813 
L 104.942093 39.313128 
L 112.764779 39.268897 
L 120.587466 39.401703 
L 128.410152 39.319963 
L 136.232838 39.332282 
L 144.055525 39.996428 
L 151.878211 39.554276 
L 167.523584 39.446015 
L 183.168956 39.57388 
L 198.814329 39.629029 
L 214.459702 39.750367 
L 230.105074 39.745473 
L 245.750447 39.845219 
L 261.39582 39.948432 
L 277.041192 40.421399 
L 292.686565 40.203408 
L 308.331937 40.241713 
L 323.97731 40.31032 
L 339.622683 40.366874 
L 355.268055 40.45215 
L 370.913428 40.476826 
L 386.558801 40.864505 
L 402.204173 40.920064 
L 417.849546 40.635033 
L 433.494919 40.743652 
L 449.140291 40.864937 
L 464.785664 40.981561 
L 480.431037 40.958618 
L 496.076409 41.070249 
L 511.721782 41.128322 
L 527.367154 41.248134 
L 543.012527 41.360572 
L 558.6579 41.490742 
L 574.303272 41.555154 
L 589.948645 41.680487 
L 605.594018 41.767552 
L 621.23939 41.941946 
L 636.884763 42.167985 
L 652.530136 42.382397 
L 668.175508 42.543046 
L 683.820881 42.735129 
L 699.466254 42.965742 
L 715.111626 43.193739 
L 730.756999 43.406539 
L 746.402372 43.661788 
L 762.047744 43.807575 
L 777.693117 44.112937 
L 793.338489 44.352869 
L 808.983862 44.482796 
L 824.629235 44.846977 
L 840.274607 45.081515 
L 855.91998 45.151226 
L 871.565353 45.287734 
L 887.210725 45.575669 
L 902.856098 45.66876 
L 918.501471 45.185212 
L 934.146843 44.256041 
L 949.792216 40.76975 
" clip-path="url(#p4be21a90dc)" style="fill: none; stroke: #5cb85c; stroke-linecap: square"/>
   </g>
   <g id="line2d_41">
    <path d="M 81.474034 36.564436 
L 89.29672 36.52576 
L 97.119407 36.592666 
L 104.942093 36.594078 
L 112.764779 36.641887 
L 120.587466 36.656473 
L 128.410152 36.672071 
L 136.232838 36.719255 
L 144.055525 36.793362 
L 151.878211 37.014526 
L 167.523584 36.962079 
L 183.168956 37.014268 
L 198.814329 37.272391 
L 214.459702 37.145019 
L 230.105074 37.106417 
L 245.750447 37.117082 
L 261.39582 37.140797 
L 277.041192 37.659649 
L 292.686565 38.01361 
L 308.331937 37.865115 
L 323.97731 37.925813 
L 339.622683 37.986667 
L 355.268055 38.114019 
L 370.913428 38.177817 
L 386.558801 38.608501 
L 402.204173 38.884267 
L 417.849546 38.564419 
L 433.494919 38.810966 
L 449.140291 39.075422 
L 464.785664 39.05325 
L 480.431037 39.187952 
L 496.076409 39.163737 
L 511.721782 39.280689 
L 527.367154 39.607435 
L 543.012527 39.538919 
L 558.6579 39.42392 
L 574.303272 39.681234 
L 589.948645 39.541468 
L 605.594018 39.641863 
L 621.23939 39.844101 
L 636.884763 39.955879 
L 652.530136 40.263399 
L 668.175508 40.673088 
L 683.820881 40.725511 
L 699.466254 41.210192 
L 715.111626 42.101099 
L 730.756999 42.497004 
L 746.402372 42.726443 
L 762.047744 43.007341 
L 777.693117 42.703556 
L 793.338489 43.178489 
L 808.983862 43.391054 
L 824.629235 43.823688 
L 840.274607 44.208346 
L 855.91998 44.89548 
L 871.565353 45.226037 
L 887.210725 44.945967 
L 902.856098 44.653342 
L 918.501471 44.665545 
L 934.146843 43.369139 
L 949.792216 40.207942 
" clip-path="url(#p4be21a90dc)" style="fill: none; stroke: #5cb85c; stroke-linecap: square"/>
   </g>
   <g id="line2d_42">
    <path d="M 81.474034 38.832871 
L 89.29672 38.745821 
L 97.119407 38.818117 
L 104.942093 38.836247 
L 112.764779 38.806839 
L 120.587466 38.937858 
L 128.410152 38.863481 
L 136.232838 38.883405 
L 144.055525 39.529136 
L 151.878211 39.069048 
L 167.523584 38.968208 
L 183.168956 39.09596 
L 198.814329 39.152564 
L 214.459702 39.256376 
L 230.105074 39.246075 
L 245.750447 39.331301 
L 261.39582 39.422893 
L 277.041192 39.887387 
L 292.686565 39.668137 
L 308.331937 39.693787 
L 323.97731 39.760208 
L 339.622683 39.806844 
L 355.268055 39.882594 
L 370.913428 39.894965 
L 386.558801 40.283103 
L 402.204173 40.330297 
L 417.849546 40.059689 
L 433.494919 40.165619 
L 449.140291 40.288598 
L 464.785664 40.434892 
L 480.431037 40.354839 
L 496.076409 40.422586 
L 511.721782 40.486246 
L 527.367154 40.569915 
L 543.012527 40.672416 
L 558.6579 40.783202 
L 574.303272 40.851645 
L 589.948645 40.967599 
L 605.594018 41.042958 
L 621.23939 41.212433 
L 636.884763 41.418087 
L 652.530136 41.627558 
L 668.175508 41.767797 
L 683.820881 41.950171 
L 699.466254 42.165465 
L 715.111626 42.369056 
L 730.756999 42.574336 
L 746.402372 42.824099 
L 762.047744 42.950144 
L 777.693117 43.234945 
L 793.338489 43.461917 
L 808.983862 43.578682 
L 824.629235 43.919064 
L 840.274607 44.146487 
L 855.91998 44.217935 
L 871.565353 44.374898 
L 887.210725 44.663968 
L 902.856098 44.767408 
L 918.501471 44.334879 
L 934.146843 43.514506 
L 949.792216 40.288268 
" clip-path="url(#p4be21a90dc)" style="fill: none; stroke: #5cb85c; stroke-linecap: square"/>
   </g>
   <g id="line2d_43">
    <path d="M 81.474034 36.474391 
L 89.29672 36.426654 
L 97.119407 36.500614 
L 104.942093 36.498657 
L 112.764779 36.549779 
L 120.587466 36.577819 
L 128.410152 36.590582 
L 136.232838 36.631639 
L 144.055525 36.696388 
L 151.878211 36.917121 
L 167.523584 36.866896 
L 183.168956 36.920881 
L 198.814329 37.176976 
L 214.459702 37.046436 
L 230.105074 37.001315 
L 245.750447 37.00257 
L 261.39582 37.031796 
L 277.041192 37.526373 
L 292.686565 37.86106 
L 308.331937 37.711448 
L 323.97731 37.763257 
L 339.622683 37.827499 
L 355.268055 37.9469 
L 370.913428 38.004932 
L 386.558801 38.417294 
L 402.204173 38.701738 
L 417.849546 38.373444 
L 433.494919 38.607966 
L 449.140291 38.861844 
L 464.785664 38.850525 
L 480.431037 38.975593 
L 496.076409 38.927979 
L 511.721782 39.052008 
L 527.367154 39.37086 
L 543.012527 39.305982 
L 558.6579 39.193903 
L 574.303272 39.417972 
L 589.948645 39.293744 
L 605.594018 39.384468 
L 621.23939 39.567613 
L 636.884763 39.682366 
L 652.530136 39.980251 
L 668.175508 40.373557 
L 683.820881 40.385327 
L 699.466254 40.888268 
L 715.111626 41.757296 
L 730.756999 42.141726 
L 746.402372 42.372859 
L 762.047744 42.623728 
L 777.693117 42.341891 
L 793.338489 42.775131 
L 808.983862 42.989388 
L 824.629235 43.406027 
L 840.274607 43.770325 
L 855.91998 44.434851 
L 871.565353 44.803324 
L 887.210725 44.513831 
L 902.856098 44.260567 
L 918.501471 44.278497 
L 934.146843 43.017037 
L 949.792216 39.973916 
" clip-path="url(#p4be21a90dc)" style="fill: none; stroke: #5cb85c; stroke-linecap: square"/>
   </g>
   <g id="line2d_44">
    <path d="M 81.474034 38.882215 
L 89.29672 38.774005 
L 97.119407 38.862577 
L 104.942093 38.881164 
L 112.764779 38.847583 
L 120.587466 38.986762 
L 128.410152 38.928346 
L 136.232838 38.966821 
L 144.055525 39.605767 
L 151.878211 39.163001 
L 167.523584 39.061906 
L 183.168956 39.185875 
L 198.814329 39.237953 
L 214.459702 39.348541 
L 230.105074 39.343693 
L 245.750447 39.430776 
L 261.39582 39.526769 
L 277.041192 39.990645 
L 292.686565 39.781743 
L 308.331937 39.789576 
L 323.97731 39.874573 
L 339.622683 39.950157 
L 355.268055 40.0305 
L 370.913428 40.069519 
L 386.558801 40.466319 
L 402.204173 40.506987 
L 417.849546 40.246651 
L 433.494919 40.340798 
L 449.140291 40.471818 
L 464.785664 40.604767 
L 480.431037 40.529261 
L 496.076409 40.626829 
L 511.721782 40.691954 
L 527.367154 40.795091 
L 543.012527 40.904241 
L 558.6579 41.023121 
L 574.303272 41.088971 
L 589.948645 41.224994 
L 605.594018 41.300327 
L 621.23939 41.464833 
L 636.884763 41.673783 
L 652.530136 41.879474 
L 668.175508 42.036878 
L 683.820881 42.228913 
L 699.466254 42.455612 
L 715.111626 42.667358 
L 730.756999 42.87156 
L 746.402372 43.112855 
L 762.047744 43.265245 
L 777.693117 43.550169 
L 793.338489 43.785367 
L 808.983862 43.920341 
L 824.629235 44.243869 
L 840.274607 44.488881 
L 855.91998 44.563098 
L 871.565353 44.713923 
L 887.210725 45.009441 
L 902.856098 45.124008 
L 918.501471 44.67027 
L 934.146843 43.79145 
L 949.792216 40.481037 
" clip-path="url(#p4be21a90dc)" style="fill: none; stroke: #5cb85c; stroke-linecap: square"/>
   </g>
   <g id="line2d_45">
    <path d="M 38.058125 354.7359 
L 993.208125 354.7359 
" clip-path="url(#p4be21a90dc)" style="fill: none; stroke: #dedede; stroke-width: 2; stroke-linecap: square"/>
   </g>
   <g id="text_17">
    <!-- FastQC: Mean Quality Scores -->
    <g transform="translate(400.394375 19.3575)scale(0.16 -0.16)">
     <defs>
      <path id="DejaVuSans-46" d="M 628 4666 
L 3309 4666 
L 3309 4134 
L 1259 4134 
L 1259 2759 
L 3109 2759 
L 3109 2228 
L 1259 2228 
L 1259 0 
L 628 0 
L 628 4666 
z
" transform="scale(0.015625)"/>
      <path id="DejaVuSans-61" d="M 2194 1759 
Q 1497 1759 1228 1600 
Q 959 1441 959 1056 
Q 959 750 1161 570 
Q 1363 391 1709 391 
Q 2188 391 2477 730 
Q 2766 1069 2766 1631 
L 2766 1759 
L 2194 1759 
z
M 3341 1997 
L 3341 0 
L 2766 0 
L 2766 531 
Q 2569 213 2275 61 
Q 1981 -91 1556 -91 
Q 1019 -91 701 211 
Q 384 513 384 1019 
Q 384 1609 779 1909 
Q 1175 2209 1959 2209 
L 2766 2209 
L 2766 2266 
Q 2766 2663 2505 2880 
Q 2244 3097 1772 3097 
Q 1472 3097 1187 3025 
Q 903 2953 641 2809 
L 641 3341 
Q 956 3463 1253 3523 
Q 1550 3584 1831 3584 
Q 2591 3584 2966 3190 
Q 3341 2797 3341 1997 
z
" transform="scale(0.015625)"/>
      <path id="DejaVuSans-51" d="M 2522 4238 
Q 1834 4238 1429 3725 
Q 1025 3213 1025 2328 
Q 1025 1447 1429 934 
Q 1834 422 2522 422 
Q 3209 422 3611 934 
Q 4013 1447 4013 2328 
Q 4013 3213 3611 3725 
Q 3209 4238 2522 4238 
z
M 3406 84 
L 4238 -825 
L 3475 -825 
L 2784 -78 
Q 2681 -84 2626 -87 
Q 2572 -91 2522 -91 
Q 1538 -91 948 567 
Q 359 1225 359 2328 
Q 359 3434 948 4092 
Q 1538 4750 2522 4750 
Q 3503 4750 4090 4092 
Q 4678 3434 4678 2328 
Q 4678 1516 4351 937 
Q 4025 359 3406 84 
z
" transform="scale(0.015625)"/>
      <path id="DejaVuSans-43" d="M 4122 4306 
L 4122 3641 
Q 3803 3938 3442 4084 
Q 3081 4231 2675 4231 
Q 1875 4231 1450 3742 
Q 1025 3253 1025 2328 
Q 1025 1406 1450 917 
Q 1875 428 2675 428 
Q 3081 428 3442 575 
Q 3803 722 4122 1019 
L 4122 359 
Q 3791 134 3420 21 
Q 3050 -91 2638 -91 
Q 1578 -91 968 557 
Q 359 1206 359 2328 
Q 359 3453 968 4101 
Q 1578 4750 2638 4750 
Q 3056 4750 3426 4639 
Q 3797 4528 4122 4306 
z
" transform="scale(0.015625)"/>
      <path id="DejaVuSans-3a" d="M 750 794 
L 1409 794 
L 1409 0 
L 750 0 
L 750 794 
z
M 750 3309 
L 1409 3309 
L 1409 2516 
L 750 2516 
L 750 3309 
z
" transform="scale(0.015625)"/>
      <path id="DejaVuSans-4d" d="M 628 4666 
L 1569 4666 
L 2759 1491 
L 3956 4666 
L 4897 4666 
L 4897 0 
L 4281 0 
L 4281 4097 
L 3078 897 
L 2444 897 
L 1241 4097 
L 1241 0 
L 628 0 
L 628 4666 
z
" transform="scale(0.015625)"/>
      <path id="DejaVuSans-75" d="M 544 1381 
L 544 3500 
L 1119 3500 
L 1119 1403 
Q 1119 906 1312 657 
Q 1506 409 1894 409 
Q 2359 409 2629 706 
Q 2900 1003 2900 1516 
L 2900 3500 
L 3475 3500 
L 3475 0 
L 2900 0 
L 2900 538 
Q 2691 219 2414 64 
Q 2138 -91 1772 -91 
Q 1169 -91 856 284 
Q 544 659 544 1381 
z
M 1991 3584 
L 1991 3584 
z
" transform="scale(0.015625)"/>
      <path id="DejaVuSans-6c" d="M 603 4863 
L 1178 4863 
L 1178 0 
L 603 0 
L 603 4863 
z
" transform="scale(0.015625)"/>
      <path id="DejaVuSans-79" d="M 2059 -325 
Q 1816 -950 1584 -1140 
Q 1353 -1331 966 -1331 
L 506 -1331 
L 506 -850 
L 844 -850 
Q 1081 -850 1212 -737 
Q 1344 -625 1503 -206 
L 1606 56 
L 191 3500 
L 800 3500 
L 1894 763 
L 2988 3500 
L 3597 3500 
L 2059 -325 
z
" transform="scale(0.015625)"/>
     </defs>
     <use xlink:href="#DejaVuSans-46"/>
     <use xlink:href="#DejaVuSans-61" x="48.394531"/>
     <use xlink:href="#DejaVuSans-73" x="109.673828"/>
     <use xlink:href="#DejaVuSans-74" x="161.773438"/>
     <use xlink:href="#DejaVuSans-51" x="200.982422"/>
     <use xlink:href="#DejaVuSans-43" x="279.693359"/>
     <use xlink:href="#DejaVuSans-3a" x="349.517578"/>
     <use xlink:href="#DejaVuSans-20" x="383.208984"/>
     <use xlink:href="#DejaVuSans-4d" x="414.996094"/>
     <use xlink:href="#DejaVuSans-65" x="501.275391"/>
     <use xlink:href="#DejaVuSans-61" x="562.798828"/>
     <use xlink:href="#DejaVuSans-6e" x="624.078125"/>
     <use xlink:href="#DejaVuSans-20" x="687.457031"/>
     <use xlink:href="#DejaVuSans-51" x="719.244141"/>
     <use xlink:href="#DejaVuSans-75" x="797.955078"/>
     <use xlink:href="#DejaVuSans-61" x="861.333984"/>
     <use xlink:href="#DejaVuSans-6c" x="922.613281"/>
     <use xlink:href="#DejaVuSans-69" x="950.396484"/>
     <use xlink:href="#DejaVuSans-74" x="978.179688"/>
     <use xlink:href="#DejaVuSans-79" x="1017.388672"/>
     <use xlink:href="#DejaVuSans-20" x="1076.568359"/>
     <use xlink:href="#DejaVuSans-53" x="1108.355469"/>
     <use xlink:href="#DejaVuSans-63" x="1171.832031"/>
     <use xlink:href="#DejaVuSans-6f" x="1226.8125"/>
     <use xlink:href="#DejaVuSans-72" x="1287.994141"/>
     <use xlink:href="#DejaVuSans-65" x="1326.857422"/>
     <use xlink:href="#DejaVuSans-73" x="1388.380859"/>
    </g>
   </g>
  </g>
 </g>
 <defs>
  <clipPath id="p4be21a90dc">
   <rect x="38.058125" y="35.3279" width="955.15" height="319.408"/>
  </clipPath>
 </defs>
</svg>
